<mxfile host="app.diagrams.net" modified="2023-10-20T16:57:42.807Z" agent="Mozilla/5.0 (Windows NT 10.0; Win64; x64) AppleWebKit/537.36 (KHTML, like Gecko) Chrome/118.0.0.0 Safari/537.36" etag="gmF9WvFtx1mM21n4HOzt" version="22.0.6" type="google">
  <diagram name="PÃ¡gina-1" id="AY2QviZr45bDYabQEg0C">
    <mxGraphModel grid="0" page="0" gridSize="10" guides="0" tooltips="1" connect="1" arrows="1" fold="1" pageScale="1" pageWidth="2336" pageHeight="1654" math="0" shadow="0">
      <root>
        <mxCell id="0" />
        <mxCell id="1" parent="0" />
        <mxCell id="vKnNRoz7A6DcVykYE2kj-8" value="" style="rounded=0;whiteSpace=wrap;html=1;hachureGap=4;fontFamily=Comic Sans MS;fontSize=20;fillColor=#fad9d5;strokeColor=#ae4132;" vertex="1" parent="1">
          <mxGeometry x="-484" y="-1209" width="581" height="1511" as="geometry" />
        </mxCell>
        <mxCell id="vKnNRoz7A6DcVykYE2kj-9" value="&lt;font style=&quot;font-size: 50px;&quot;&gt;BackEnd&lt;/font&gt;" style="text;html=1;strokeColor=none;fillColor=none;align=center;verticalAlign=middle;whiteSpace=wrap;rounded=0;fontSize=20;fontFamily=Comic Sans MS;" vertex="1" parent="1">
          <mxGeometry x="-286" y="-1192" width="185" height="30" as="geometry" />
        </mxCell>
        <mxCell id="vKnNRoz7A6DcVykYE2kj-10" value="" style="shape=image;verticalLabelPosition=bottom;labelBackgroundColor=default;verticalAlign=top;aspect=fixed;imageAspect=0;image=data:image/svg+xml,PHN2ZyB4bWxuczp4bGluaz0iaHR0cDovL3d3dy53My5vcmcvMTk5OS94bGluayIgeG1sbnM9Imh0dHA6Ly93d3cudzMub3JnLzIwMDAvc3ZnIiBwcmVzZXJ2ZUFzcGVjdFJhdGlvPSJ4TWlkWU1pZCIgdmVyc2lvbj0iMS4xIiB2aWV3Qm94PSIwIDAgMjU2IDI1NC45OTYwNDc5NzM2MzI4IiBoZWlnaHQ9IjI1NC45OTYwNDc5NzM2MzI4IiB3aWR0aD0iMjU2Ij4mI3hhOyAgICA8Zz4mI3hhOyAgICAgICAgPHBhdGggZmlsbD0iI0UwMjM0RSIgZD0iTTE1MC43MzU3MzksMCBDMTQ4Ljg4NDYsMCAxNDcuMTY1Njg3LDAuMzk2Njg2MTE1IDE0NS41Nzg5OCwwLjkyNTU3MjI4OSBDMTQ4Ljk1MDY5MiwzLjE3MzM4NzY0IDE1MC44MDE4NDEsNi4xNDg0NjU0NyAxNTEuNzI3NDQxLDkuNTIwMTg4NDkgQzE1MS43OTM3MzgsOS45ODI5Njc5OCAxNTEuOTI1Nzc5LDEwLjMxMzU0NjQgMTUxLjk5MTk3NCwxMC43NzYzMTA1IEMxNTIuMDU4MjcxLDExLjE3Mjk5NjcgMTUyLjEyNDExOCwxMS41Njk2Njg1IDE1Mi4xMjQxMTgsMTEuOTY2MzUyNSBDMTUyLjM4ODY5MiwxNy43ODQyMjgzIDE1MC42MDM1MDMsMTguNTExNDYzMiAxNDkuMzQ3MzksMjEuOTQ5MzA5MiBDMTQ3LjQzMDExOCwyNi4zNzg4NTY4IDE0Ny45NTksMzEuMTM4OTQyOSAxNTAuMjcyOTQ5LDM0Ljk3MzQ3MiBDMTUwLjQ3MTI5NywzNS40MzYyMzkyIDE1MC43MzU3MzksMzUuOTY1MTM4NyAxNTEuMDY2MzIzLDM2LjQyNzkzMTUgQzE0OC41NTQwMTYsMTkuNzAxNDkxOSAxNjIuNTAzNzY5LDE3LjE4OTIyMDEgMTY1LjA4MjExOCwxMS45NjYzNTI1IEMxNjUuMjgwNDU2LDcuNDA0NTg3NTIgMTYxLjUxMjA2Niw0LjM2MzQxNjMxIDE1OC41MzcwMiwyLjI0NzgxNzM5IEMxNTUuNjk0MTksMC41Mjg5MDA0OTcgMTUzLjExNTc2OSwwIDE1MC43MzU3MzksMCBaIE0xNzEuNzU5NDgyLDMuNzY4NDA4MTEgQzE3MS40OTQ5MjgsNS4yODg5ODk2MyAxNzEuNjkzMjg3LDQuODkyMzE1NzkgMTcxLjYyNzM2OSw1LjY4NTY3MjY3IEMxNzEuNTYxMTc0LDYuMjE0NTU5ODcgMTcxLjU2MTE3NCw2Ljg3NTcwMDMzIDE3MS40OTUyNDUsNy40MDQ1ODc1MiBDMTcxLjM2MzEyMiw3LjkzMzQ4OTA0IDE3MS4yMzA2NzEsOC40NjIzNzYyNCAxNzEuMDMyNDM1LDguOTkxMzAxMjkgQzE3MC45MDAzMjIsOS41MjAxODg0OSAxNzAuNzAxODgxLDEwLjA0OTA4OSAxNzAuNTAzNTUzLDEwLjU3Nzk3NTIgQzE3MC4yMzg5NzksMTEuMTA2OTAxMiAxNzAuMDQwNzYzLDExLjU2OTY2ODUgMTY5Ljc3NjMxMiwxMi4wOTg1Njc5IEMxNjkuNTc3OTg0LDEyLjM2MzEyNjYgMTY5LjQ0NTc1OCwxMi42Mjc0NTUxIDE2OS4yNDc0MiwxMi44OTE5MjQ4IEMxNjkuMTE1Mjk2LDEzLjA5MDI2MDIgMTY4Ljk4Mjg2NiwxMy4yODg1OTY2IDE2OC44NTA3NTMsMTMuNDg2OTMyIEMxNjguNTIwMTk5LDEzLjk0OTczNzEgMTY4LjE4OTYxNSwxNC40MTI1MDQzIDE2Ny44NTkwNzEsMTQuODA5MTc1IEMxNjcuNDYyMzc0LDE1LjIwNTg2MTIgMTY3LjEzMTgyLDE1LjY2ODYyNzQgMTY2LjY2OTAwOSwxNS45OTkyMTcgQzE2Ni42NjkwMDksMTYuMDY1NDExNyAxNjYuNjY5MDA5LDE2LjA2NTQxMTcgMTY2LjY2OTAwOSwxNi4wNjU0MTE3IEMxNjYuMjcyMzQzLDE2LjM5NTk3NTggMTY1Ljg3NTY2NiwxNi43OTI2NDc2IDE2NS40MTI4OTcsMTcuMTIzMTk5NCBDMTY0LjAyNDUyNywxOC4xODA5ODYxIDE2Mi40Mzc4NTEsMTguOTc0MzQxOSAxNjAuOTgzMzU4LDE5Ljk2NjAzNDIgQzE2MC41MjA1OTksMjAuMjk2NTg2IDE2MC4wNTc3NzksMjAuNTYxMDU2NyAxNTkuNjYxMTIyLDIwLjk1NzcyNjUgQzE1OS4xOTgzNDMsMjEuMjg4Mjc4MyAxNTguODAxNjU2LDIxLjYxODgzMDEgMTU4LjQwNDk5OSwyMi4wMTU1MTQxIEMxNTcuOTQyMTg5LDIyLjQxMjE4NTkgMTU3LjYxMTYzNSwyMi44MDg4NyAxNTcuMjE0OTQ4LDIzLjI3MTY2MTggQzE1Ni44ODQzOTQsMjMuNjY4MzQ2OSAxNTYuNDg3NzI4LDI0LjEzMTExNjEgMTU2LjIyMzI4NywyNC41OTM5MjAyIEMxNTUuODkyNzAyLDI1LjA1NjY4NjQgMTU1LjU2MjE1OCwyNS41MTk0ODAyIDE1NS4yOTc2ODcsMjUuOTgyMjU4NyBDMTU1LjAzMzE0MywyNi41MTExNDQ4IDE1NC44MzQ5MDcsMjYuOTczOTQ5OSAxNTQuNTcwNDU2LDI3LjUwMjgzODEgQzE1NC4zNzIxMjgsMjguMDMxNzI0MyAxNTQuMTczNzY5LDI4LjQ5NDUzMTQgMTU0LjA0MTU2NCwyOS4wMjM0MTY2IEMxNTMuODQzMjI1LDI5LjYxODQzODEgMTUzLjcxMDk5OSwzMC4xNDczMzg2IDE1My41Nzg3NzQsMzAuNjc2MjUxMyBDMTUzLjUxMjU3OSwzMC45NDA4MDggMTUzLjUxMjU3OSwzMS4yNzEyNDYyIDE1My40NDY2NTEsMzEuNTM1NzAyNiBDMTUzLjM4MDM1NCwzMS44MDAyNjAzIDE1My4zODAzNTQsMzIuMDY0NTg5OCAxNTMuMzE0NTM3LDMyLjMyOTA1OTUgQzE1My4zMTQ1MzcsMzIuODU3OTQ1NyAxNTMuMjQ4MzQzLDMzLjQ1Mjk2NzIgMTUzLjI0ODM0MywzMy45ODE4NTQ0IEMxNTMuMjQ4MzQzLDM0LjM3ODUzODUgMTUzLjI0ODM0MywzNC43NzUyMDkyIDE1My4zMTQ1MzcsMzUuMTcxODk0MyBDMTUzLjMxNDUzNywzNS43MDA3ODI1IDE1My4zODA3MzIsMzYuMjI5NjcwOCAxNTMuNTEyODY2LDM2LjgyNDY5MDIgQzE1My41NzkwNiwzNy4zNTM1NzY0IDE1My43MTExODQsMzcuODgyNDc2OSAxNTMuODQzNDUsMzguNDExNDAzIEMxNTQuMDQxNzg5LDM4Ljk0MDI4OTEgMTU0LjE3NDAxNCwzOS40NjkxODk2IDE1NC4zNzIzMzIsMzkuOTk4MDc2OCBDMTU0LjUwNDQ3Niw0MC4zMjg2Njc1IDE1NC43MDI4ODYsNDAuNjU5MjE4MyAxNTQuODM1MTQyLDQwLjkyMzY0OTEgTDEzOS42MjkyNzYsMzUuMDM5NjQ5MiBDMTM3LjA1MDg3NiwzNC4zMTI0MTM0IDEzNC41Mzg2MywzMy42NTEzMTA4IDEzMS45NjAyMywzMy4wNTYyODkzIEMxMzAuNTcxODgyLDMyLjcyNTczODUgMTI5LjE4MzUzMywzMi4zOTUxNjMxIDEyNy43OTUxNjQsMzIuMDY0NTk4IEMxMjMuODI4NDA1LDMxLjI3MTI1NDQgMTE5Ljc5NTU4NCwzMC42NzYyNTg1IDExNS43NjI3MTMsMzAuMjc5NTg3NyBDMTE1LjYzMDYsMzAuMjc5NTg3NyAxMTUuNTY0Mzg0LDMwLjIxMzM4MjggMTE1LjQzMjE1OSwzMC4yMTMzODI4IEMxMTEuNDY1MzksMjkuODE2NzEyMSAxMDcuNTY0Nzg1LDI5LjYxODM3NTcgMTAzLjU5ODA0NiwyOS42MTgzNzU3IEMxMDAuNjg5MDgyLDI5LjYxODM3NTcgOTcuNzgwMTE4MiwyOS43NTA0ODk4IDk0LjkzNzI4NjUsMjkuOTQ4OTI3NSBDOTAuOTA0NDI3MSwzMC4yMTM0ODUyIDg2Ljg3MTU2MTYsMzAuNzQyMjgzMyA4Mi44Mzg3Mjk4LDMxLjQwMzM4NTkgQzgxLjg0NzAzNTUsMzEuNTM1NTEzNCA4MC44NTUzNDMyLDMxLjczMzk3NTYgNzkuODYzNjQ3OSwzMS45MzIzMTMgQzc3LjgxNDE3MiwzMi4zMjg5NTgyIDc1LjgzMDgxNjEsMzIuNzkxNzYzMyA3My45MTM1NTM2LDMzLjI1NDU1NTEgQzcyLjkyMTg2MTMsMzMuNTE5MTEyNyA3MS45MzAxNjcsMzMuNzgzNDU1NiA3MC45Mzg0NzM3LDM0LjA0Nzg4NzQgQzY5Ljk0NjgxMjIsMzQuNDQ0NTU3MSA2OS4wMjEyNDI5LDM0LjkwNzM2NDMgNjguMDk1NjQxLDM1LjMwNDAzNSBDNjcuMzY4NDA5MiwzNS42MzQ1ODY4IDY2LjY0MTE4MDUsMzUuOTY1MTQ5OSA2NS45MTM5NDc3LDM2LjI5NTcyNzMgQzY1Ljc4MTgyNTQsMzYuMzYxOTMyMiA2NS42NDkzOTQxLDM2LjM2MTkzMjIgNjUuNTgzMzkzOCwzNi40Mjc4NTQ3IEM2NC45MjIyNTU0LDM2Ljc1ODQwNTUgNjQuMzI3MjQsMzcuMDIyODM2MyA2My43MzIyNTQzLDM3LjM1MzQyNSBDNjMuNTMzOTE0OSwzNy40MTk2Mjk5IDYzLjQwMTY2NzcsMzcuNDg1NTQwMSA2My4yNjk0NTM0LDM3LjU1MTc2MjQgQzYyLjU0MjIyMjYsMzcuODgyMzE1MiA2MS44MTQ5OTM5LDM4LjI3ODk4NiA2MS4yMTk5NzU0LDM4LjYwOTU0OTEgQzYwLjc1NzE3NTUsMzguODA3ODg1NSA2MC4yOTQ0MDYyLDM5LjA3MjM0MTkgNTkuODk3NzMwMywzOS4yNzA2OTA1IEM1OS42OTkzODk4LDM5LjQwMjgwNDcgNTkuNDM0OTI3MywzOS41MzUyMzU5IDU5LjMwMjcxMjksMzkuNjAxMjQyNCBDNTguNzA3Njk4NiwzOS45MzE3OTQyIDU4LjExMjY4MjIsNDAuMjYyMzQzOSA1Ny41ODM3ODg5LDQwLjU5MjkzNDYgQzU2Ljk4ODc3MjUsNDAuOTIzNDg1NCA1Ni40NTk4NzkyLDQxLjI1NDAzNzIgNTUuOTk3MDc5Miw0MS41ODQ1ODkgQzU1LjUzNDMxMiw0MS45MTUxNzg3IDU1LjA3MTUxMyw0Mi4xNzk2MDk1IDU0LjY3NDgzMzEsNDIuNTEwMTYwMyBDNTQuNjA4NTk3NSw0Mi41NzYzNjUyIDU0LjU0MjcxMDgsNDIuNTc2MzY1MiA1NC40NzY0OTM2LDQyLjY0MjI4ODggQzU0LjA3OTgxNzcsNDIuOTA2ODQ1NCA1My42MTcwNDg0LDQzLjIzNzI5NDkgNTMuMjIwMzcyNiw0My41Njc4ODQ2IEM1My4yMjAzNzI2LDQzLjU2Nzg4NDYgNTMuMTU0MTQ3Miw0My42MzQwNzkyIDUzLjA4ODI0OTIsNDMuNzAwMDA5OSBDNTIuNzU3Njk1NCw0My45NjQ1Njc2IDUyLjQyNzEwODgsNDQuMjI4ODk5MiA1Mi4wOTY1NTU5LDQ0LjQ5MzMzIEM1MS45NjQ0MzQ3LDQ0LjU1OTUzNDkgNTEuODMyMDAxMyw0NC42OTE2NjU0IDUxLjY5OTg3OSw0NC43NTc4ODY2IEM1MS4zNjkzMjUyLDQ1LjAyMjQ0NjQgNTEuMDM4NzcxMyw0NS4zNTI5MDgxIDUwLjcwODIxNjQsNDUuNjE3MzYzNSBDNTAuNjQxOTkxMSw0NS43NDk0ODk5IDUwLjUwOTg3OSw0NS44MTU2OTk5IDUwLjQ0MzY2MTgsNDUuODgxOTIyMiBDNTAuMDQ2OTg0OSw0Ni4yNzg1OTQgNDkuNjUwMzA3LDQ2LjYwOTE0NDggNDkuMjUzNjMwMSw0Ny4wMDU4Mjk5IEM0OS4xODc0MDQ3LDQ3LjAwNTgyOTkgNDkuMTg3NDA0Nyw0Ny4wNzIwMzQ4IDQ5LjEyMTUwNzgsNDcuMTM3OTQ0IEM0OC43MjQ4MzA5LDQ3LjQ2ODUwODEgNDguMzI4MTU1LDQ3Ljg2NTE4MDkgNDcuOTMxNDc4MSw0OC4yNjE4NjUgQzQ3Ljg2NTI1MjcsNDguMzI4MDY5OSA0Ny44NjUyNTI3LDQ4LjM5Mzk3ODEgNDcuNzk5MzU0OCw0OC4zOTM5NzgxIEM0Ny40Njg4MDA5LDQ4LjcyNDUzMDkgNDcuMTM4MjQ3LDQ5LjA1NTExOTUgNDYuODA3NjYxNSw0OS40NTE3NjQ3IEM0Ni42NzU1NDEyLDQ5LjU4Mzg5MTEgNDYuNDc3MTA3Niw0OS43MTYzMjQ1IDQ2LjM0NDg5MzIsNDkuODQ4NDM2NSBDNDYuMDE0MzM5NCw1MC4yNDUxMjE2IDQ1LjYxNzY2MTQsNTAuNjQxNzkzNCA0NS4yMjA5ODU2LDUxLjAzODQ3ODUgQzQ1LjE1NDc2MDIsNTEuMTcwNTkzNiA0NS4wMjI2NDcxLDUxLjIzNjgxNDkgNDQuOTU2NDI5OSw1MS4zNjkwMjkzIEM0NC40Mjc1MzU2LDUxLjg5Nzk1NTQgNDMuOTY0NzM1Niw1Mi40MjY4NDI2IDQzLjQzNTg0MzMsNTIuOTU1NzQyIEM0My4zNjk2MTc5LDUzLjAyMTk0NjkgNDMuMzAzNzIyLDUzLjA4Nzg1MzEgNDMuMjM3NTA1OSw1My4xNTQwNzg1IEM0Mi4xNzk2ODk1LDU0LjI3Nzk4NTEgNDEuMDU1Nzc5OCw1NS40MDE4OTI4IDM5Ljg2NTc3ODgsNTYuMzkzNTc3OSBDMzguNjc1NzQ5MSw1Ny40NTEzNjI1IDM3LjQxOTYyMjksNTguNDQzMDU0OCAzNi4xNjM0NzAyLDU5LjMwMjUxMTIgQzM0Ljg0MTIyMiw2MC4yMjgxMTExIDMzLjU4NTA5ODksNjEuMDIxNDM0MiAzMi4xOTY3Mjg3LDYxLjgxNDc4OCBDMzAuODc0NDgwNSw2Mi41NDE5OTgzIDI5LjQ4NjExMTQsNjMuMjAzMTQ3IDI4LjAzMTY0OTgsNjMuNzk4MTcyNiBDMjYuNjQzMjc4Niw2NC4zOTMxNzc3IDI1LjE4ODgxODEsNjQuOTIyMDkwNSAyMy43MzQzNTM1LDY1LjM4NDg0OTUgQzIwLjk1NzYxNDEsNjUuOTc5ODU0NiAxOC4xMTQ3ODAzLDY3LjEwMzc3MjUgMTUuNjY4NjI1NSw2Ny4zMDIxMTEgQzE1LjEzOTczMzIsNjcuMzAyMTExIDE0LjU0NDcxNjgsNjcuNDM0MjQ0NSAxNC4wMTU4MjM1LDY3LjUwMDQzOTIgQzEzLjQyMDgxMDIsNjcuNjMyNTYyNSAxMi44OTE5MTY4LDY3Ljc2NTAwMyAxMi4zNjMwMjQ1LDY3Ljg5NzEzNjYgQzExLjgzNDEzMTIsNjguMDk1NDU0NiAxMS4zMDUyMDgyLDY4LjI5MzgwMzMgMTAuNzc2MzEzOCw2OC40OTIxMzE1IEMxMC4yNDc0MjA1LDY4LjY5MDQ2OTkgOS43MTg1MjgxNyw2OC45NTQ5MzE0IDkuMTg5NjM0ODMsNjkuMjE5MzgyNyBDOC43MjY4MzQ4OCw2OS41NDk5MjYzIDguMTk3OTQzNTksNjkuODE0Mzg3OCA3LjczNTE0MTU5LDcwLjE0NDk0MTcgQzcuMjcyMzcwMjgsNzAuNDc1NDk1NiA2LjgwOTU3MDMyLDcwLjg3MjE2MjIgNi40MTI4OTIzOSw3MS4yNjg4NDk0IEM1Ljk1MDEyNDE1LDcxLjU5OTQzMzkgNS40ODczMjQxOSw3Mi4wNjIyMTM0IDUuMDkwNjQ2MjYsNzIuNDU4ODY5OSBDNC42OTM5NjgzMyw3Mi45MjE2OTAzIDQuMjk3MjkyNDUsNzMuMzE4MzU3IDMuOTY2NzM4MTgsNzMuNzgxMTE2IEMzLjYzNjE4NDIyLDc0LjMxMDAwODMgMy4yMzk1MDY1OSw3NC43NzI4MTg1IDIuOTc1MDQ0MjcsNzUuMzAxNzIxIEMyLjY0NDQ5MDQxLDc1Ljc2NDUyMSAyLjMxMzkzNjY2LDc2LjI5MzQwMzEgMi4wNDk0NzQzNCw3Ni44MjIyNzQ5IEMxLjc4NDkxOTIyLDc3LjQxNzMyMSAxLjUyMDU4MjIzLDc3Ljk0NjIwMzEgMS4zMjIyNDI4NSw3OC41NDEyMjg3IEMxLjEyMzkwNDUsNzkuMDcwMTIxIDAuOTI1NTY2MDQ4LDc5LjY2NTEyNjEgMC43MjcyMjc1OTUsODAuMjYwMTUxNyBDMC41OTUxMDYxMSw4MC43ODkwMzM4IDAuNDYyNjcyNjgzLDgxLjMxNzkzNjMgMC4zOTY2NzM5NDEsODEuODQ2ODA4MiBDMC4zOTY2NzM5NDEsODEuOTEzMTA1MSAwLjMzMDQ1OTgzNiw4MS45Nzg5NTIgMC4zMzA0NTk4MzYsODIuMDQ1MTU2OCBDMC4xOTgzMzczMjgsODIuNjQwMjAyOSAwLjE5ODMzNzMyOCw4My40MzM1NjY5IDAuMTMyMTIwNTYzLDgzLjgzMDI1NDEgQzAuMDY1OTA2NDU4NCw4NC4yOTMwMjM0IDAsODQuNjg5Njc5OCAwLDg1LjE1MjQ5IEMwLDg1LjQxNzA0MzYgMCw4NS43NDc0NzQ3IDAuMDY2MjE0MTA1LDg2LjAxMTkyNTkgQzAuMTMyNDI4MjEsODYuNDc0NzM2MSAwLjE5ODMzNDQ2NCw4Ni44NzE0MDI4IDAuMzMwNzY5MTE5LDg3LjI2ODExMDQgQzAuNDYyODkwNjAzLDg3LjY2NDcyNTkgMC41OTUzMjQyMzYsODguMDYxNDEzIDAuNzkzNTM4NDg1LDg4LjQ1ODEwMDIgQzAuNzkzNTM4NDg1LDg4LjUyNDI5NDkgMC43OTM1Mzg0ODUsODguNTI0Mjk0OSAwLjc5MzUzODQ4NSw4OC41MjQyOTQ5IEMwLjk5MTg3NjgzNiw4OC45MjEwMDI1IDEuMjU2MzM5MDYsODkuMzE3NjU4OSAxLjUyMDc3MDA3LDg5LjcxNDMzNTggQzEuNzg1MzI1MDgsOTAuMTExMDEyNyAyLjA0OTY5MzQ4LDkwLjUwNzY4OTYgMi4zODAyNDczNCw5MC45MDQzNzY4IEMyLjcxMDgwMTEsOTEuMjM0OTMwNiAzLjEwNzQ3OTAzLDkxLjYzMTU3NjggMy41MDQxNTU0Myw5MS45NjIxNTEyIEMzLjkwMDgzMzI1LDkyLjM1ODgyODEgNC4yOTc1MTEzOSw5Mi42ODkzODE5IDQuNzYwMjc5NjMsOTMuMDE5OTM1OCBDNi4zNDY5ODgyOCw5NC40MDgzMTUyIDYuNzQzNjY1MTksOTQuODcxMTE1MSA4Ljc5MzE0NzIsOTUuOTI4ODg5NSBDOS4xMjM2OTc5OSw5Ni4xMjcyMzgyIDkuNDU0Mjg1NjEsOTYuMjU5NDYzOSA5Ljg1MDk2MjUyLDk2LjQ1NzgwMjMgQzkuOTE3MTg3ODgsOTYuNDU3ODAyMyA5Ljk4MzA4NDgyLDk2LjUyMzk5NyAxMC4wNDkyOTk5LDk2LjUyMzk5NyBDMTAuMDQ5Mjk5OSw5Ni42NTYxMTAxIDEwLjA0OTI5OTksOTYuNzIyMzQ1NyAxMC4xMTU1MjUzLDk2Ljg1NDU5MTggQzEwLjE4MTc0MDQsOTcuMzgzNDk0MyAxMC4zMTM4NjI3LDk3LjkxMjM2NjIgMTAuNDQ2MDc5Miw5OC40NDEyNzg5IEMxMC41NzgyMDA0LDk5LjAzNjI5NDMgMTAuNzc2NjY0Nyw5OS41NjUyMDcxIDEwLjk3NTAwMzIsMTAwLjAyNzk3NiBDMTEuMTczMzQxNiwxMDAuNDI0NjYzIDExLjMwNTU1NzEsMTAwLjgyMTMyIDExLjUwMzg5NjUsMTAxLjIxODAxNyBDMTEuNTcwMTExNywxMDEuMzUwMTUxIDExLjYzNjAxOTksMTAxLjQ4MjU3MSAxMS43MDIyMzUsMTAxLjU0ODU3MSBDMTEuOTY2Nzg5NiwxMDIuMDc3NDUzIDEyLjIzMTEyNzMsMTAyLjU0MDI4NCAxMi40OTU1NTgxLDEwMy4wMDMwMzMgQzEyLjgyNjE0MzcsMTAzLjQ2NTgxMiAxMy4xNTY2OTY1LDEwMy45Mjg1OTIgMTMuNDg3MjQ5NCwxMDQuMzkxNDEyIEMxMy44MTc4MDUzLDEwNC43ODgwNjkgMTQuMjE0NDgzMiwxMDUuMjUwODU4IDE0LjYxMTE1OTEsMTA1LjY0NzUyNSBDMTUuMDA3ODM3LDEwNi4wNDQyMTIgMTUuNDA0NTE0OSwxMDYuMzc0Nzc2IDE1Ljg2NzMxNTksMTA2Ljc3MTQyMiBDMTUuODY3MzE1OSwxMDYuNzcxNDIyIDE1LjkzMzU0MTMsMTA2LjgzNzcxOSAxNS45OTk0MzYyLDEwNi44Mzc3MTkgQzE2LjM5NjExNTEsMTA3LjE2ODMwNCAxNi43OTI3OSwxMDcuNDk4ODY4IDE3LjE4OTQ2ODksMTA3Ljc2MzI3OCBDMTcuNjUyMjM4MiwxMDguMDkzODUzIDE4LjExNTAzODIsMTA4LjM1ODI4MyAxOC42NDM5Mjk0LDEwOC42MjI3NTUgQzE5LjEwNjczMDQsMTA4Ljg4NzMwOSAxOS42MzU2MjM4LDEwOS4xNTE2NDggMjAuMTY0NTE2MSwxMDkuMzQ5OTk2IEMyMC41NjExOTQsMTA5LjU0ODMzNSAyMS4wMjM5NjIyLDEwOS42ODA1NzEgMjEuNDg2NzY0MiwxMDkuODEyNzg2IEMyMS41NTI5ODk2LDEwOS44NzkwODMgMjEuNjE4ODg1NSwxMDkuODc5MDgzIDIxLjc1MTMxOTksMTA5Ljk0NDkzIEMyMi4wMTU4NzQ1LDExMC4wMTEyMjcgMjIuMzQ2MzAyNSwxMTAuMDc3MDMzIDIyLjYxMDc2NSwxMTAuMTQzMjQ4IEMyMi40MTI0Mjc2LDExMy43MTMzMDkgMjIuMzQ2MjA5NCwxMTcuMDg1MDMyIDIyLjg3NTMyMTcsMTE4LjI3NTA4MyBDMjMuNDcwMzA2MywxMTkuNTk3MzE5IDI2LjM3OTI2MTEsMTE1LjU2NDQ2OCAyOS4yODgyMTgsMTEwLjkzNjYxMiBDMjguODkxNTQyMSwxMTUuNDk4MzY1IDI4LjYyNzA3ODUsMTIwLjg1MzQzMiAyOS4yODgyMTgsMTIyLjQ0MDE3IEMzMC4wMTU0NDc3LDEyNC4wOTI5NCAzMy45ODIxODkxLDExOC45MzYxODEgMzcuNDIwMDM2MiwxMTMuMjUwNTE5IEM4NC4yOTM2OTg4LDEwMi40MDgxMyAxMjcuMDY4NDY1LDEzNC44MDMxNzUgMTMxLjU2NDA4NSwxODAuNTUyOTI4IEMxMzAuNzA0NjE5LDE3My40MTI3ODUgMTIxLjkxMTY3NSwxNjkuNDQ2MDU3IDExNy44Nzg4NDUsMTcwLjQzNzc1OSBDMTE1Ljg5NTQ1LDE3NS4zMzAwNTYgMTEyLjUyMzcyNywxODEuNjEwNzIzIDEwNy4xMDI1MjcsMTg1LjUxMTM1OSBDMTA3LjU2NTMwNiwxODEuMTQ3OTMzIDEwNy4zNjcwNiwxNzYuNjUyMzEzIDEwNi40NDE0MDksMTcyLjI4ODg3NyBDMTA0Ljk4NjkxNywxNzguMzcxMjI2IDEwMi4xNDQwNzYsMTg0LjA1NjkxOCA5OC4yNDM0Mjk3LDE4OC45NDkyMTUgQzkxLjk2Mjc1NiwxODkuNDExOTg0IDg1LjY4MjA2NywxODYuMzcwODA1IDgyLjM3NjQzNTMsMTgxLjgwOTA4MiBDODIuMTExODc5NiwxODEuNjEwNzIzIDgyLjA0NTg4MDQsMTgxLjIxNDA1NiA4MS44NDc1NDE5LDE4MC45NDk2MTUgQzgxLjY0OTIwMTQsMTgwLjQ4Njc4NSA4MS40NTA4NjYsMTgwLjAyNDA0NiA4MS4zMTg2NDg2LDE3OS41NjEyMzYgQzgxLjEyMDMxMTIsMTc5LjA5ODQ2NyA4MC45ODgwOTU4LDE3OC42MzU2NjcgODAuOTIxOTcyNywxNzguMTcyODk3IEM4MC44NTU3NDc0LDE3Ny43MTAwODcgODAuODU1NzQ3NCwxNzcuMjQ3MzA4IDgwLjg1NTc0NzQsMTc2LjcxODQyNiBDODAuODU1NzQ3NCwxNzYuMzg3ODQxIDgwLjg1NTc0NzQsMTc2LjA1NzI5NyA4MC44NTU3NDc0LDE3NS43MjY3NTQgQzgwLjkyMTk3MjcsMTc1LjI2MzkyMyA4MS4wNTQwODU4LDE3NC44MDExNDQgODEuMTg2MzAyMiwxNzQuMzM4MzU0IEM4MS4zMTg0MjM1LDE3My44NzU1ODUgODEuNDUwODU1OCwxNzMuNDEyNzg1IDgxLjY0OTEwMjIsMTcyLjk0OTk5NSBDODEuOTEzNjU3OCwxNzIuNDg3MjM2IDgyLjExMTg3MTUsMTcyLjAyNDQzNiA4Mi40NDI0NTcsMTcxLjU2MTY2NyBDODMuNTY2MzY0NywxNjguMzg4MjMxIDgzLjU2NjM2NDcsMTY1LjgwOTg3MiA4MS41MTY4ODc4LDE2NC4yODkyOTggQzgxLjEyMDIwOTksMTY0LjAyNDc0NCA4MC43MjM1MzMsMTYzLjgyNjQ4OCA4MC4yNjA3MzMsMTYzLjYyODE0OSBDNzkuOTk2MTc1MywxNjMuNTYxOTU0IDc5LjY2NTcxNTYsMTYzLjQyOTgxMSA3OS40MDEyODY4LDE2My4zNjM2MDYgQzc5LjIwMjk0NzQsMTYzLjI5NzQxMSA3OS4wNzA3MzMsMTYzLjIzMTQ2MiA3OC44NzIzOTM1LDE2My4xNjUyNTcgQzc4LjQwOTU5MjUsMTYzLjAzMzEzNCA3Ny45NDY3OTE1LDE2Mi45MDA2OTMgNzcuNDg0MDIyMywxNjIuODM0NzAzIEM3Ny4wMjEyMjIzLDE2Mi43MDI1OSA3Ni41NTg0NTMxLDE2Mi42MzYzNjUgNzYuMDk1NjUzMSwxNjIuNjM2MzY1IEM3NS42MzI4ODI4LDE2Mi41NzAwNjggNzUuMTAzOTU3OCwxNjIuNTA0MjQxIDc0LjY0MTE4OTUsMTYyLjUwNDI0MSBDNzQuMzEwNjM2NywxNjIuNTA0MjQxIDczLjk4MDA1MTEsMTYyLjU3MDQzNiA3My42NDk0OTYyLDE2Mi41NzA0MzYgQzczLjEyMDYwNDksMTYyLjU3MDQzNiA3Mi42NTc4MDUsMTYyLjYzNjczMyA3Mi4xOTUwMzM3LDE2Mi43Njg3NzUgQzcxLjczMjIzMzcsMTYyLjgzNTA3MiA3MS4yNjk0NjU1LDE2Mi45MDA4ODggNzAuODA2NjY1NSwxNjMuMDMzMzA4IEM3MC4zNDM4OTQyLDE2My4xNjU0NDEgNjkuODgxMDkzMiwxNjMuMjk3ODcxIDY5LjQxODI5MzMsMTYzLjQ5NjEzOCBDNjguOTU1NTI1LDE2My42OTQ0NjcgNjguNTU4ODQ2MSwxNjMuODkyODA1IDY4LjA5NjA0ODIsMTY0LjA5MTE0MyBDNjcuNjk5NDAyLDE2NC4yODk0OTIgNjcuMzAyNzIzLDE2NC41NTM5MTMgNjYuODM5OTI0MSwxNjQuNzUyMjUxIEM1MS40MzU3Mjg2LDE3NC44MDEzMjggNjAuNjI1MzY1MiwxOTguMzM3MzM4IDcxLjEzNzIyMDQsMjA1LjE0NjkxNyBDNjcuMTcwNDc2OSwyMDUuODc0MTQ4IDYzLjEzNzY0NDEsMjA2LjczMzY0NSA2Mi4wMTM3MzQ0LDIwNy41OTMwNzEgQzYxLjk0NzUwOSwyMDcuNjU5MjY1IDYxLjg4MTYxMzEsMjA3LjcyNTIwNCA2MS44ODE2MTMxLDIwNy43MjUyMDQgQzY0LjcyNDQ0NTksMjA5LjQ0NDEwNyA2Ny42OTk0OTYxLDIxMC44OTg1ODkgNzAuODA2NzU3NiwyMTIuMTU0NzEyIEM3NS4wMzc5NjI2LDIxMy41NDMwODEgNzkuNTMzNTk0MywyMTQuNzk5MjE0IDgxLjUxNjk3OTksMjE1LjMyODEyNyBDODEuNTE2OTc5OSwyMTUuMzI4MTI3IDgxLjUxNjk3OTksMjE1LjM5NDMyMiA4MS41MTY5Nzk5LDIxNS4zOTQzMjIgQzg3LjAwNDMwNjksMjE2LjUxODI0IDkyLjU1Nzc1OTEsMjE2LjkxNDkxNyA5OC4xNzczMDY3LDIxNi41ODQzNjMgQzEyNy40NjUxMTEsMjE0LjUzNDg3NiAxNTEuNDYzOTExLDE5Mi4yNTQ5NzkgMTU1LjgyNzMzNiwxNjIuOTAxMDkyIEMxNTUuOTU5NDU5LDE2My40OTYxMTggMTU2LjA5MTg5LDE2NC4wMjQ5OSAxNTYuMjI0MDEzLDE2NC42MjAwMjYgQzE1Ni40MjIzNjIsMTY1LjgxMDAxNSAxNTYuNjg2NzgyLDE2Ny4wNjYxNTkgMTU2LjgxODk5OCwxNjguMzIyMjkyIEMxNTYuODE4OTk4LDE2OC4zMjIyOTIgMTU2LjgxODk5OCwxNjguMzIyMjkyIDE1Ni44MTg5OTgsMTY4LjM4ODU4OSBDMTU2Ljk1MTEyMSwxNjguOTgzNjA0IDE1Ny4wMTczMzYsMTY5LjU3ODYxIDE1Ny4wODM1NTEsMTcwLjEwNzUwMiBDMTU3LjA4MzU1MSwxNzAuMjM5NjI1IDE1Ny4wODM1NTEsMTcwLjMwNTg0IDE1Ny4wODM1NTEsMTcwLjM3MjA2NiBDMTU3LjE0OTg0OCwxNzAuOTY3MDcxIDE1Ny4yMTU2ODUsMTcxLjU2MjA5NiAxNTcuMjE1Njg1LDE3Mi4wOTA5NzkgQzE1Ny4yODE4NzksMTcyLjgxODIyIDE1Ny4zNDc4MDgsMTczLjU0NTQ0IDE1Ny4zNDc4MDgsMTc0LjI3MjcxMiBDMTU3LjM0NzgwOCwxNzQuNjAzMjY2IDE1Ny4zNDc4MDgsMTc0LjkzMzgzIDE1Ny4zNDc4MDgsMTc1LjMzMDQ5NiBDMTU3LjM0NzgwOCwxNzUuNjYxMDgxIDE1Ny40MTQwMDMsMTc2LjA1NzcxNyAxNTcuNDE0MDAzLDE3Ni4zODgzMDEgQzE1Ny40MTQwMDMsMTc2Ljc4NDk4OSAxNTcuMzQ3ODA4LDE3Ny4xODE2MzUgMTU3LjM0NzgwOCwxNzcuNTc4MzEyIEMxNTcuMzQ3ODA4LDE3Ny45MDg5MDcgMTU3LjM0NzgwOCwxNzguMjM5NDUgMTU3LjM0NzgwOCwxNzguNTAzODgxIEMxNTcuMzQ3ODA4LDE3OC45NjY2OTEgMTU3LjI4MTUxMSwxNzkuMzYzMzQ4IDE1Ny4yODE1MTEsMTc5LjgyNjEzNyBDMTU3LjI4MTUxMSwxODAuMDkwNjcgMTU3LjI4MTUxMSwxODAuMzU1MDQgMTU3LjIxNTMxNiwxODAuNjg1NjA0IEMxNTcuMjE1MzE2LDE4MS4xNDg0MTQgMTU3LjE0OTEyMiwxODEuNjExMTYzIDE1Ny4xNDkxMjIsMTgyLjE0MDA2NSBDMTU3LjA4MjgyNSwxODIuMzM4NDA0IDE1Ny4wODI4MjUsMTgyLjUzNjc0MiAxNTcuMDgyODI1LDE4Mi43MzUwOTEgQzE1Ny4wMTY2MywxODMuMjYzOTk0IDE1Ni45NTA3MDEsMTgzLjcyNjc4MyAxNTYuODg0NDc2LDE4NC4yNTU2ODYgQzE1Ni44ODQ0NzYsMTg0LjQ1NDAzNSAxNTYuODg0NDc2LDE4NC42NTIzNTMgMTU2LjgxODI4MSwxODQuODUwNzExIEMxNTYuNzUxOTg0LDE4NS41MTE4MDkgMTU2LjYxOTk1MywxODYuMTA2ODQ1IDE1Ni41NTM3NTksMTg2Ljc2Nzk0MiBDMTU2LjU1Mzc1OSwxODYuNzY3OTQyIDE1Ni41NTM3NTksMTg2LjgzNDIzOSAxNTYuNTUzNzU5LDE4Ni44MzQyMzkgTDE1Ni41NTM3NTksMTg2LjkwMDQzNCBDMTU2LjQyMTYzNSwxODcuNDk1NDM5IDE1Ni4yODkxODUsMTg4LjE1NjU1NyAxNTYuMTU3MDUxLDE4OC43NTE1NjIgQzE1Ni4xNTcwNTEsMTg4LjgxNzc1NyAxNTYuMTU3MDUxLDE4OC44ODM2ODUgMTU2LjE1NzA1MSwxODguOTQ5OTExIEMxNTYuMDI0OTQ4LDE4OS41NDQ5MDYgMTU1Ljg5MjQ5NywxOTAuMTM5OTQyIDE1NS43NjAzOTUsMTkwLjczNDkyNiBDMTU1Ljc2MDM5NSwxOTAuODAxMjIzIDE1NS42OTQyLDE5MC45MzMyNzUgMTU1LjY5NDIsMTkwLjk5OTQ1OSBDMTU1LjU2MjA1NiwxOTEuNTk0NDk1IDE1NS40Mjk2MjYsMTkyLjE4OTUgMTU1LjIzMTQzMSwxOTIuNzg0NTQ2IEMxNTUuMjMxNDMxLDE5Mi44NTA3NDEgMTU1LjIzMTQzMSwxOTIuOTE2NjQ5IDE1NS4yMzE0MzEsMTkyLjk4Mjg2NCBDMTU1LjAzMzA5MiwxOTMuNjQzOTYyIDE1NC44MzQ3NDMsMTk0LjIzODk4NyAxNTQuNzAyNTA4LDE5NC44MzQwMDMgQzE1NC42MzYzMTMsMTk0LjkwMDE5NyAxNTQuNjM2MzEzLDE5NC45NjYxMjYgMTU0LjYzNjMxMywxOTQuOTY2MTI2IEMxNTQuNDM3OTY0LDE5NS42MjcyNjUgMTU0LjIzOTY0NiwxOTYuMjg4MzcyIDE1NC4wNDEzMjgsMTk2Ljk0OTQ5IEMxNTMuNzc2Nzc1LDE5Ny42MTA2MjkgMTUzLjU3ODUzOSwxOTguMjA1NjM0IDE1My4zMTQwOTcsMTk4Ljg2Njc2MiBDMTUzLjA0OTU1NCwxOTkuNTI3ODkgMTUyLjg1MTI4NywyMDAuMTg5MDE4IDE1Mi41ODY4NDYsMjAwLjc4NDAxMyBDMTUyLjMyMjI4MiwyMDEuNDQ1MTYyIDE1Mi4wNTc5MzMsMjAyLjA0MDE3NyAxNTEuNzkzNTAzLDIwMi43MDEyNzUgQzE1MS43OTM1MDMsMjAyLjcwMTI3NSAxNTEuNzI3MjA2LDIwMi43MDEyNzUgMTUxLjcyNzIwNiwyMDIuNzAxMjc1IEMxNTEuNDYyNjMyLDIwMy4yOTYyOCAxNTEuMTk4MjcyLDIwMy45NTc0MjggMTUwLjg2NzY5OCwyMDQuNTUyNDU0IEMxNTAuODY3Njk4LDIwNC41NTI0NTQgMTUwLjg2NzY5OCwyMDQuNTUyNDU0IDE1MC44Njc2OTgsMjA0LjU1MjQ1NCBDMTUwLjg2NzY5OCwyMDQuNTUyNDU0IDE1MC44Njc2OTgsMjA0LjU1MjQ1NCAxNTAuODY3Njk4LDIwNC41NTI0NTQgQzE1MC44MDE1MDMsMjA0Ljc1MDc2MiAxNTAuNzM1NTk1LDIwNC44ODMwMDggMTUwLjY2OTM4LDIwNS4wMTUyMDMgQzE1MC42MDMxODUsMjA1LjA4MTUgMTUwLjYwMzE4NSwyMDUuMTQ3MzI2IDE1MC41MzcyNTcsMjA1LjIxMzU2MiBDMTQ2LjIzOTk2NSwyMTMuODc0MjU5IDEzOS44OTMxNDQsMjIxLjQ3NzE4MiAxMzEuOTU5Njg4LDIyNy40MjczMTUgQzEzMS40MzA3OTYsMjI3Ljc1Nzg2OSAxMzAuOTAxODgzLDIyOC4xNTQ1NTYgMTMwLjM3MzAwMSwyMjguNTUxMjEzIEMxMzAuMzczMDAxLDIyOC41NTEyMTMgMTMwLjM3MzAwMSwyMjguNTUxMjEzIDEzMC4zNzMwMDEsMjI4LjU1MTIxMyBDMTMwLjI0MDg2NywyMjguNjgzMzQ2IDEzMC4wNDI0MTYsMjI4Ljc0OTU3MSAxMjkuOTEwMjAxLDIyOC44ODE3NjYgQzEyOS40NDc0MDEsMjI5LjIxMjMzIDEyOC45ODQ2MjEsMjI5LjU0Mjg3NCAxMjguNDU1NzUsMjI5Ljg3MzQ2OSBMMTI4LjY1NDA3OCwyMzAuMjcwMTQ2IEwxMjguNzIwMjcyLDIzMC4yNzAxNDYgQzEyOS42NDU4MzEsMjMwLjEzODAzMyAxMzAuNTcxNDExLDIzMC4wMDU1OTIgMTMxLjQ5Njk5LDIyOS44NzM0NjkgTDEzMS41NjMxODUsMjI5Ljg3MzQ2OSBDMTMzLjI4MjExOCwyMjkuNjA4OTE1IDEzNS4wMDEwNDEsMjI5LjI3ODQ1NCAxMzYuNzE5OTc1LDIyOC45NDc5IEMxMzcuMTgyNzM0LDIyOC44ODE2MDMgMTM3LjcxMTY2NywyMjguNzQ5NTcxIDEzOC4xNzQ0MjYsMjI4LjYxNzMxNSBDMTM4LjUwNDk4LDIyOC41NTEwMTggMTM4Ljc2OTQ0MSwyMjguNDg1MjAyIDEzOS4wOTk5OTUsMjI4LjQxODk3NyBDMTM5LjU2Mjc5NSwyMjguMzUyNjggMTQwLjAyNTU3NSwyMjguMjIwNjM4IDE0MC40ODgzODUsMjI4LjE1NDQzMyBDMTQwLjg4NTA0MSwyMjguMDIyMzEgMTQxLjI4MTcyOCwyMjcuOTU2MDc0IDE0MS42NzgzOTUsMjI3LjgyMzg2OSBDMTQ4LjI4OTYyNiwyMjYuMjM3MTUxIDE1NC43MDI1NDksMjI0LjA1NTQyOCAxNjAuODUwOTU5LDIyMS40NzcwNjkgQzE1MC4zMzkxMjMsMjM1LjgyMzQzOCAxMzYuMjU3MTY0LDI0Ny4zOTMxMiAxMTkuNzk1MTg1LDI1NC45OTYwNDMgQzEyNy4zOTgxMjksMjU0LjQ2NzE0IDEzNS4wMDEwNDEsMjUzLjIxMTAxNyAxNDIuMzM5NTEzLDI1MS4wOTU0MjggQzE2OC45ODI4MTUsMjQzLjIyODAxMyAxOTEuMzk0ODk2LDIyNS4zMTE1ODIgMjA0LjgxNTcwNiwyMDEuMTgwNTU3IEMyMDIuMTA1MTAxLDIxNi40NTI1MzYgMTk2LjAyMjc2MywyMzAuOTk3MjU0IDE4Ny4wMzE0OTEsMjQzLjY5MDg0MyBDMTkzLjQ0NDM4NCwyMzkuNDU5NjEzIDE5OS4zMjgzODMsMjM0LjU2NzMwNSAyMDQuNjgzNDkxLDIyOS4wMTM4NjkgQzIxOS40OTI2NiwyMTMuNTQzNTgyIDIyOS4yMTEyMDMsMTkzLjkwODIyOSAyMzIuNTE2NzkzLDE3Mi44MTgzMzIgQzIzNC43NjQ2MjksMTgzLjI2NDA5NiAyMzUuNDI1NzU3LDE5NC4wNDA0NTUgMjM0LjQzNDA2NSwyMDQuNjg0NTI2IEMyODIuMTY3MjEyLDEzOC4xMDkzNDggMjM4LjQwMDgwMyw2OS4wODgwMTY1IDIyMC4wODc2ODYsNTAuOTA3MTEzMyBDMjIwLjAyMTM4OSw1MC43NzQ5OTcxIDIxOS45NTU1NjIsNTAuNzA4Nzc2OSAyMTkuOTU1NTYyLDUwLjU3NjU2MDUgQzIxOS44ODkyNjUsNTAuNjQyNzU1MSAyMTkuODg5MjY1LDUwLjY0Mjc1NTEgMjE5Ljg4OTI2NSw1MC43MDg2ODc5IEMyMTkuODg5MjY1LDUwLjY0MjQ4MyAyMTkuODg5MjY1LDUwLjY0MjQ4MyAyMTkuODIzMDcxLDUwLjU3NjU2MDUgQzIxOS44MjMwNzEsNTEuMzY5OTE2MyAyMTkuNzU2ODc2LDUyLjE2MzIzNTQgMjE5LjY5MDk0Nyw1Mi45NTY1OTIyIEMyMTkuNDkyNTk5LDU0LjQ3NzE3NjggMjE5LjI5NDI4MSw1NS45MzE2NDc2IDIxOS4wMjk4MDksNTcuMzg2MTM5OCBDMjE4LjY5OTI2NSw1OC44NDA2MDEzIDIxOC4zMDI1NzgsNjAuMjk1MDQyNCAyMTcuOTA1ODkxLDYxLjc0OTU0NDggQzIxNy40NDMxMjIsNjMuMTM3ODgzMyAyMTYuOTE0MjUsNjQuNTkyMzU1MSAyMTYuMzE5MjE0LDY1Ljk4MDczNDUgQzIxNS43MjQxOTksNjcuMzAyOTYwMiAyMTUuMDYzMDcsNjguNjkxMzI5MyAyMTQuMzM1ODQsNzAuMDEzNTk1OSBDMjEzLjYwODU5OSw3MS4yNjk3Mzk1IDIxMi44MTUyNTUsNzIuNTkxOTc1NCAyMTEuOTU1ODA5LDczLjc4MTk4NTYgQzIxMS4wOTYzNDIsNzUuMDM4MTQ5NiAyMTAuMTcwNzYzLDc2LjIyODE0OTcgMjA5LjI0NTE3Myw3Ny4zNTIwMzY5IEMyMDguMjUzNDcxLDc4LjU0MjA4ODEgMjA3LjE5NTcwNiw3OS41OTk4OTMxIDIwNi4xMzc4OTEsODAuNjU3Njg4IEMyMDUuNDc2NzgzLDgxLjI1MjcwMzQgMjA0Ljg4MTc3OCw4MS43ODE1OTU3IDIwNC4yMjA2MTksODIuMzEwNDY3NSBDMjAzLjY5MTczNyw4Mi43NzMyNzc3IDIwMy4yMjg5NTgsODMuMTY5OTY0OSAyMDIuNzAwMDM1LDgzLjYzMjcxMzcgQzIwMS41MTAwMjUsODQuNTU4MjkzMSAyMDAuMzIwMDA0LDg1LjQxNzc1OTcgMTk4Ljk5Nzc2OCw4Ni4yMTExMjM4IEMxOTcuNzQxNjI1LDg3LjAwNDQ1NzEgMTk2LjQxOTQwOSw4Ny43OTc4MTEgMTk1LjA5NzE1Myw4OC40NTg5NDk0IEMxOTMuNzA4Nzg0LDg5LjEyMDA2NzMgMTkyLjMyMDQxNSw4OS43MTUwNzI0IDE5MC45MzIwNjYsOTAuMzEwMDk4IEMxODkuNTQzNjk3LDkwLjgzODk2OTkgMTg4LjA4OTIzNSw5MS4zMDE3Njk4IDE4Ni42MzQ3MjIsOTEuNjk4NDU3IEMxODUuMTgwMjcxLDkyLjA5NTExMzQgMTgzLjY1OTY5Nyw5Mi40MjU2ODc3IDE4Mi4yMDUyMTUsOTIuNjkwMTI4OCBDMTgwLjY4NDY1MSw5Mi45NTQ2ODI0IDE3OS4xNjQwNTYsOTMuMDg2Nzk1NSAxNzcuNzA5NTg0LDkzLjIxOTA0MTYgQzE3Ni42NTE3NzksOTMuMjg1MjM2MiAxNzUuNTkzOTk0LDkzLjM1MTE3NTEgMTc0LjUzNjE3OSw5My4zNTExNzUxIEMxNzMuMDE1NTg0LDkzLjM1MTE3NTEgMTcxLjQ5NTAzLDkzLjIxOTA0MTYgMTcwLjA0MDU0OCw5My4wODY2MjE1IEMxNjguNTE5OTc0LDkyLjk1NDQ5ODIgMTY2Ljk5OTM2OSw5Mi43NTYwMTY1IDE2NS41NDQ5MDcsOTIuNDI1NDYyNyBDMTY0LjAyNDMyMyw5Mi4xNjA5MDkxIDE2Mi41Njk4MzEsOTEuNzY0MzI0MyAxNjEuMTE1MzU5LDkxLjMwMTU3NTQgTDE2MS4wNDkxNjQsOTEuMzAxNTc1NCBDMTYyLjUwMzYzNiw5MS4xNjk0NTIxIDE2My45NTgxMTgsOTEuMDM3MDAxNCAxNjUuNDEyNjEsOTAuNzcyNjYyNyBDMTY2LjkzMzE2NCw5MC41MDgxMDkxIDE2OC4zODc2MzYsOTAuMTc3NjY3OCAxNjkuODQyMTI4LDg5Ljc4MDk2MDIgQzE3MS4yOTY1OSw4OS4zODQyOTM1IDE3Mi43NTEwNjEsODguOTIxNDkzNSAxNzQuMTM5NDIsODguMzkyNjExNSBDMTc1LjU5Mzg4Miw4Ny44NjM3MDg5IDE3Ni45ODIyNjEsODcuMjAyNjExNCAxNzguMzA0NTE4LDg2LjU0MTQ1MjYgQzE3OS42OTI4NjYsODUuODgwMzE0MSAxODAuOTQ5MDEsODUuMTUzMTAzOCAxODIuMjcxMjQ2LDg0LjM1OTc1IEMxODMuNTI3MzY5LDgzLjUwMDI5MzYgMTg0Ljc4MzUxMiw4Mi42NDA4NDc1IDE4NS45NzM1MzMsODEuNzE1MjQ3NSBDMTg3LjE2MzU2NCw4MC43ODk2ODg2IDE4OC4yODc0NTEsNzkuNzk4MDE2NyAxODkuMzQ1Mjg3LDc4Ljc0MDIxMTcgQzE5MC40NjkxOTQsNzcuNzQ4NDk4OSAxOTEuNDYwODY2LDc2LjYyNDYwMTUgMTkyLjQ1MjU1OCw3NS41MDA2ODM2IEMxOTMuNDQ0MjIsNzQuMzEwNjkzOCAxOTQuMzY5ODEsNzMuMTIwNjYzMSAxOTUuMjI5Mjc2LDcxLjkzMDYzMjMgQzE5NS4zNjE0MSw3MS43MzIyODM3IDE5NS40OTM4NCw3MS40Njc4NjMxIDE5NS42MjU5NzQsNzEuMjY5NTE0NCBDMTk2LjI4NzA3MSw3MC4yMTE3MDkzIDE5Ni45NDgxNzksNjkuMTUzOTE0NCAxOTcuNTQzMTg0LDY4LjA5NjA5OTEgQzE5OC4yNzA0MzUsNjYuNzczODUzIDE5OC45MzE1NzQsNjUuNDUxNTk2NiAxOTkuNTI2NTY4LDY0LjA2MzI2ODQgQzIwMC4xMjE1OTQsNjIuNjc0ODk5MiAyMDAuNjUwNDk3LDYxLjI4NjUxOTggMjAxLjExMzI4Niw1OS44MzIwNjg1IEMyMDEuNTc2MDU2LDU4LjQ0MzY4OTEgMjAxLjkwNjYyLDU2Ljk4OTIzNzggMjAyLjIzNzE5NCw1NS41MzQ3NzgzIEMyMDIuNTAxNzU4LDU0LjAxNDE4NTUgMjAyLjc2NjA3Niw1Mi41NTk2OTEzIDIwMi44OTgzMTIsNTEuMTA1MjMxOCBDMjAzLjAzMDQzNSw0OS41ODQ2NTMzIDIwMy4xNjI4NTUsNDguMDY0MDU5NiAyMDMuMTYyODU1LDQ2LjYwOTYwMjEgQzIwMy4xNjI4NTUsNDUuNTUxNzg4OCAyMDMuMDk2NTU4LDQ0LjQ5NDAwMjIgMjAzLjAzMDc1Miw0My40MzYyMTQ1IEMyMDIuODk4NjE5LDQxLjkxNTYzNCAyMDIuNzAwMTc4LDQwLjQ2MTEzNzcgMjAyLjUwMTg1LDM5LjAwNjY3NzIgQzIwMi4yMzcyODYsMzcuNDg2MDg1NCAyMDEuOTA2ODQ1LDM2LjAzMTYyOCAyMDEuNTEwMTQ3LDM0LjU3NzEyOTYgQzIwMS4wNDczODgsMzMuMTg4NzkwMSAyMDAuNTg0NTc4LDMxLjczNDMwNSAyMDAuMDU1Njk2LDMwLjM0NTk2NzYgQzE5OS41MjY3NjMsMjguOTU3NTkwMiAxOTguODY1Njc2LDI3LjU2OTIyNzIgMTk4LjIwNDUxNywyNi4yNDY5Njk4IEMxOTcuNDc3Mjg2LDI0LjkyNDcyNTcgMTk2Ljc1MDA2NSwyMy42MDI0ODE2IDE5NS45NTY3MjIsMjIuMzQ2MzU4NiBDMTk1LjA5NzI2NSwyMS4wOTAyMzU1IDE5NC4yMzc3NzgsMTkuOTAwMjA3OCAxOTMuMzEyMjA5LDE4LjcxMDE2NjkgQzE5Mi4zMjA1NDgsMTcuNTg2MjU4MiAxOTEuMzI4ODU1LDE2LjQ2MjM1MTUgMTkwLjI3MTAzLDE1LjMzODQ0MzkgQzE4OS43NDIxNDgsMTQuODA5NTU0NiAxODkuMTQ3MTIyLDE0LjIxNDUzNDEgMTg4LjU1MjExNywxMy42ODU2NDggQzE4NS41NzcwNzEsMTEuMzcxNjk5MyAxODIuNDY5Nzc5LDkuMTg5OTc3MzcgMTc5LjM2MjUxNyw3LjIwNjYyMDQ1IEMxNzguODk5NzM4LDYuOTQyMDczMDEgMTc4LjUwMzA2MSw2Ljc0MzgyODY4IDE3OC4wNDAyNjEsNi41NDU0OCBDMTc1Ljg1ODUzOCw1LjE1NzEzOTQ3IDE3My44MDkwNjEsNC40Mjk4NzkwMyAxNzEuNzU5NTk0LDMuNzY4Nzc1NDEgTDE3MS43NTk0ODIsMy43Njg0MDgxMSBaIi8+JiN4YTsgICAgPC9nPiYjeGE7PC9zdmc+;fontFamily=Comic Sans MS;" vertex="1" parent="1">
          <mxGeometry x="-274" y="-1158" width="164.64" height="164" as="geometry" />
        </mxCell>
        <mxCell id="vKnNRoz7A6DcVykYE2kj-11" value="" style="whiteSpace=wrap;html=1;aspect=fixed;hachureGap=4;fontFamily=Comic Sans MS;fontSize=20;fillColor=#d5e8d4;strokeColor=#82b366;" vertex="1" parent="1">
          <mxGeometry x="-319" y="-971" width="273" height="273" as="geometry" />
        </mxCell>
        <mxCell id="vKnNRoz7A6DcVykYE2kj-12" value="" style="whiteSpace=wrap;html=1;aspect=fixed;hachureGap=4;fontFamily=Comic Sans MS;fontSize=20;fillColor=#b0e3e6;strokeColor=#0e8088;" vertex="1" parent="1">
          <mxGeometry x="-320" y="-338" width="273" height="273" as="geometry" />
        </mxCell>
        <mxCell id="vKnNRoz7A6DcVykYE2kj-13" value="" style="whiteSpace=wrap;html=1;aspect=fixed;hachureGap=4;fontFamily=Comic Sans MS;fontSize=20;fillColor=#dae8fc;strokeColor=#6c8ebf;" vertex="1" parent="1">
          <mxGeometry x="-321" y="-656" width="273" height="273" as="geometry" />
        </mxCell>
        <mxCell id="vKnNRoz7A6DcVykYE2kj-16" value="" style="whiteSpace=wrap;html=1;aspect=fixed;hachureGap=4;fontFamily=Comic Sans MS;fontSize=20;fillColor=#fff2cc;strokeColor=#d6b656;" vertex="1" parent="1">
          <mxGeometry x="-316" y="-2" width="273" height="273" as="geometry" />
        </mxCell>
        <mxCell id="vKnNRoz7A6DcVykYE2kj-19" style="hachureGap=4;orthogonalLoop=1;jettySize=auto;html=1;exitX=1;exitY=0.75;exitDx=0;exitDy=0;entryX=0;entryY=0.5;entryDx=0;entryDy=0;fontFamily=Comic Sans MS;fontSize=16;strokeWidth=10;fillColor=#f8cecc;strokeColor=#b85450;flowAnimation=1;endArrow=none;endFill=0;rounded=0;" edge="1" parent="1" source="vKnNRoz7A6DcVykYE2kj-3" target="vKnNRoz7A6DcVykYE2kj-16">
          <mxGeometry relative="1" as="geometry" />
        </mxCell>
        <mxCell id="vKnNRoz7A6DcVykYE2kj-106" value="&lt;font style=&quot;font-size: 58px;&quot;&gt;WS&lt;/font&gt;" style="edgeLabel;html=1;align=center;verticalAlign=middle;resizable=0;points=[];fontSize=20;fontFamily=Comic Sans MS;" connectable="0" vertex="1" parent="vKnNRoz7A6DcVykYE2kj-19">
          <mxGeometry x="-0.0091" y="-3" relative="1" as="geometry">
            <mxPoint x="-1" as="offset" />
          </mxGeometry>
        </mxCell>
        <mxCell id="vKnNRoz7A6DcVykYE2kj-20" style="hachureGap=4;orthogonalLoop=1;jettySize=auto;html=1;exitX=0.999;exitY=0.618;exitDx=0;exitDy=0;entryX=-0.022;entryY=0.549;entryDx=0;entryDy=0;entryPerimeter=0;fontFamily=Comic Sans MS;fontSize=16;exitPerimeter=0;strokeWidth=10;fillColor=#f8cecc;strokeColor=#b85450;flowAnimation=1;rounded=0;" edge="1" parent="1" source="vKnNRoz7A6DcVykYE2kj-3" target="vKnNRoz7A6DcVykYE2kj-12">
          <mxGeometry relative="1" as="geometry" />
        </mxCell>
        <mxCell id="vKnNRoz7A6DcVykYE2kj-105" value="&lt;font style=&quot;font-size: 50px;&quot;&gt;HTTP:POST(LOGIN)&lt;/font&gt;" style="edgeLabel;html=1;align=center;verticalAlign=middle;resizable=0;points=[];fontSize=20;fontFamily=Comic Sans MS;" connectable="0" vertex="1" parent="vKnNRoz7A6DcVykYE2kj-20">
          <mxGeometry x="0.0962" y="8" relative="1" as="geometry">
            <mxPoint as="offset" />
          </mxGeometry>
        </mxCell>
        <mxCell id="vKnNRoz7A6DcVykYE2kj-21" style="hachureGap=4;orthogonalLoop=1;jettySize=auto;html=1;fontFamily=Comic Sans MS;fontSize=16;startArrow=none;startFill=0;flowAnimation=1;strokeWidth=10;fillColor=#f8cecc;strokeColor=#b85450;rounded=0;endArrow=classic;endFill=1;entryX=0.999;entryY=0.402;entryDx=0;entryDy=0;entryPerimeter=0;" edge="1" parent="1" source="vKnNRoz7A6DcVykYE2kj-13" target="vKnNRoz7A6DcVykYE2kj-3">
          <mxGeometry relative="1" as="geometry" />
        </mxCell>
        <mxCell id="vKnNRoz7A6DcVykYE2kj-104" value="&lt;font style=&quot;font-size: 50px;&quot;&gt;HTTP:Get&lt;/font&gt;" style="edgeLabel;html=1;align=center;verticalAlign=middle;resizable=0;points=[];fontSize=20;fontFamily=Comic Sans MS;" connectable="0" vertex="1" parent="vKnNRoz7A6DcVykYE2kj-21">
          <mxGeometry x="0.1709" y="4" relative="1" as="geometry">
            <mxPoint as="offset" />
          </mxGeometry>
        </mxCell>
        <mxCell id="vKnNRoz7A6DcVykYE2kj-24" style="hachureGap=4;orthogonalLoop=1;jettySize=auto;html=1;exitX=1;exitY=0.25;exitDx=0;exitDy=0;entryX=0;entryY=0.5;entryDx=0;entryDy=0;fontFamily=Comic Sans MS;fontSize=16;comic=0;flowAnimation=1;endArrow=classicThin;endFill=1;strokeWidth=10;fillColor=#f8cecc;strokeColor=#b85450;rounded=0;" edge="1" parent="1" source="vKnNRoz7A6DcVykYE2kj-3" target="vKnNRoz7A6DcVykYE2kj-11">
          <mxGeometry relative="1" as="geometry" />
        </mxCell>
        <mxCell id="vKnNRoz7A6DcVykYE2kj-103" value="&lt;font style=&quot;font-size: 50px;&quot;&gt;HTTP:POST, PATCH&lt;/font&gt;" style="edgeLabel;html=1;align=center;verticalAlign=middle;resizable=0;points=[];fontSize=20;fontFamily=Comic Sans MS;" connectable="0" vertex="1" parent="vKnNRoz7A6DcVykYE2kj-24">
          <mxGeometry x="0.0296" y="-7" relative="1" as="geometry">
            <mxPoint as="offset" />
          </mxGeometry>
        </mxCell>
        <mxCell id="vKnNRoz7A6DcVykYE2kj-25" value="" style="rounded=0;whiteSpace=wrap;html=1;hachureGap=4;fontFamily=Comic Sans MS;fontSize=20;fillColor=#ffe6cc;strokeColor=#d79b00;strokeWidth=5;" vertex="1" parent="1">
          <mxGeometry x="697" y="-1273" width="1130" height="1651" as="geometry" />
        </mxCell>
        <mxCell id="vKnNRoz7A6DcVykYE2kj-27" value="&lt;font style=&quot;font-size: 50px;&quot;&gt;Rabbitmq&lt;/font&gt;" style="text;html=1;strokeColor=none;fillColor=none;align=center;verticalAlign=middle;whiteSpace=wrap;rounded=0;fontSize=20;fontFamily=Comic Sans MS;" vertex="1" parent="1">
          <mxGeometry x="1142" y="-1251" width="271" height="30" as="geometry" />
        </mxCell>
        <mxCell id="vKnNRoz7A6DcVykYE2kj-28" value="" style="shape=image;verticalLabelPosition=bottom;labelBackgroundColor=default;verticalAlign=top;aspect=fixed;imageAspect=0;image=data:image/svg+xml,PHN2ZyB4bWxuczp4bGluaz0iaHR0cDovL3d3dy53My5vcmcvMTk5OS94bGluayIgeG1sbnM9Imh0dHA6Ly93d3cudzMub3JnLzIwMDAvc3ZnIiBwcmVzZXJ2ZUFzcGVjdFJhdGlvPSJ4TWlkWU1pZCIgdmVyc2lvbj0iMS4xIiB2aWV3Qm94PSIwIDAgMjU2IDI3MC43NjkyMjYwNzQyMTg3NSIgaGVpZ2h0PSIyNzAuNzY5MjI2MDc0MjE4NzUiIHdpZHRoPSIyNTYiPiYjeGE7ICAgIDxnPiYjeGE7ICAgICAgICA8cGF0aCBmaWxsPSIjRkY2NjAwIiBkPSJNMjQ1LjQ0LDEwOC4zMDc2OTIgTDE2MC4zNDk1MzgsMTA4LjMwNzY5MiBDMTU2LjA4MTIzMSwxMDguMzA3NjkyIDE1Mi42MTUzODUsMTA0Ljg0MTg0NiAxNTIuNjE1Mzg1LDEwMC41NzM1MzggTDE1Mi42MTUzODUsMTEuODk0MTUzOCBDMTUyLjYxNTM4NSw1LjMyNjc2OTIzIDE0Ny4yODg2MTUsMCAxNDAuNzI2MTU0LDAgTDExMC4zNTA3NjksMCBDMTAzLjc4MzM4NSwwIDk4LjQ2MTUzODUsNS4zMjY3NjkyMyA5OC40NjE1Mzg1LDExLjg5NDE1MzggTDk4LjQ2MTUzODUsMTAwLjAzNjkyMyBDOTguNDYxNTM4NSwxMDQuNjEwNDYyIDk0Ljc2NDMwNzcsMTA4LjMyNzM4NSA5MC4xOTA3NjkyLDEwOC4zNDcwNzcgTDYyLjMwNjQ2MTUsMTA4LjQ4IEM1Ny42OTM1Mzg1LDEwOC41MDQ2MTUgNTMuOTQ3MDc2OSwxMDQuNzYzMDc3IDUzLjk1NjkyMzEsMTAwLjE1NTA3NyBMNTQuMTI5MjMwOCwxMS45MTM4NDYyIEM1NC4xNDQsNS4zMzY2MTUzOCA0OC44MTcyMzA4LDAgNDIuMjQsMCBMMTEuODg5MjMwOCwwIEM1LjMyMTg0NjE1LDAgMCw1LjMyNjc2OTIzIDAsMTEuODk0MTUzOCBMMCwyNjAuMjA5MjMxIEMwLDI2Ni4wNDMwNzcgNC43MjYxNTM4NSwyNzAuNzY5MjMxIDEwLjU1NTA3NjksMjcwLjc2OTIzMSBMMjQ1LjQ0LDI3MC43NjkyMzEgQzI1MS4yNzM4NDYsMjcwLjc2OTIzMSAyNTYsMjY2LjA0MzA3NyAyNTYsMjYwLjIwOTIzMSBMMjU2LDExOC44Njc2OTIgQzI1NiwxMTMuMDMzODQ2IDI1MS4yNzM4NDYsMTA4LjMwNzY5MiAyNDUuNDQsMTA4LjMwNzY5MiBMMjQ1LjQ0LDEwOC4zMDc2OTIgWiBNMjA1LjUzODQ2MiwyMDEuNTQwOTIzIEMyMDUuNTM4NDYyLDIwOS4xODY0NjIgMTk5LjM0MDMwOCwyMTUuMzg0NjE1IDE5MS42OTQ3NjksMjE1LjM4NDYxNSBMMTY3LjY4OTg0NiwyMTUuMzg0NjE1IEMxNjAuMDQ0MzA4LDIxNS4zODQ2MTUgMTUzLjg0NjE1NCwyMDkuMTg2NDYyIDE1My44NDYxNTQsMjAxLjU0MDkyMyBMMTUzLjg0NjE1NCwxNzcuNTM2IEMxNTMuODQ2MTU0LDE2OS44OTA0NjIgMTYwLjA0NDMwOCwxNjMuNjkyMzA4IDE2Ny42ODk4NDYsMTYzLjY5MjMwOCBMMTkxLjY5NDc2OSwxNjMuNjkyMzA4IEMxOTkuMzQwMzA4LDE2My42OTIzMDggMjA1LjUzODQ2MiwxNjkuODkwNDYyIDIwNS41Mzg0NjIsMTc3LjUzNiBMMjA1LjUzODQ2MiwyMDEuNTQwOTIzIEwyMDUuNTM4NDYyLDIwMS41NDA5MjMgWiIvPiYjeGE7ICAgIDwvZz4mI3hhOzwvc3ZnPg==;fontFamily=Comic Sans MS;" vertex="1" parent="1">
          <mxGeometry x="1214" y="-1192" width="131.31" height="139" as="geometry" />
        </mxCell>
        <mxCell id="vKnNRoz7A6DcVykYE2kj-31" value="" style="rounded=0;whiteSpace=wrap;html=1;hachureGap=4;fontFamily=Comic Sans MS;fontSize=20;fillColor=#fad7ac;strokeColor=#b46504;" vertex="1" parent="1">
          <mxGeometry x="1294" y="-959" width="491" height="1289" as="geometry" />
        </mxCell>
        <mxCell id="vKnNRoz7A6DcVykYE2kj-34" value="" style="rounded=0;whiteSpace=wrap;html=1;hachureGap=4;fontFamily=Comic Sans MS;fontSize=20;fillColor=#fad7ac;strokeColor=#b46504;" vertex="1" parent="1">
          <mxGeometry x="747" y="-952" width="491" height="1279" as="geometry" />
        </mxCell>
        <mxCell id="vKnNRoz7A6DcVykYE2kj-35" value="&lt;font style=&quot;font-size: 40px;&quot;&gt;Queues&lt;/font&gt;" style="text;html=1;strokeColor=none;fillColor=none;align=center;verticalAlign=middle;whiteSpace=wrap;rounded=0;fontSize=20;fontFamily=Comic Sans MS;" vertex="1" parent="1">
          <mxGeometry x="1451" y="-925" width="182" height="30" as="geometry" />
        </mxCell>
        <mxCell id="vKnNRoz7A6DcVykYE2kj-36" value="&lt;font style=&quot;font-size: 40px;&quot;&gt;Inventory_exchange&lt;/font&gt;" style="text;html=1;strokeColor=none;fillColor=none;align=center;verticalAlign=middle;whiteSpace=wrap;rounded=0;fontSize=20;fontFamily=Comic Sans MS;" vertex="1" parent="1">
          <mxGeometry x="766" y="-995" width="468" height="30" as="geometry" />
        </mxCell>
        <mxCell id="vKnNRoz7A6DcVykYE2kj-47" value="branch_queue" style="shape=parallelogram;perimeter=parallelogramPerimeter;whiteSpace=wrap;fixedSize=1;hachureGap=4;fontFamily=Comic Sans MS;fontSize=30;align=center;verticalAlign=middle;horizontal=1;html=1;flipV=0;flipH=0;fillColor=#f5f5f5;strokeColor=#666666;fontColor=#333333;" vertex="1" parent="1">
          <mxGeometry x="1307" y="-885" width="466" height="100" as="geometry" />
        </mxCell>
        <mxCell id="vKnNRoz7A6DcVykYE2kj-48" value="product_queue" style="shape=parallelogram;perimeter=parallelogramPerimeter;whiteSpace=wrap;fixedSize=1;hachureGap=4;fontFamily=Comic Sans MS;fontSize=30;align=center;verticalAlign=middle;horizontal=1;html=1;flipV=0;flipH=0;fillColor=#f5f5f5;strokeColor=#666666;fontColor=#333333;" vertex="1" parent="1">
          <mxGeometry x="1307" y="-752" width="466" height="106" as="geometry" />
        </mxCell>
        <mxCell id="vKnNRoz7A6DcVykYE2kj-49" value="product_update_queue" style="shape=parallelogram;perimeter=parallelogramPerimeter;whiteSpace=wrap;fixedSize=1;hachureGap=4;fontFamily=Comic Sans MS;fontSize=30;align=center;verticalAlign=middle;horizontal=1;html=1;flipV=0;flipH=0;fillColor=#f5f5f5;strokeColor=#666666;fontColor=#333333;" vertex="1" parent="1">
          <mxGeometry x="1307" y="-478" width="466" height="100" as="geometry" />
        </mxCell>
        <mxCell id="vKnNRoz7A6DcVykYE2kj-50" value="product_queue_proxy" style="shape=parallelogram;perimeter=parallelogramPerimeter;whiteSpace=wrap;fixedSize=1;hachureGap=4;fontFamily=Comic Sans MS;fontSize=30;align=center;verticalAlign=middle;horizontal=1;html=1;flipV=0;flipH=0;fillColor=#f5f5f5;strokeColor=#666666;fontColor=#333333;" vertex="1" parent="1">
          <mxGeometry x="1307" y="-614" width="466" height="100" as="geometry" />
        </mxCell>
        <mxCell id="vKnNRoz7A6DcVykYE2kj-51" value="sale_queue" style="shape=parallelogram;perimeter=parallelogramPerimeter;whiteSpace=wrap;fixedSize=1;hachureGap=4;fontFamily=Comic Sans MS;fontSize=30;align=center;verticalAlign=middle;horizontal=1;html=1;flipV=0;flipH=0;fillColor=#f5f5f5;strokeColor=#666666;fontColor=#333333;" vertex="1" parent="1">
          <mxGeometry x="1307" y="-207" width="466" height="100" as="geometry" />
        </mxCell>
        <mxCell id="vKnNRoz7A6DcVykYE2kj-52" value="sale_queue_proxy" style="shape=parallelogram;perimeter=parallelogramPerimeter;whiteSpace=wrap;fixedSize=1;hachureGap=4;fontFamily=Comic Sans MS;fontSize=30;align=center;verticalAlign=middle;horizontal=1;html=1;flipV=0;flipH=0;fillColor=#f5f5f5;strokeColor=#666666;fontColor=#333333;" vertex="1" parent="1">
          <mxGeometry x="1307" y="-71" width="466" height="100" as="geometry" />
        </mxCell>
        <mxCell id="vKnNRoz7A6DcVykYE2kj-53" value="user_queue" style="shape=parallelogram;perimeter=parallelogramPerimeter;whiteSpace=wrap;fixedSize=1;hachureGap=4;fontFamily=Comic Sans MS;fontSize=30;align=center;verticalAlign=middle;horizontal=1;html=1;flipV=0;flipH=0;fillColor=#f5f5f5;strokeColor=#666666;fontColor=#333333;" vertex="1" parent="1">
          <mxGeometry x="1307" y="64" width="466" height="100" as="geometry" />
        </mxCell>
        <mxCell id="vKnNRoz7A6DcVykYE2kj-54" value="user_queue_jwt" style="shape=parallelogram;perimeter=parallelogramPerimeter;whiteSpace=wrap;fixedSize=1;hachureGap=4;fontFamily=Comic Sans MS;fontSize=30;align=center;verticalAlign=middle;horizontal=1;html=1;flipV=0;flipH=0;fillColor=#f5f5f5;strokeColor=#666666;fontColor=#333333;" vertex="1" parent="1">
          <mxGeometry x="1307" y="200" width="466" height="100" as="geometry" />
        </mxCell>
        <mxCell id="vKnNRoz7A6DcVykYE2kj-55" value="&lt;font style=&quot;font-size: 27px;&quot;&gt;Product_update_queue_proxy&lt;/font&gt;" style="shape=parallelogram;perimeter=parallelogramPerimeter;whiteSpace=wrap;fixedSize=1;hachureGap=4;fontFamily=Comic Sans MS;fontSize=30;align=center;verticalAlign=middle;horizontal=1;html=1;flipV=0;flipH=0;fillColor=#f5f5f5;strokeColor=#666666;fontColor=#333333;" vertex="1" parent="1">
          <mxGeometry x="1307" y="-342" width="466" height="100" as="geometry" />
        </mxCell>
        <mxCell id="vKnNRoz7A6DcVykYE2kj-69" style="rounded=0;hachureGap=4;orthogonalLoop=1;jettySize=auto;html=1;exitX=1;exitY=0.5;exitDx=0;exitDy=0;entryX=0;entryY=0.5;entryDx=0;entryDy=0;fontFamily=Comic Sans MS;fontSize=16;strokeWidth=5;flowAnimation=1;endArrow=none;endFill=0;" edge="1" parent="1" source="vKnNRoz7A6DcVykYE2kj-57" target="vKnNRoz7A6DcVykYE2kj-47">
          <mxGeometry relative="1" as="geometry" />
        </mxCell>
        <mxCell id="vKnNRoz7A6DcVykYE2kj-57" value="&lt;font style=&quot;font-size: 30px;&quot;&gt;registered.branch&lt;/font&gt;&lt;span style=&quot;&quot;&gt;&lt;/span&gt;" style="shape=process;whiteSpace=wrap;html=1;backgroundOutline=1;hachureGap=4;fontFamily=Comic Sans MS;fontSize=20;fillColor=#f8cecc;strokeColor=#b85450;" vertex="1" parent="1">
          <mxGeometry x="762" y="-864" width="445" height="60" as="geometry" />
        </mxCell>
        <mxCell id="vKnNRoz7A6DcVykYE2kj-58" value="&lt;font style=&quot;font-size: 40px;&quot;&gt;Routing key&lt;/font&gt;" style="text;html=1;strokeColor=none;fillColor=none;align=center;verticalAlign=middle;whiteSpace=wrap;rounded=0;fontSize=20;fontFamily=Comic Sans MS;" vertex="1" parent="1">
          <mxGeometry x="801" y="-932" width="412" height="30" as="geometry" />
        </mxCell>
        <mxCell id="vKnNRoz7A6DcVykYE2kj-70" style="rounded=0;hachureGap=4;orthogonalLoop=1;jettySize=auto;html=1;exitX=1;exitY=0.5;exitDx=0;exitDy=0;fontFamily=Comic Sans MS;fontSize=16;entryX=0;entryY=0.5;entryDx=0;entryDy=0;strokeWidth=5;flowAnimation=1;endArrow=none;endFill=0;" edge="1" parent="1" source="vKnNRoz7A6DcVykYE2kj-65" target="vKnNRoz7A6DcVykYE2kj-48">
          <mxGeometry relative="1" as="geometry" />
        </mxCell>
        <mxCell id="vKnNRoz7A6DcVykYE2kj-71" style="rounded=0;hachureGap=4;orthogonalLoop=1;jettySize=auto;html=1;exitX=1;exitY=0.5;exitDx=0;exitDy=0;entryX=0;entryY=0.5;entryDx=0;entryDy=0;fontFamily=Comic Sans MS;fontSize=16;strokeWidth=5;flowAnimation=1;endArrow=none;endFill=0;" edge="1" parent="1" source="vKnNRoz7A6DcVykYE2kj-65" target="vKnNRoz7A6DcVykYE2kj-50">
          <mxGeometry relative="1" as="geometry" />
        </mxCell>
        <mxCell id="vKnNRoz7A6DcVykYE2kj-65" value="&lt;font style=&quot;font-size: 30px;&quot;&gt;registered.product&lt;/font&gt;&lt;span style=&quot;&quot;&gt;&lt;/span&gt;" style="shape=process;whiteSpace=wrap;html=1;backgroundOutline=1;hachureGap=4;fontFamily=Comic Sans MS;fontSize=20;fillColor=#f8cecc;strokeColor=#b85450;" vertex="1" parent="1">
          <mxGeometry x="762" y="-677" width="445" height="60" as="geometry" />
        </mxCell>
        <mxCell id="vKnNRoz7A6DcVykYE2kj-73" style="rounded=0;hachureGap=4;orthogonalLoop=1;jettySize=auto;html=1;exitX=1;exitY=0.5;exitDx=0;exitDy=0;entryX=0;entryY=0.5;entryDx=0;entryDy=0;fontFamily=Comic Sans MS;fontSize=16;strokeWidth=5;flowAnimation=1;endArrow=none;endFill=0;" edge="1" parent="1" source="vKnNRoz7A6DcVykYE2kj-66" target="vKnNRoz7A6DcVykYE2kj-55">
          <mxGeometry relative="1" as="geometry" />
        </mxCell>
        <mxCell id="vKnNRoz7A6DcVykYE2kj-66" value="&lt;font style=&quot;font-size: 24px;&quot;&gt;registered.product.quantity.#&lt;/font&gt;&lt;span style=&quot;&quot;&gt;&lt;/span&gt;" style="shape=process;whiteSpace=wrap;html=1;backgroundOutline=1;hachureGap=4;fontFamily=Comic Sans MS;fontSize=20;fillColor=#f8cecc;strokeColor=#b85450;" vertex="1" parent="1">
          <mxGeometry x="762" y="-406" width="445" height="60" as="geometry" />
        </mxCell>
        <mxCell id="vKnNRoz7A6DcVykYE2kj-76" style="rounded=0;hachureGap=4;orthogonalLoop=1;jettySize=auto;html=1;exitX=1;exitY=0.5;exitDx=0;exitDy=0;fontFamily=Comic Sans MS;fontSize=16;entryX=0;entryY=0.5;entryDx=0;entryDy=0;strokeWidth=5;flowAnimation=1;endArrow=none;endFill=0;" edge="1" parent="1" source="vKnNRoz7A6DcVykYE2kj-67" target="vKnNRoz7A6DcVykYE2kj-53">
          <mxGeometry relative="1" as="geometry" />
        </mxCell>
        <mxCell id="vKnNRoz7A6DcVykYE2kj-77" style="rounded=0;hachureGap=4;orthogonalLoop=1;jettySize=auto;html=1;exitX=1;exitY=0.5;exitDx=0;exitDy=0;entryX=0;entryY=0.5;entryDx=0;entryDy=0;fontFamily=Comic Sans MS;fontSize=16;strokeWidth=5;flowAnimation=1;endArrow=none;endFill=0;" edge="1" parent="1" source="vKnNRoz7A6DcVykYE2kj-67" target="vKnNRoz7A6DcVykYE2kj-54">
          <mxGeometry relative="1" as="geometry" />
        </mxCell>
        <mxCell id="vKnNRoz7A6DcVykYE2kj-67" value="&lt;font style=&quot;font-size: 30px;&quot;&gt;registered.user&lt;/font&gt;&lt;span style=&quot;&quot;&gt;&lt;/span&gt;" style="shape=process;whiteSpace=wrap;html=1;backgroundOutline=1;hachureGap=4;fontFamily=Comic Sans MS;fontSize=20;fillColor=#f8cecc;strokeColor=#b85450;" vertex="1" parent="1">
          <mxGeometry x="762" y="146" width="445" height="60" as="geometry" />
        </mxCell>
        <mxCell id="vKnNRoz7A6DcVykYE2kj-74" style="rounded=0;hachureGap=4;orthogonalLoop=1;jettySize=auto;html=1;exitX=1;exitY=0.5;exitDx=0;exitDy=0;entryX=0;entryY=0.5;entryDx=0;entryDy=0;fontFamily=Comic Sans MS;fontSize=16;strokeWidth=5;flowAnimation=1;endArrow=none;endFill=0;" edge="1" parent="1" source="vKnNRoz7A6DcVykYE2kj-68" target="vKnNRoz7A6DcVykYE2kj-51">
          <mxGeometry relative="1" as="geometry" />
        </mxCell>
        <mxCell id="vKnNRoz7A6DcVykYE2kj-75" style="rounded=0;hachureGap=4;orthogonalLoop=1;jettySize=auto;html=1;exitX=1;exitY=0.5;exitDx=0;exitDy=0;entryX=0;entryY=0.5;entryDx=0;entryDy=0;fontFamily=Comic Sans MS;fontSize=16;strokeWidth=5;flowAnimation=1;endArrow=none;endFill=0;" edge="1" parent="1" source="vKnNRoz7A6DcVykYE2kj-68" target="vKnNRoz7A6DcVykYE2kj-52">
          <mxGeometry relative="1" as="geometry" />
        </mxCell>
        <mxCell id="vKnNRoz7A6DcVykYE2kj-68" value="&lt;font style=&quot;font-size: 30px;&quot;&gt;registered.sale&lt;/font&gt;&lt;span style=&quot;&quot;&gt;&lt;/span&gt;" style="shape=process;whiteSpace=wrap;html=1;backgroundOutline=1;hachureGap=4;fontFamily=Comic Sans MS;fontSize=20;fillColor=#f8cecc;strokeColor=#b85450;" vertex="1" parent="1">
          <mxGeometry x="762" y="-127" width="445" height="60" as="geometry" />
        </mxCell>
        <mxCell id="vKnNRoz7A6DcVykYE2kj-72" style="rounded=0;hachureGap=4;orthogonalLoop=1;jettySize=auto;html=1;exitX=1;exitY=0.5;exitDx=0;exitDy=0;entryX=0.029;entryY=0.405;entryDx=0;entryDy=0;entryPerimeter=0;fontFamily=Comic Sans MS;fontSize=16;strokeWidth=5;flowAnimation=1;endArrow=none;endFill=0;" edge="1" parent="1" source="vKnNRoz7A6DcVykYE2kj-66" target="vKnNRoz7A6DcVykYE2kj-49">
          <mxGeometry relative="1" as="geometry" />
        </mxCell>
        <mxCell id="vKnNRoz7A6DcVykYE2kj-79" value="&lt;font style=&quot;&quot;&gt;&lt;font style=&quot;font-size: 25px;&quot;&gt;COMMAND APP&lt;/font&gt;&lt;br&gt;&lt;/font&gt;" style="text;html=1;strokeColor=none;fillColor=none;align=center;verticalAlign=middle;whiteSpace=wrap;rounded=0;fontSize=20;fontFamily=Comic Sans MS;" vertex="1" parent="1">
          <mxGeometry x="-300" y="-734" width="233" height="30" as="geometry" />
        </mxCell>
        <mxCell id="vKnNRoz7A6DcVykYE2kj-89" value="&lt;font style=&quot;&quot;&gt;&lt;font style=&quot;font-size: 30px;&quot;&gt;Querie APP&lt;/font&gt;&lt;br&gt;&lt;/font&gt;" style="text;html=1;strokeColor=none;fillColor=none;align=center;verticalAlign=middle;whiteSpace=wrap;rounded=0;fontSize=20;fontFamily=Comic Sans MS;" vertex="1" parent="1">
          <mxGeometry x="-303" y="-424" width="233" height="30" as="geometry" />
        </mxCell>
        <mxCell id="vKnNRoz7A6DcVykYE2kj-98" value="" style="rounded=0;whiteSpace=wrap;html=1;hachureGap=4;fontFamily=Comic Sans MS;fontSize=20;glass=0;fillColor=#dae8fc;strokeColor=#6c8ebf;" vertex="1" parent="1">
          <mxGeometry x="-314" y="-650" width="260" height="224" as="geometry" />
        </mxCell>
        <mxCell id="vKnNRoz7A6DcVykYE2kj-96" value="&lt;font style=&quot;&quot;&gt;&lt;font style=&quot;font-size: 30px;&quot;&gt;JWT APP&lt;/font&gt;&lt;br&gt;&lt;/font&gt;" style="text;html=1;strokeColor=none;fillColor=none;align=center;verticalAlign=middle;whiteSpace=wrap;rounded=0;fontSize=20;fontFamily=Comic Sans MS;" vertex="1" parent="1">
          <mxGeometry x="-299" y="-101" width="233" height="30" as="geometry" />
        </mxCell>
        <mxCell id="vKnNRoz7A6DcVykYE2kj-97" value="&lt;font style=&quot;font-size: 34px;&quot;&gt;Websocket&lt;/font&gt;" style="text;html=1;strokeColor=none;fillColor=none;align=center;verticalAlign=middle;whiteSpace=wrap;rounded=0;fontSize=20;fontFamily=Comic Sans MS;" vertex="1" parent="1">
          <mxGeometry x="-265" y="213" width="170" height="30" as="geometry" />
        </mxCell>
        <mxCell id="vKnNRoz7A6DcVykYE2kj-82" value="" style="shape=image;verticalLabelPosition=bottom;labelBackgroundColor=default;verticalAlign=top;aspect=fixed;imageAspect=0;image=data:image/png,iVBORw0KGgoAAAANSUhEUgAAASwAAABJCAMAAACw7esaAAAC8VBMVEVHcEwAAAACAgIAAAACAgI+R1/7+/szZI4+Pj4xMTEsLCwoKCglJSUfHx8EBAQCAgIBAQEAAAAAAAAAAAAAAAABAQEBAQEBAQECAgIAAAAAAAAAAAAAAAAAAAAAAAAAAAAAAAAAAAAAAAAAAAAGBgYMDAwUFBQCAgIAAAA8aYgAAAAAAAAAAAAYGBkAAAAAAAAAAAACAgIlJSU4ODg/Pz8uLi51dXWenp7AwL/a2dnr6en19vfw7++AgIDq6uoBAQF7enqzs7P6+fiXl5dmZmYAAAC6urrm5eT////S0dD7/P39/v9HR0f2+fzw9vumpaVdXV3u8vbb5e3X4uvl7fPp7/SBobteh6hVgKNJd5xEdJpPfKB6nLehuczT3+g5OTkAAAC8zdtahKZBcZg7bZVnjq2FpL2twtPC0t5+n7k4apMwZY8tYo4vZI4zZ5EXUoErYYwoXoojW4ghWYebtckvLy9Rb4jMy8slXIlxlbLH1eGJp7/g6O9jiqofWIYyZpBpaWkAAADGxcSPq8KUr8UcVoR2mbW0yNc8PDwzaJOovtBzc3NWVlY3Nzfe3dwhISH09PSSkpJvb29tkrBsbGysrKuRkJAeHh7z8/MDAwMxZI4yZ5EyZpExZZAxZpEyZZExZpAxZpAxZpEyZpEyaJIwZZHj6/DN2uUAAAAAAAAyZpExZpA0apY2bpw4c6M5daY3cJ81bZoyZ5IyZpExZpEyZpEyaJIzapU2bZoxZZA1bJgxZpAxZpEyZpAxZpExZZAxZpEAAABCQkIyZ5EwZo0yZ5K/v78AAAAxMTEyZpEzaZUAAABWVlYZGRkyZpAFCxGPj488PDwlJSVUVFRFRUUCAgIAAADJyMdbW1tLS0sAAACAgIBSUlKxsbHy8vL////v7+82NjYGBgaHh4dXV1cqKip2dnakpKRvb28LCws6OjoAAADOzs5fX1/Q0NCpqamRkZFkZGQiIiJYWFhAQECHh4d0dHTIyMjQzstZWVmpqakqVYXVAAAA+3RSTlMADBchEgIEJlF/osDT3aSCXjAJHFqOr8vX2tHBZUBU8fv/5an/////6ghKtvX/7ohGcv///v///////////wy7///////3//////////////7//////////////////6R5///////////////////////////HHP////////////8m////////r///S/y2/+wQNf//W////xkqFj5TZksuXHeTgkUS//+d/bft////////4Kad9Mbx/4v/2MCvzDZu35nxDegzNuX6+TuzpNQFY572fMhslf/f81Bz/6tZIjZAV6ZtkKNLsejjYf99THSM1/aNMf/KXf9dKZucNogAABFtSURBVHgB5NDTAQNBGATgjW07E9u2zuy/mWMBKWC/n89D/vJ4fT6vP2B9wVA4Eo3FE4l4MpXOZAnNcvlCsVSuVGvFQr3hJbZsM1lutYF2q1Pqdjuw9fqDwaA/xKjbHBNKTaYzYNifz+dWEMCitlz51hUA/c12t9sPAAx2h+PpfLler7fL+XTfo7J+EAplnsD+9T7fPp/P7Xz6/rY9gAE2B5bjbVfhyN54hyi5V3rvUA4T6tQZyCfepqiqmwWn6YON9rE+k9yyWJMihsLoxx6WuAbXHe7O3+7uLpXqSSoNk7YK7m6vi05L1cgL5Kxiq5NrkWgsFvfiL4lkKp3JZnOpfKH491noDCnpFlxlcuQC4Kskq5lavZ7NNZqtGIDLV4B2J9c1qNmrVZuVP9tWfYlRxrglWK6fAB74ycNHesUVOboMtDKW4IxSypgUgmYHEWBYlYJRwzBMyoXMjsYITGxT/cXgdr0P4DHZopOtJ/eOPUVgYHO1gLHU9OGZlGoBZqtRAM8lm+0nib+2NmuUiTfINXgnL5QDqwG8fGEqJ9TODvGKsd7KXmTHgJ+81sbVXnLmCkYuV/RNfHrmhPO3aNNpbPWsWhwPjhx5p4usbeQaitwVQ3YfQ2moNaCij4o0p7ZEOoD35IMmrjadPvYRL4XLSO2KryrVmpjiLfr2bPviLe6QT591ycJziHSpciBGqFhqHagcoiGmZcsa4D45+kWXGesrXrnEGLyIhqXWg9cjkS6bbiZYJroUrUPkAkauLGQZX9ww1Xr0xDe8taeyUn9kHf6uh6wd5D6+uaLIyuOtUBtgtZHj6h+ygYvkiCay9hMPUlw5EC2XPzcyjYo1q1k/tElDcuwS0k5ZBiv6Mkyti2FSe4iVF6KJn9oUeHL4I3JOWbQeiCvKhJBS8DUGLd6r085v4s07rIls/eOH5nYwIAQJlhdBmrTtz89e8uz5ZWWLveHi2k0IxfLEhouNG7dXNvQmJDATh2KLAeEKFzvr3SXr9t57//eek4RxziThwa3fXcucE8T5PG/5nndGvG+zC1YWfgxKXvY2YQ30DwsLCCgymRREpkD0D6m0rLyioqK8vLLsBs9pZWJVdU0tUV1F/Tbp8uFtpd5ggUdk5S3HO3Lzly86tGFV1mIDW+j1hjU7NzSQ+R9uzNM6M3IDvhNuG4E8ZE5NVavVFgu4laDK8EN/v6qbmjneaj1itQote1rbypnN+vZWTjjiEn/0WI3Iq/z4iZPIU2rPmmXYjYt378AuZeVrGVZLGjDWPDxZgxuMFGOOfuGsFNjq9WTgodFj/vaoOsbzgu3oKXtHW1Nns00Q+GOnxc3KYzarVX+q42RNV9fJjtYWq3C8LtGNWBC8weom3XB7AQtrO84kmBq3HNyehfH+AiZDH8aNu5ev3rTk/l17clxR+P8A//bqSRIURaJMSWkJAGoF+lsVdEzgzpysd2fU4fraM7YTxwdp1bbwfGvNDWLm1XdwvNDpuq5u4b3Bmg6zafmROQesObQ8v2D3waUbcebqPEmf3Ifnry5euHDNUrzSmYYFB/Fs785hAsQEMQthSgAlug6FKKeH/sEc5I3Hq6QLN7RyLa2u6OkQOK6uBwVJs7KVP9F7wxCwwomDXy+DtRGvXFqYn/8oxnhtIxN35KSzUzdvclbh827vQA6KT0DJf7zD8pMPzgD6ruuIn/oHYTWd4GvYlTJOz1c740rgjld6ZK39REvrYd+womEubszXyiIrK5c4BN3+hh36LLxFREmW5uPthdo1+YX7XMvanAZNCpydNixYKBkgAw1fwRDzB2Gdsp27QbZkb+HbaL3ijefrkYcSj9n4Dt+wLkCJ5oE1OgbWdpeB1xqMeQc24g0GqQPD2w1aHQ2ojTSy8pfgvQAX0fBghQCEo+Hr0p8BSz7z7rIKlxHqP2WjMeepbcc5W5lPWP7j45+SeQfD2sHEzNGSo98urfbaVjFeR7cMq/BaynDzfnw3xL0yTFjZ12D5+dOn3DL5BfoHSvBcgW5mOzSsKMCLW+v38wsVPxIY2M+EkU0ePofr60mFL+e5U0HIm2p4vsMnrKBueBGvKGCtA4Elnqk1k1frpLObYrqVvwM/mk8jbT6+Hf778jBhmV1p6B89YfQkAEtMckaR+NdICp8+OlVtUceo0hT0+pVXX30Nxj1y5cqVAERlClHFWADUkeYkhPyzswOQX0Z2OgpIU3UnJEQ4G8iA849NVTqSBjnUCDa7VyYdTDFjYJ7hjpaysJgyejfNOhYWXRC9wnKxHdK0W6jPoVaUwqKXrwO8hoYJazTABRJfCQDjI6cnq2IIsOAwRNWnhLi75j5x9eobd8UBOPpR0EOxseDSKLIfaLZQXxsZ1U1+jfBTALyJwgDCTakQHxcXpySfcFBQquAJKvJrVJL7zntbbMfKezxLUy9npA7CO0dbpU9YGXAntQFsGopFPUffIE1SrW6eM//oUdvgnD7Pgbi3hgkrBCAqKDQCIGqkvzN/FOHjIaaPBkUqvP3Ou+89M2LEM++/dWs8mBH64MOxr8H4gbFjxwaQ/UiAqAFTKIk4/zengzLbQmAFjIcJkXFbX33h8ccfR6bRAMlJznT0G6sEyEZOnW4lPrS3qa6eLV037OGaadPzkYc1PmFdgLgpmmVi8Li80zoR1p5dNIakRovm4eb99CPEvk+eyGYhA4u5VpgB1H0oGMAcem2xG2L8Kca73hXXnomEeBMi+ih+vKtEhUYBhPRLS58FxqIiC0Dcx66lwG6m0aYBRLvNQF3nOeGIlT93ueNk9eke0UBwp5APldv4kz5h+SXAvYyXooMEsYjpNi1gyn/e6kzN0jynu9hM2+Y9bC9kYE0yOxyOcKccEZGu484FgOkMQjUNo2QmlaMBPqG/fho/PsAd/OBgax9NThNA/E2iW2T7bBpM8hfDqLrW3mskR0Crrbepy2kl6jlbJ/Khehtfy8Ji3c9UpmjRQcJug/joIpMZ11DTkFVIM7W4QGtoxHfBxM98wWJlUdKDdDCMN7Fmit7WBLhN2r4///wtBlYUjGO6oP84N6wvEt2BlQoJfrKZZrb0sueGyq52e6/tiPV8W5Uzsi4PEVl1LCx50Zqn00pqFp2DihVd9jgjf6kmc1kecfc78skI8F6AL0f4ghU5SqJ05333d8tPPG8CfIg+BIhIZ3hIYflPgmRZU6KwFADB7ut0gDS5S1EhD/WcrrnM88frUZWea+5B3tXF8xW+YSkg7v+kIy1tfiOd7In1S+bvCw/h9YWE4cq8wmI8F2LfQr5gJXus0aJsZldMFnqfN5fEw6SoCEd2dJIiUA5L4YEixAVLLFMZAOaRX0k00gEJXg1tf5vN1tuT2MxxvrphG8+VecJinNbOzWxk5V2bMO9nT455yzI1yw8swY2FS/HXQB8ZDh+W533TsKH16LNPr955V8nEOKD9P8NPDitbHjcuWNFiifKiAHRDWf1hj+hqNvIV9NBTh7wqsdfW3OMbFjLDQzR8pDXr+YLB+v6wzN47/cKq3LV4Q64zsL5B1wPL5HHg8VcPFu+X3//2u+8//eHL22MhUiGFVWSRf1G4DFYIqD9MlysU2QVrtaePoofDLp6jwwcvquDJ9hCw3oSSWRpJFS94niSam9sivJJilCqP+tRFeN9qakh/fOa6YAWmylc9wuaZ938itEIlsEJjYDpipJTBGgmWIq8Zxbd7LLbzLU3ocDPnPbQSW21c1VCwAsfBvaKzItLpF2Yuc4ZTTs4uvIJuMCIjhw3kuLMK3wnxP6HrgoVUkOonay+g6EtL+5kN9dgbJbBoxwxjrSHtCiYRFo09lrh/WvhYWquNnnXcbqOhUyEYOTqh8UQp1CJPWExzmUPykH16v1nnirGFRmkvFHMTNz6PZ9KKdZ2wvpIFUmg3RNJmeIUFGPuxFJYCYHq/xBlGUZ8lhYWmywYUDkoT3WDUe4TWDef1fJdr9nfek1btCcEeNDSskTBx8v2SfpijW4mzCsh1QTF9B8RDhTsx3jdfczu9pyFgqbx1oyhQX5A0lwiAD2mR/0JqHKa7zNunYAkTC7qyT4yrKEiwwFcMrD6ACAnONy0Q4cxDYU9LXRDTzZps9KBMCr3dNSmV6rSd55roEoVVh3zm4YN4f6HUTC3Eq5ZuPmCcrKEM5crJ24EX4l8Abtum+DDE7Lhx+LBQUQKoB0IH71sFEO4+NY4ZvFmTGeAqHSf+FC96g+hUAFVGet+FpGz6JaMsEE1tSLTU9SvHDEZrBrlwwi89JRhPdLpcu/O6/JjNKFS4qlMbb5PO4Hsq24wt+vPlyAWLs3d1VVxTdXV1efngjc3FDZK3G/S5BzHGq1bsx/P2FOTrPV92MJJ32GIBxqVCbEkJxF4K8pbbSuSVlgogxkxOyCPTlAAJzvsd8a8UgG7VBEdaeDBZLPnhfbr6cxyAcsItTmBhaaPBreR0akIzUABIYKH0KAI87cP0pIHgBACzn5tOG8fz9GBYW1d3sq3zTAvPn68RJ/StvCDoyaGxrqaO2nuBP2Eznj+ZSLesHG+VS3B/J/pcevtmEUb+ml1TZuzFRJkLVi0xyGnlrS7W4Fmvv3T33S/NfGrW5Nnx3tIxLcrsK+tVFnBJme3vXnvlIrFZKeTfbpTcNffX79yVcExyAsCgiw1SjM0ICRlICnPZ/mzkf9vTH0oTbGxEKjjV7ZBM+svaezmBPjekErjW2iqJ56o4do63HnHvtfS2VxDLyncSu1rZ6U3ubxQJcyQeIY/UrDsBSubeh4kmyzNRS7bxLixKE3e9r/6FjfkwOnrUGKbFUZtF9Nu376ER4qJfgCnMixMfAFKz0LRnZCet0KILSemKMLkNLas42dZkP2bvqO0q65HX+/KadrrX1F5TSQ1seStvbS5FQ2oAYu/Dz7tDS0eGxk8A0WMaXLx6Pd5BKbLzrod3560tnt+wa+X6/fPwSwCPoL9SYSpVkvxsqPirHst29JahoeUXQ0Jrnk7nDBwyWHgOAFKmYsKpULfg/mV0nZlpHcrNMRTotIYDq4vxg7F/9Vs0/TEQJb3u+1/79qCU+xYFAHxn227dPlxlm3Nb2bbtmjjZdj1BeItr28e2jdE5uT9qlNu/R9jeC+agJ0P2C3tdcdmCOAi7e9bfnC/g/IuVVp2W3KqyqhZkldTU1GJaa0NDVVnOVBb6TQKIR8j+UgdQI5tMPgAwIYfoNwOwDwlJeD9aPY044+iKK7Jyqkp6utA9mTVYg4hxi4vR4Yges3MAYiUvss+WAPRsTTq0JKV++ucTALOr5FDZALRjWF5N6xQGCe5jcExfc2JDQ3VDF3IGq6op2Ld+dDTI1zNUCACiL2XJvtM2gk1WSx3kkFkDTCKmx2C9JXyGcY2lPa2VuY0x6OIXxhysktJYN9gkqhsiB0LqY1vrf5f+tf7HRJocPl0A+4jR104CANEMIsbGxCIGRs4Fs8oAS4vDXsMKsUCk8scQOZV+04U1AiGAo8/Ma9f/nM8LwRFZg1WZhL5gqahzQ+HNhBc5tVbSnyAYe3BFHzZxB6sqG2fBYZ6cdtJnbf+RHydE4h+jT9c2mooeZ7AapnASQi+RTZSWjbHtP1efy96zw5WIPDOteB6GeVYWpc0drDS0X4mhcFBn5/xYKYvqLLSEJzKEg7Kx9MDsKkZLQbSbAF4SLuo7oRsmNGwPkw6E/Qfia4SL6lgexakGRpIVI0D4iHBRkmb/MQsDq7LRB+xeES7qty98sauGWb11Hux5n1mUtz+zIKl1EOfgf1nCg9KJxJhtVZRlZVH1IHhM+FBnLbcnYMt7inAYHC8Tij8DO4t9retLq6wnJaQTdnxlURaiUYzvqSotrWxoLUnFUUuwpwtrJz+BYyAOpuTmJuUNhmGEJVg+JjKE4mcBczO4KnDWEUB0k1A7kjYEsBv28QlwFAPA03OE2oW0LqwT3LnxllC7+85az+rTO7oKV051GOsdROGLUXF29eQAAAAASUVORK5CYII=;fontFamily=Comic Sans MS;" vertex="1" parent="1">
          <mxGeometry x="-309" y="-641" width="246.58" height="60" as="geometry" />
        </mxCell>
        <mxCell id="vKnNRoz7A6DcVykYE2kj-84" value="&lt;font style=&quot;font-size: 40px;&quot;&gt;USer&lt;/font&gt;" style="text;html=1;strokeColor=none;fillColor=none;align=center;verticalAlign=middle;whiteSpace=wrap;rounded=0;fontSize=40;fontFamily=Comic Sans MS;" vertex="1" parent="1">
          <mxGeometry x="-242" y="-590" width="118" height="20" as="geometry" />
        </mxCell>
        <mxCell id="vKnNRoz7A6DcVykYE2kj-85" value="&lt;font style=&quot;font-size: 40px;&quot;&gt;Product&lt;/font&gt;" style="text;html=1;strokeColor=none;fillColor=none;align=center;verticalAlign=middle;whiteSpace=wrap;rounded=0;fontSize=40;fontFamily=Comic Sans MS;" vertex="1" parent="1">
          <mxGeometry x="-267.5" y="-547" width="169" height="20" as="geometry" />
        </mxCell>
        <mxCell id="vKnNRoz7A6DcVykYE2kj-86" value="&lt;font style=&quot;font-size: 40px;&quot;&gt;Branch&lt;/font&gt;" style="text;html=1;strokeColor=none;fillColor=none;align=center;verticalAlign=middle;whiteSpace=wrap;rounded=0;fontSize=40;fontFamily=Comic Sans MS;" vertex="1" parent="1">
          <mxGeometry x="-258.5" y="-504" width="151" height="20" as="geometry" />
        </mxCell>
        <mxCell id="vKnNRoz7A6DcVykYE2kj-87" value="&lt;font style=&quot;font-size: 40px;&quot;&gt;Sale&lt;/font&gt;" style="text;html=1;strokeColor=none;fillColor=none;align=center;verticalAlign=middle;whiteSpace=wrap;rounded=0;fontSize=40;fontFamily=Comic Sans MS;" vertex="1" parent="1">
          <mxGeometry x="-237" y="-461" width="108" height="20" as="geometry" />
        </mxCell>
        <mxCell id="vKnNRoz7A6DcVykYE2kj-100" value="" style="rounded=0;whiteSpace=wrap;html=1;hachureGap=4;fontFamily=Comic Sans MS;fontSize=20;glass=0;fillColor=#d5e8d4;strokeColor=#82b366;" vertex="1" parent="1">
          <mxGeometry x="-313" y="-966" width="260" height="224" as="geometry" />
        </mxCell>
        <mxCell id="vKnNRoz7A6DcVykYE2kj-78" value="" style="shape=image;verticalLabelPosition=bottom;labelBackgroundColor=default;verticalAlign=top;aspect=fixed;imageAspect=0;image=data:image/png,iVBORw0KGgoAAAANSUhEUgAAAOIAAAEsCAMAAADpW5+VAAAC61BMVEVHcExsrEhrq0dsrEhamDdmpUJsrEhhnz1ZljZsrEhenTtZljZioT5srEhsrEhgnjxZljZZljZQZEhsrEhrq0dYlTVZljZpqUVsrEhsrEhsrEhaljdnpkNsrEhZljZZljZenDtsrEhZljZsrEhsrEhZljZZljZsrEhZljZpklJZljZZljZfnTxsrEhsrEhZljZZljZZljZsrEhZljZlpEFsrEhZljZsrEhsrEhZljZsrEhioD5ZljZZljZsrEhsrEhioT9ZljZZljZsrEhZljZsrEdZljZsrEhsrEhZljZko0BZljZsrEhZljZZljZsrEhZljZlpEFlpEFsrEhsrEhZljZsrEhmpUJoqERsrEhalzdbmDfCv79srEhqqkZZljZcmTpdmzpsrEhZljZwrE2EsWp1rlWMrXd8sF6SsX+atImgtJKsuKKzuqtmm0e3u7BsnU+/vrvCv795omDEv8KDpm2ouZu7vbaar4xrq0fCv7/Cv7+btonCv7/Cv7/Cv7/Cv7/Cv7/Cv7/Cv7/Cv7/Cv7/Cv7/Cv7/Cv7/Cv7/Cv7/Cv7/Cv7/Cv7/Cv7/Cv7/Cv7/Cv7/Cv7/Cv7/Cv7/Cv7/Cv7/Cv7/Cv7/Cv7/Cv7/Cv7/Cv7/Cv7/Cv7/Cv7/Cv7/Cv7/Cv7/Cv7/Cv7/Cv7/Cv7/Cv7/Cv7/Cv7/Cv7/Cv7/Cv7/Cv7/Cv7/Cv7/Cv7/Cv79HR0pHR0pHR0pHR0pHR0pHR0pHR0pHR0pHR0pHR0pHR0pHR0pHR0pHR0pHR0pHR0pHR0pHR0pHR0pHR0pHR0pHR0pHR0pHR0pHR0pHR0pHR0pHR0pHR0pHR0pHR0pHR0pHR0pHR0pHR0pHR0pHR0pHR0pHR0pHR0pHR0pHR0pHR0pHR0pHR0pHR0pHR0pHR0pHR0pHR0pHR0pHR0pHR0pHR0pHR0pHR0pHR0pHR0pHR0pHR0pHR0pHR0pHR0pHR0pHR0pHR0pHR0pHR0pHR0pHR0pHR0qQZ5VMAAAA+XRSTlMAaV6Etg2d/1XH/8AQNu///GEBi///yBYo4v9uBv7/1hv1gVLq2yPmiQPmMAly8JjxTqXOILSmwS9ozv/rXLut/+A8+jVKu9WS9/+f8XZFV7cT/91DK1r//3z//wE+/6///+2T///////////////////////////r6v6C3csYifliSPcV1H2e8DhmNLoG0Kta+kw79EAi5BFEo4x2VS/sUGANwZIpcV78HMbf2QqnmWyzDAgdLCQOJzMqBRcwIBoUFTs3dr5otN7q5WB8x/FzsNfu4cKLp8oSW9GQVaDT9YZAEFBjTP/++Jn9lUf72+CcgLvNbnms9riUpDSGAAAR4UlEQVR4AdzZA6IDQQwG4GcbRbqb2rZt3/80te02+W/wjSe5Onmub6645/bunjvx4fGJufD++eX1jTfx/ePz65u18Of37/NfIuVMlMnh8/9LwVgoPIgdIipVfJfptRq6xC8NW6JWBz0i6g1chUYYENFk5gg03+igm8cu0WJlKLTZHTAmopPfNL79qmGS6HJzE0o9IkwR0cvsxPH5AWaIGLjnJJQFYZ74pTHzEYaeYQERXWE2xlAEJhMdEjH2/cNROEnsGjkKJ4kYizMwyp5hBbFjpH9bJGAlES1PxIXSJKwhosVNWnj/IM4TU9NETGcIC4XbLKwnojJH+o+/CRElBqrEvA42I2JBRVMYKsKmRAy8URRKE7A58cskEDxqSuIWRCwrzOSI12rYhogxctfjuxyWpbKQiHpiV4c0CNsS8ZXUsSr8itsTsWojRNTWYAdiuU7nyPEVYSVxmTHWINR+2o1Ip/DYVMOORAzcM1imq4llBQWhuSTuTkQLhdsx74A1RFxBxDZ3d4HYSA4FAbTDzA5p23LawfaEmck8zMx4/xvsDUYGlaomR3gGSb8E/+mwvPDZkWmLOP5IPpPbKLqIz/9KtIVb9UzxhWmLqP9TjXtN20TxIysvR9sn2ptXyqHigfFAtA+EI4DXiQei9Cb5swHjhWiHnsmGGcVGiG8cROURZ/bUeCLanGjJ0ZH1RrRrqfaX6IFYuKf9T/RAtFup9nDqgXguWFV1Fr0SBef/nkvjl3h+K1cJJ56J9kGqJYx3jW+i2r/xeMk7UW1Q7cr6JxZeKQlnq8Y/0a5NKlVRRQRxeV9HGF8ZBFGp4DheaoL4tmGindFJqt5lMcS6TPk/PGAwRHsYq+RuSVPE940Tz1VqqimDItq8hvDZKY6490zkd4ojigw4XQZAlKo3egaQxJsViTveSOL4icKOYhZJtN3rdGF8YABEqalxfx5LtI/oxMUimFhZF1zaOIgfHES1X+r6EZpo2VXj3Cqc+HSd/1eEEvkxVZeBE8mPx8QHeKI9TInCjwsvAhCXqafGPyUBiPXH/M1vMJFb+9dMCOJTYkq1ftk88bODKFY0LrwAE/nxxsgmnkiuNp5kwxC/pLyk3wQhjudmWcLJ3jBEu32PP6CCieP9YpvDDuJXB1Fq8p9bCkU8TPkrVDBxpoc/Z4CJN/uslNiEIm6X+OkbmMgaUid3wUR+DBdfhiOu8bfd0MTDyX9n5jeZb60QKzF/xwZM3BumEI+/44nkFO5TEo5Y4GQbL4t4Inl/qhyQuH1754n4uJj+Qx3f4RATPJG8SB0JSbxgCCePR1siDrZCtBfsXANPnOAv4PBE/jIcT6QUU3eeGF/e+eEmvcIT2eFNLSBxh0PswhPZRxo6AhJvyWk4nsjKil8mwYjnryJueIMnsjY19l8EI7K2wodPAUT47ht+eZMZa4XYHZOPM+CJDyAA1NzfEnGNfZART/yPRSwX4UT8EhWQ3ozhN8LJJxlNH/44A7vu7wMcSoEXxXgi8ZD/VCBinnz8HU8c7yffBscTt0vMW2EAIrrOwNcaZ//Uweko3UUT+XdR3oUg1nfI9xfxxMIK+RYqnlhZJ98lxhPz+jfC3S2KpJ9LKSdw4vIC+3FbOPEw5RInp9BE/mMpLxMwsfCK/0QamPh0PeI/dAclKjxbeLwEJZ6/0n500t0uzF1lKLzo96QIIBKen3BMjTDi8kqk8bImjijyYvHcPIxYF2l1l9aaIzZhHFLpAjeyBCKOn0QyzZdAxJxO99BPoxhiPtJ84N7d9A2yAsd/jQjij1SvFZqHLky6nQpGlvwTt1K17pkeiNrNX+ZeeCAC/omAt2C9EQt6HfxmB/wS84ItQxcTn8TcfqTeQ9PdbQK/OgWkOC/8ESvDkWh7Ql/E7ceRaqdQX8Qfso3tR+b5DRjxrZd9EOsXusKoxxWqZszP907iA2DGjx9VMz9/OYm5V8JAd+fezO8/LmL9QlsYxX8vOf7nxh7TXQFiAAzn3mOrPLZt27ZtIzX2XnvQv828O/iKJM9oXt+SJfZUQorTT8sT35Mk6moh5RXI/o7Xrx+30sT2bSBgZ1OS+PQpTVyrKAUC2s4WJIlf31p6+4KR0S8cOZqXn19JYl4tEFE7IvwW3/4kiU2LQMboiijxHU3CxN5sIOSwhVuo0XyYLaLEta02oOS4kH+iWs1vWn5j8UMnkNLWVcc9UT/NH4LdP5wPxFSmLfBO1B+zYDEu1wI5nats4/WrDX+4i1HXDARlZFaxm/8P/3gjdaADSNpjGq/fEPGFTayZB5ou9xLOHI3mHZEzb5rmgSx9fKNvZyAic6Wy3yHhxscvRObPSLmQ+T9qXm2IaH6Pe4TTLQJx+asLcQPVJ25tLB8BeZ1pdXEDNTBTw43Fw7WggMquwvC0+TAjxg6ctdZ8UELbjjF8oWJQ6BmufawSVHE1HrpQMejPovU1DmyDQgxDVeFpE2Cz3BYPN4NS9KsLgdsm7M9ekQGK6exyPH9hhNMF6ildcmOEl127sFIYCAIwPO1cT6linm9wYsRwd3enwMvbDU4DO2+/U5yfuGAyBRSl8SGTBZJy+edANICklIkxZgFNmo0xpwBEuQwF0wCiPAcFPwCijBAFWwOi/oooWECWjhzLAlklxhPLFSCrWuOJ+TqQ1WiST2yFIrENZAU++UStQz4RuvQTe/QTXUY+sU8/MZchn1itkU/0HPKJg6FKpJJYHpFPZFkgvzXVA7qCse9EiV2gbFK1pvkZEDcZzUFRFEVRFEWhqJ7Wdcuy9Eg63e3OZrOuvuh7hgavvMWyVFpGxuNsZDwujQopkIORxB9WjmmPWvAw8RGZgBxj0V1mBQ0ksLY32zwKzs40d01nhVxms9xDLHUwm5m4frhtDuNHDK2JBImaNllXpnzY7Oopw0g1vJE+dUTkYQ6xwJj3xfDuzNeNQbvn53nvcQJy8IYYOcDdpG6LyLAKT30+HN34LqUtRsonkENqxxM1eAhGJm/cFT72z7IxxHJD/iEYIAXDfEvkBhvemGy87/ZiJYhpXcb3ZcqbCAMxHI/BM/H9RJCqI9GOvtavRKgMMVKrvCVmcnC35lPjSZLE8Ffi34xh5Ly/JzrvQ5FPwawkcyLMm28nffLZzar/vr+2OYeHy4X/ud7+uzfPvUSapo33MXgWnNMexftxc9bNObk558SQlKQoOSOCSE41MDJmvf34drU0U4/ikyPXfW+oX4NT/6mrq7sZ1mozMym7Y2razobJ6Zp2uz3mIQNep/jD4p6eYYdlmrX65sgVqEwzNrfVY/6rEY/9pF/dFYi0ak9waRzvT9WxGd+8f54x5g0EQ+GIP6owlCMWDyfC8XnXoVysyVQ6nMksZBd9TkZkno7m8h7GlgqpUCa8XLSyP9VsqVzJVBOReK3ewNjTNDEpTyu3HMmEF+LFunIQ8RRBJHp1Vjj1xlDEG+O4qLwXIO358nICIMbsgYoKqE63wXFjIRBS/QcynS5GADQNUJkVj0y/F1jJRjQI25zNrA5Cq21GZA/kNTW8lgGuRH59Y6Ob3lQk4MYqgKaDGMsduOCbIxAffqXf3b0iEJ9Lwl/3+dADhtrSQCjpDqpaJiOuoi0q7fjgkrA5S50YXQVtc7vd3PF3gCvuZihnWWJNFRMgFZpiA3l2dcgXHJapWASkyqZ9G7W3ALZ22u3tlHhvuvdXIX5/K3ai7yniiWtcVx58/HH//ybG+yO+WF4Xqa0trDTd7lIKo0Qq0/HHSu1tP0baNiHcSUA1ZhdVia4BV962n2UqDKjMFuihrL9SFdGuMjBpkKc+zVA9ZFR1FUJ1EZtaYdDWvaIX9PLi1sz9NYjHfsh+YzxgPzuBuoDN9ubzi4OL72A6etchIvOKJhIvmTFq1LBU8QaTiiZAK8oJ2FsArpyyDz/V/WPf2AWPWZltx4XpfGxfYzENtGQ/mNcA1G601TdkOwywKZuTQ7wvO/tXIDLRb+7fo4hUF25+kJCNZQAIylbmxSji7kdKjibKHKsAIZsBjFDVtnztJpa820/WtgVcO2xfFv7GjLStB6d5kckLbomfIeWLCONQxC9HIL4TRn1BEI9P/vr14dmZybcvBeTxt/0S29EcNSa1oXJEh4x6VQC1JWtR42M5E5NSUqKMzv6ouB1TA34djBc3ebDqlW4PkhG2rQFsLTGpsUUVXdQ4iHjrCMSvDwnip1f7Fn5z7cwjAfnt3jDEpk5uOPOuklrMVkiAKqGPQx6CGJ4e9Be0seyZSewiA/d1cZqaSO1zY2wgN07qRP2vQJwUHfXxYUQR7x8gv3wegljn7ksM5nsD/bYhh6oAWoFxEf9Bp3cAkZgja+5bA93vkUNFHq1I70fo1SWzGvjLiDd+038NQRGFXnwTx+LLIpetoYgyUYIYUDmQmDbUcmp0KKLiR8PZjSp2etKLZcLQ61BnoBaBa5EsDkMR5a7nDDsCkV29I6osC0URq0cibhiJknpA8mjE5SXD/bDSt6M9DhCxyimLUy/GUORGwvpfQpRni1dHIn4WZbwzBNFXpXPRHCeINWx2JUa0Q9omRZSGq/T7qwcdHen/1HoC1EWTBCI1o7fjLyNePY5FOt2PHlBEYuTjA8SYgZjgiO6hiDG0ZZIRbYt5QxGtQxFN2IvBLxq1KwgQ9DJaRdpuWBsRa3QXQxEpgdiFD0Mk7WhCrotkNswlhlSRpFOm6eAc09t/GZF5/YDhfH2usAmdnIUxOhfjdlpF7a9qN08mcFF4+JcQL/1lxCxBxAJDxcVQpFM6hiI69ygis+0iC3SqoG21sM/SjhpG19C6JnwHdze3TAc251jEs1fZUETyTftJxrX05xAViuhKY5JNJiR7IwSVvhkPI5K1kJlLm6oaXo13Sy52aI3YOXDbyJ7x2ONLQxCPPTvLbTr+3UC8QE4axpl54u4QRN/RRjWtAFdKYXTV7BTkaGo4opQlp3etLlJAY3cDFcO5zhTI7Sz5iALXP6rn2E5/nya+FYhXmaHL2I72b8JMBShivUMRydKP+BkeVaOMbu/27GSRREQSEkQlukx2d0QetIZWGxRpOgKQ9zIU/aDp63vqwasvOc+tz5RZPAkg31i698j4FNIboh0VGxrJZSZN25uziA1nTS6N9iAP5qjlSC+mVcQSdjjIisPuHDtURnF+a5mMS4TFBejHhQj0cAB4bfw+t+CJx4zomfi06tE9+Zrzl5DwmgichSpOKDlBlrqcQt9p9NMuYYfJWp2yMSIGRAIzIu2uDpHmYF5axW6uIMvhrSBx2znwBpcaye/lirFAyecx3G4uq8hYE15t7CQgHB0z6vX5yXVMnuvbz3NPXrx/cf7DLV7CO2/vmsi6cvouJ+I6/u3Dg2vv37+4PTkxeOpR30hlgEvf6haczFRYz4tc/siv93iVkkExqC7sxvqTxRbEfPR4rRVYXAbI92S1t8tpVeDnNnx4azY2dQzDqZhwhH0PiLRqaM9oq7PreE01vRJobWQ12GobhI8nv5Fz4PELL19OnMUmcv01KaHpw9tvF4xj4sTLly+5ay+87T+72oWBKg3RXDRN13UNoMvYNAdUVQ1TVyXLbCykykQrO97BDNZBCt9pzdAQZeXJU4FeXhrUMbAl3i5ANyzM0Hmxz6S6M/H1+okHb4Z8/5PqPnkC2Y4lAy2uQDKGVey1CqVSs9ksFVpubtrt7Va0UChEA8ltozXaArn86tpqfL1AmsJ0cC+VK3Plgnsl7uG9uH8vmAoGN7PxgPx0AT1PpG0YVnOVutl0KJ3tFhCQZH/1Kj/kfvjw7NllrmfPPly9e+0zFofq9OUzZ/gD5J8/x8fHJyfHx99d/njv9DH2D8lk91q8ZkY1pjhNY2LMqWBoNitOlKKYnX0r1zrh3HxyvtYNpquAWrMxIrPLgivK/7DmNjW/b5/W6eqVEVJvshGSqRSCTeJB53xHHDRHSIUMZHyMyJwdsSraVgHiZkZVFJvv0REeHrLKQcQ9hY2OtuWZixq1WmIjJDz3akVatFJV7WI8MpqJ46awtiRjUzsEu7NspCR287o/6rAriuKqr2S0speNlpzbGeDSInn/pj9dhYWkmY2aTG1/FfrS04tWNoqaKZUrCV3PLJejHvZv1P8DGnen8e9uLbEAAAAASUVORK5CYII=;fontFamily=Comic Sans MS;" vertex="1" parent="1">
          <mxGeometry x="-238" y="-950" width="110.73" height="147" as="geometry" />
        </mxCell>
        <mxCell id="vKnNRoz7A6DcVykYE2kj-81" value="Event" style="text;html=1;strokeColor=none;fillColor=none;align=center;verticalAlign=middle;whiteSpace=wrap;rounded=0;fontSize=20;fontFamily=Comic Sans MS;" vertex="1" parent="1">
          <mxGeometry x="-214" y="-800" width="60" height="30" as="geometry" />
        </mxCell>
        <mxCell id="vKnNRoz7A6DcVykYE2kj-101" value="" style="rounded=0;whiteSpace=wrap;html=1;hachureGap=4;fontFamily=Comic Sans MS;fontSize=20;glass=0;fillColor=#b0e3e6;strokeColor=#0e8088;" vertex="1" parent="1">
          <mxGeometry x="-313" y="-332" width="260" height="224" as="geometry" />
        </mxCell>
        <mxCell id="vKnNRoz7A6DcVykYE2kj-91" value="" style="shape=image;verticalLabelPosition=bottom;labelBackgroundColor=default;verticalAlign=top;aspect=fixed;imageAspect=0;image=data:image/png,iVBORw0KGgoAAAANSUhEUgAAASwAAABJCAMAAACw7esaAAAC8VBMVEVHcEwAAAACAgIAAAACAgI+R1/7+/szZI4+Pj4xMTEsLCwoKCglJSUfHx8EBAQCAgIBAQEAAAAAAAAAAAAAAAABAQEBAQEBAQECAgIAAAAAAAAAAAAAAAAAAAAAAAAAAAAAAAAAAAAAAAAAAAAGBgYMDAwUFBQCAgIAAAA8aYgAAAAAAAAAAAAYGBkAAAAAAAAAAAACAgIlJSU4ODg/Pz8uLi51dXWenp7AwL/a2dnr6en19vfw7++AgIDq6uoBAQF7enqzs7P6+fiXl5dmZmYAAAC6urrm5eT////S0dD7/P39/v9HR0f2+fzw9vumpaVdXV3u8vbb5e3X4uvl7fPp7/SBobteh6hVgKNJd5xEdJpPfKB6nLehuczT3+g5OTkAAAC8zdtahKZBcZg7bZVnjq2FpL2twtPC0t5+n7k4apMwZY8tYo4vZI4zZ5EXUoErYYwoXoojW4ghWYebtckvLy9Rb4jMy8slXIlxlbLH1eGJp7/g6O9jiqofWIYyZpBpaWkAAADGxcSPq8KUr8UcVoR2mbW0yNc8PDwzaJOovtBzc3NWVlY3Nzfe3dwhISH09PSSkpJvb29tkrBsbGysrKuRkJAeHh7z8/MDAwMxZI4yZ5EyZpExZZAxZpEyZZExZpAxZpAxZpEyZpEyaJIwZZHj6/DN2uUAAAAAAAAyZpExZpA0apY2bpw4c6M5daY3cJ81bZoyZ5IyZpExZpEyZpEyaJIzapU2bZoxZZA1bJgxZpAxZpEyZpAxZpExZZAxZpEAAABCQkIyZ5EwZo0yZ5K/v78AAAAxMTEyZpEzaZUAAABWVlYZGRkyZpAFCxGPj488PDwlJSVUVFRFRUUCAgIAAADJyMdbW1tLS0sAAACAgIBSUlKxsbHy8vL////v7+82NjYGBgaHh4dXV1cqKip2dnakpKRvb28LCws6OjoAAADOzs5fX1/Q0NCpqamRkZFkZGQiIiJYWFhAQECHh4d0dHTIyMjQzstZWVmpqakqVYXVAAAA+3RSTlMADBchEgIEJlF/osDT3aSCXjAJHFqOr8vX2tHBZUBU8fv/5an/////6ghKtvX/7ohGcv///v///////////wy7///////3//////////////7//////////////////6R5///////////////////////////HHP////////////8m////////r///S/y2/+wQNf//W////xkqFj5TZksuXHeTgkUS//+d/bft////////4Kad9Mbx/4v/2MCvzDZu35nxDegzNuX6+TuzpNQFY572fMhslf/f81Bz/6tZIjZAV6ZtkKNLsejjYf99THSM1/aNMf/KXf9dKZucNogAABFtSURBVHgB5NDTAQNBGATgjW07E9u2zuy/mWMBKWC/n89D/vJ4fT6vP2B9wVA4Eo3FE4l4MpXOZAnNcvlCsVSuVGvFQr3hJbZsM1lutYF2q1Pqdjuw9fqDwaA/xKjbHBNKTaYzYNifz+dWEMCitlz51hUA/c12t9sPAAx2h+PpfLler7fL+XTfo7J+EAplnsD+9T7fPp/P7Xz6/rY9gAE2B5bjbVfhyN54hyi5V3rvUA4T6tQZyCfepqiqmwWn6YON9rE+k9yyWJMihsLoxx6WuAbXHe7O3+7uLpXqSSoNk7YK7m6vi05L1cgL5Kxiq5NrkWgsFvfiL4lkKp3JZnOpfKH491noDCnpFlxlcuQC4Kskq5lavZ7NNZqtGIDLV4B2J9c1qNmrVZuVP9tWfYlRxrglWK6fAB74ycNHesUVOboMtDKW4IxSypgUgmYHEWBYlYJRwzBMyoXMjsYITGxT/cXgdr0P4DHZopOtJ/eOPUVgYHO1gLHU9OGZlGoBZqtRAM8lm+0nib+2NmuUiTfINXgnL5QDqwG8fGEqJ9TODvGKsd7KXmTHgJ+81sbVXnLmCkYuV/RNfHrmhPO3aNNpbPWsWhwPjhx5p4usbeQaitwVQ3YfQ2moNaCij4o0p7ZEOoD35IMmrjadPvYRL4XLSO2KryrVmpjiLfr2bPviLe6QT591ycJziHSpciBGqFhqHagcoiGmZcsa4D45+kWXGesrXrnEGLyIhqXWg9cjkS6bbiZYJroUrUPkAkauLGQZX9ww1Xr0xDe8taeyUn9kHf6uh6wd5D6+uaLIyuOtUBtgtZHj6h+ygYvkiCay9hMPUlw5EC2XPzcyjYo1q1k/tElDcuwS0k5ZBiv6Mkyti2FSe4iVF6KJn9oUeHL4I3JOWbQeiCvKhJBS8DUGLd6r085v4s07rIls/eOH5nYwIAQJlhdBmrTtz89e8uz5ZWWLveHi2k0IxfLEhouNG7dXNvQmJDATh2KLAeEKFzvr3SXr9t57//eek4RxziThwa3fXcucE8T5PG/5nndGvG+zC1YWfgxKXvY2YQ30DwsLCCgymRREpkD0D6m0rLyioqK8vLLsBs9pZWJVdU0tUV1F/Tbp8uFtpd5ggUdk5S3HO3Lzly86tGFV1mIDW+j1hjU7NzSQ+R9uzNM6M3IDvhNuG4E8ZE5NVavVFgu4laDK8EN/v6qbmjneaj1itQote1rbypnN+vZWTjjiEn/0WI3Iq/z4iZPIU2rPmmXYjYt378AuZeVrGVZLGjDWPDxZgxuMFGOOfuGsFNjq9WTgodFj/vaoOsbzgu3oKXtHW1Nns00Q+GOnxc3KYzarVX+q42RNV9fJjtYWq3C8LtGNWBC8weom3XB7AQtrO84kmBq3HNyehfH+AiZDH8aNu5ev3rTk/l17clxR+P8A//bqSRIURaJMSWkJAGoF+lsVdEzgzpysd2fU4fraM7YTxwdp1bbwfGvNDWLm1XdwvNDpuq5u4b3Bmg6zafmROQesObQ8v2D3waUbcebqPEmf3Ifnry5euHDNUrzSmYYFB/Fs785hAsQEMQthSgAlug6FKKeH/sEc5I3Hq6QLN7RyLa2u6OkQOK6uBwVJs7KVP9F7wxCwwomDXy+DtRGvXFqYn/8oxnhtIxN35KSzUzdvclbh827vQA6KT0DJf7zD8pMPzgD6ruuIn/oHYTWd4GvYlTJOz1c740rgjld6ZK39REvrYd+womEubszXyiIrK5c4BN3+hh36LLxFREmW5uPthdo1+YX7XMvanAZNCpydNixYKBkgAw1fwRDzB2Gdsp27QbZkb+HbaL3ijefrkYcSj9n4Dt+wLkCJ5oE1OgbWdpeB1xqMeQc24g0GqQPD2w1aHQ2ojTSy8pfgvQAX0fBghQCEo+Hr0p8BSz7z7rIKlxHqP2WjMeepbcc5W5lPWP7j45+SeQfD2sHEzNGSo98urfbaVjFeR7cMq/BaynDzfnw3xL0yTFjZ12D5+dOn3DL5BfoHSvBcgW5mOzSsKMCLW+v38wsVPxIY2M+EkU0ePofr60mFL+e5U0HIm2p4vsMnrKBueBGvKGCtA4Elnqk1k1frpLObYrqVvwM/mk8jbT6+Hf778jBhmV1p6B89YfQkAEtMckaR+NdICp8+OlVtUceo0hT0+pVXX30Nxj1y5cqVAERlClHFWADUkeYkhPyzswOQX0Z2OgpIU3UnJEQ4G8iA849NVTqSBjnUCDa7VyYdTDFjYJ7hjpaysJgyejfNOhYWXRC9wnKxHdK0W6jPoVaUwqKXrwO8hoYJazTABRJfCQDjI6cnq2IIsOAwRNWnhLi75j5x9eobd8UBOPpR0EOxseDSKLIfaLZQXxsZ1U1+jfBTALyJwgDCTakQHxcXpySfcFBQquAJKvJrVJL7zntbbMfKezxLUy9npA7CO0dbpU9YGXAntQFsGopFPUffIE1SrW6eM//oUdvgnD7Pgbi3hgkrBCAqKDQCIGqkvzN/FOHjIaaPBkUqvP3Ou+89M2LEM++/dWs8mBH64MOxr8H4gbFjxwaQ/UiAqAFTKIk4/zengzLbQmAFjIcJkXFbX33h8ccfR6bRAMlJznT0G6sEyEZOnW4lPrS3qa6eLV037OGaadPzkYc1PmFdgLgpmmVi8Li80zoR1p5dNIakRovm4eb99CPEvk+eyGYhA4u5VpgB1H0oGMAcem2xG2L8Kca73hXXnomEeBMi+ih+vKtEhUYBhPRLS58FxqIiC0Dcx66lwG6m0aYBRLvNQF3nOeGIlT93ueNk9eke0UBwp5APldv4kz5h+SXAvYyXooMEsYjpNi1gyn/e6kzN0jynu9hM2+Y9bC9kYE0yOxyOcKccEZGu484FgOkMQjUNo2QmlaMBPqG/fho/PsAd/OBgax9NThNA/E2iW2T7bBpM8hfDqLrW3mskR0Crrbepy2kl6jlbJ/Khehtfy8Ji3c9UpmjRQcJug/joIpMZ11DTkFVIM7W4QGtoxHfBxM98wWJlUdKDdDCMN7Fmit7WBLhN2r4///wtBlYUjGO6oP84N6wvEt2BlQoJfrKZZrb0sueGyq52e6/tiPV8W5Uzsi4PEVl1LCx50Zqn00pqFp2DihVd9jgjf6kmc1kecfc78skI8F6AL0f4ghU5SqJ05333d8tPPG8CfIg+BIhIZ3hIYflPgmRZU6KwFADB7ut0gDS5S1EhD/WcrrnM88frUZWea+5B3tXF8xW+YSkg7v+kIy1tfiOd7In1S+bvCw/h9YWE4cq8wmI8F2LfQr5gJXus0aJsZldMFnqfN5fEw6SoCEd2dJIiUA5L4YEixAVLLFMZAOaRX0k00gEJXg1tf5vN1tuT2MxxvrphG8+VecJinNbOzWxk5V2bMO9nT455yzI1yw8swY2FS/HXQB8ZDh+W533TsKH16LNPr955V8nEOKD9P8NPDitbHjcuWNFiifKiAHRDWf1hj+hqNvIV9NBTh7wqsdfW3OMbFjLDQzR8pDXr+YLB+v6wzN47/cKq3LV4Q64zsL5B1wPL5HHg8VcPFu+X3//2u+8//eHL22MhUiGFVWSRf1G4DFYIqD9MlysU2QVrtaePoofDLp6jwwcvquDJ9hCw3oSSWRpJFS94niSam9sivJJilCqP+tRFeN9qakh/fOa6YAWmylc9wuaZ938itEIlsEJjYDpipJTBGgmWIq8Zxbd7LLbzLU3ocDPnPbQSW21c1VCwAsfBvaKzItLpF2Yuc4ZTTs4uvIJuMCIjhw3kuLMK3wnxP6HrgoVUkOonay+g6EtL+5kN9dgbJbBoxwxjrSHtCiYRFo09lrh/WvhYWquNnnXcbqOhUyEYOTqh8UQp1CJPWExzmUPykH16v1nnirGFRmkvFHMTNz6PZ9KKdZ2wvpIFUmg3RNJmeIUFGPuxFJYCYHq/xBlGUZ8lhYWmywYUDkoT3WDUe4TWDef1fJdr9nfek1btCcEeNDSskTBx8v2SfpijW4mzCsh1QTF9B8RDhTsx3jdfczu9pyFgqbx1oyhQX5A0lwiAD2mR/0JqHKa7zNunYAkTC7qyT4yrKEiwwFcMrD6ACAnONy0Q4cxDYU9LXRDTzZps9KBMCr3dNSmV6rSd55roEoVVh3zm4YN4f6HUTC3Eq5ZuPmCcrKEM5crJ24EX4l8Abtum+DDE7Lhx+LBQUQKoB0IH71sFEO4+NY4ZvFmTGeAqHSf+FC96g+hUAFVGet+FpGz6JaMsEE1tSLTU9SvHDEZrBrlwwi89JRhPdLpcu/O6/JjNKFS4qlMbb5PO4Hsq24wt+vPlyAWLs3d1VVxTdXV1efngjc3FDZK3G/S5BzHGq1bsx/P2FOTrPV92MJJ32GIBxqVCbEkJxF4K8pbbSuSVlgogxkxOyCPTlAAJzvsd8a8UgG7VBEdaeDBZLPnhfbr6cxyAcsItTmBhaaPBreR0akIzUABIYKH0KAI87cP0pIHgBACzn5tOG8fz9GBYW1d3sq3zTAvPn68RJ/StvCDoyaGxrqaO2nuBP2Eznj+ZSLesHG+VS3B/J/pcevtmEUb+ml1TZuzFRJkLVi0xyGnlrS7W4Fmvv3T33S/NfGrW5Nnx3tIxLcrsK+tVFnBJme3vXnvlIrFZKeTfbpTcNffX79yVcExyAsCgiw1SjM0ICRlICnPZ/mzkf9vTH0oTbGxEKjjV7ZBM+svaezmBPjekErjW2iqJ56o4do63HnHvtfS2VxDLyncSu1rZ6U3ubxQJcyQeIY/UrDsBSubeh4kmyzNRS7bxLixKE3e9r/6FjfkwOnrUGKbFUZtF9Nu376ER4qJfgCnMixMfAFKz0LRnZCet0KILSemKMLkNLas42dZkP2bvqO0q65HX+/KadrrX1F5TSQ1seStvbS5FQ2oAYu/Dz7tDS0eGxk8A0WMaXLx6Pd5BKbLzrod3560tnt+wa+X6/fPwSwCPoL9SYSpVkvxsqPirHst29JahoeUXQ0Jrnk7nDBwyWHgOAFKmYsKpULfg/mV0nZlpHcrNMRTotIYDq4vxg7F/9Vs0/TEQJb3u+1/79qCU+xYFAHxn227dPlxlm3Nb2bbtmjjZdj1BeItr28e2jdE5uT9qlNu/R9jeC+agJ0P2C3tdcdmCOAi7e9bfnC/g/IuVVp2W3KqyqhZkldTU1GJaa0NDVVnOVBb6TQKIR8j+UgdQI5tMPgAwIYfoNwOwDwlJeD9aPY044+iKK7Jyqkp6utA9mTVYg4hxi4vR4Yges3MAYiUvss+WAPRsTTq0JKV++ucTALOr5FDZALRjWF5N6xQGCe5jcExfc2JDQ3VDF3IGq6op2Ld+dDTI1zNUCACiL2XJvtM2gk1WSx3kkFkDTCKmx2C9JXyGcY2lPa2VuY0x6OIXxhysktJYN9gkqhsiB0LqY1vrf5f+tf7HRJocPl0A+4jR104CANEMIsbGxCIGRs4Fs8oAS4vDXsMKsUCk8scQOZV+04U1AiGAo8/Ma9f/nM8LwRFZg1WZhL5gqahzQ+HNhBc5tVbSnyAYe3BFHzZxB6sqG2fBYZ6cdtJnbf+RHydE4h+jT9c2mooeZ7AapnASQi+RTZSWjbHtP1efy96zw5WIPDOteB6GeVYWpc0drDS0X4mhcFBn5/xYKYvqLLSEJzKEg7Kx9MDsKkZLQbSbAF4SLuo7oRsmNGwPkw6E/Qfia4SL6lgexakGRpIVI0D4iHBRkmb/MQsDq7LRB+xeES7qty98sauGWb11Hux5n1mUtz+zIKl1EOfgf1nCg9KJxJhtVZRlZVH1IHhM+FBnLbcnYMt7inAYHC8Tij8DO4t9retLq6wnJaQTdnxlURaiUYzvqSotrWxoLUnFUUuwpwtrJz+BYyAOpuTmJuUNhmGEJVg+JjKE4mcBczO4KnDWEUB0k1A7kjYEsBv28QlwFAPA03OE2oW0LqwT3LnxllC7+85az+rTO7oKV051GOsdROGLUXF29eQAAAAASUVORK5CYII=;fontFamily=Comic Sans MS;" vertex="1" parent="1">
          <mxGeometry x="-309" y="-326" width="250.69" height="61" as="geometry" />
        </mxCell>
        <mxCell id="vKnNRoz7A6DcVykYE2kj-92" value="&lt;font style=&quot;font-size: 50px;&quot;&gt;USer&lt;/font&gt;" style="text;html=1;strokeColor=none;fillColor=none;align=center;verticalAlign=middle;whiteSpace=wrap;rounded=0;fontSize=20;fontFamily=Comic Sans MS;" vertex="1" parent="1">
          <mxGeometry x="-201" y="-219" width="37" height="20" as="geometry" />
        </mxCell>
        <mxCell id="vKnNRoz7A6DcVykYE2kj-102" value="" style="shape=image;verticalLabelPosition=bottom;labelBackgroundColor=default;verticalAlign=top;aspect=fixed;imageAspect=0;image=data:image/png,iVBORw0KGgoAAAANSUhEUgAACAAAAAgACAQAAAAYrhu7AAAABGdBTUEAALGPC/xhBQAAACBjSFJNAAB6JgAAgIQAAPoAAACA6AAAdTAAAOpgAAA6mAAAF3CculE8AAAAAmJLR0QA/4ePzL8AAIAASURBVHja7N1nvCRlnffhX/XkwMww5AxDznGAIYch5yQ5K6KImBUVdc1gRjEAKoKCiqBIRhAkiIpkRFFBVIIoSXKaU88L2X0UgelzToeq7uvazwZdmen+Vp1w/7vqrgQAAAAAAAAAAAAAAAAAAAAAAAAAAAAAAAAAAAAAAAAAAAAAAAAAAAAAAAAAAAAAAAAAAAAAAAAAAAAAAAAAAAAAAAAAAAAAAAAAAAAAAAAAAAAAAAAAAAAAAAAAAAAAAAAAAAAAAAAAAAAAoPYKCQCgtqakeMn/nJxGkiJT/u0/NSKTZvsnPZHnkySz8tiL/86TeS5J8mjKPJOnX/y/AAADAABgWEZnQqZkXMZnSiZkXCZljoxvTMjkjMiUspHJGZFJGZFJGZk5MioTu/Iqn81TL44CHs/zeTTPFU/myTyXR/P8wON5Os/kn3kyT+TxPJon80SecGABwAAAAPrL5EzNXJmSOTM5kxuTMjmTy0mZnCmZnMmZnNE9+r4feXEQ8Gj+WTyaRwcezf/+1yN5NI/mSacGABgAAEDdjMzcmSdzZ/5MzdTG1Ewtp2auTM3UTM0IeV7W83k4D+WhPFQ8lAcHHvzX//3ifw3IAwAGAADQXZOyYObLgpmnMXfmKefL3Jkn82QuYVqozN/zj/y9+Fv+MfD33J9/5B+5P//I09IAgAEAALTjZ+X8WSALZL4s1Ji3XDDzZYEskHHCdM0TuTcPFPfkgYF78kD+9d/2GgAAAwAAGJTRWSALZ+Es2Fg0C5YLZZEskFGyVN6TuScPFPfknoF78pfck3vygCgAYAAAAP/f3Fk0i2axxuLlolksC2U+Pxt7xLO5J/cUf8k9A/fkr7k7d+dxUQAwAACA/jFfpmWJLNZYtFwsi2WxTJCkbzycu3N38eeBu/On3J0/5zFJADAAAIDeMTZLZFqmNaaV07JEplnw8x8DgT8Vdw7cmTtzZ/6aWZIAYAAAAHUyIUtn6SzdWLpcKtOygJ91NOW53J07XxwH/DF/yjOSAGAAAABVMyqLZFqmNVYsV8i0LJ6GJAzbI7m9+M3AXbkrt+d3rg4AwAAAALplnqyQZRvLlctn2SxmyU9bPZs7c0fx+4E/5Pf5bR4UBAADAABorwWzwouf86+U+eWgSx7JXcXtA7/J7flN/pRSEAAMAACgFT+nFs9KWbGxUrlils8YQaiYx/K74jcDv8vtud0wAAADAAAYrDmzYlZorFiumVUyhxzUxHP5Y3H9wG9ye36d++UAwAAAAF7e2KyUVRurlqtk5UyVg5p7ILcWtw3clltye56UAwADAACYMytmzcaa5QpZyQX+9Kj7c315fa7Pb3KXGAAYAADQTxpZJms01ihXzWqZWw76yAO5qbhp4KbclD94sCAABgAA9KoRWS5rNtYo18hq7uun7z2VW4sbBv51XcDzcgBgAABA/Y3MilmjsUa5ZlbNeDngvzyTW4rrB36d6/ObvCAHAAYAANTNklm7Mb1cO6tb9kPTo4Cbi+sHrs+v8xs3CABgAABAtU3JWtmgWDPrZB4xYMiezE3F9S/eIAAABgAAVMbYrJl1i3WzdhYVA1rq/vyq/FV+mevymBgAGAAA0C2LZEZjRrlu1shoMaCtBvK74lcDP8/P89sMyAGAAQAAnTAyy2b9xgbl+pkmBnTc47mluHrgmlydR8QAwAAAgHaYM+s3Nig3yFoZIwZ03azcVlwzcG1+nrvEAMAAAIBWWCQbNtYvN8yKaYgBFfS34qqBq3NlbvXsAAAMAAAYimnZoLF+uUFWkAJq4Yn8orwmV+fqPCMGAAYAADSz8J/ZmFlumrmlgFp6PrcUlw5ck6vyqBgAGAAAYOEPvW5WbiquGbg6l+SfYgBgAACAhT/0wyDg0oFr8rM8JgaAAQAA/WipbNbYrNws80gBfeG5/Kq4fOCKXJunxQAwAACgHyz04sJ/USmgLz2ba8tLc2l+7akBAAYAAPSmObJOY2Y5M2v43g/kX08NuDSX5oaUYgAYAADQCyZkRmNmOTOrpyEG8F8eKK4cuDQX5q9SABgAAFBPo7N+Y7Nys6ydkWIAs3VbccnAxbkyz0gBYAAAQF0skS0aM8stM1kKYJCezjVuDAAwAACg6sZl/cbMcmbWlAIYpr8VPxk4N5fmESkADAAAqJLlsnWxdTbKOCmAFnoh15YX58Lc6HoAAAMAALprfNZr7FDumMWlANroH8VFA+fmkvxTCgADAAA6bdVsXWyVDTJKCqBDns2V5QU5P3+QAsAAAID2G5EZje3LXbO0FECX3FVcOnBeLsmzUgAYAADQDnNl28YO5daZQwqgAh7PxeWPc0EekgLAAACAVpmWHYrts7HL/YHKmZVflOfmx/mtFAAGAAAMXSOrZ4die4/1AyrvruK8gXNzRV6QAsAAAIDBmJitGjuW22ZuKYAa+Vtx3sCP85M8IwWAAQAAszN3dil2zaYZIwVQU08UFw6cnfPzuBQABgAAvPzSf9tij2zlTn+gJzybq8rz8r38TQoAAwAA/tfC2bbYIVtnpBRAj5mVX5Rn5qzcIwWAAQBAf1s8uxW7Zx3fjYGeVuaX5dn5Qf4kBYABAEA/Lv13KvbIer4PA33k9vLMfCd/EALAAACgP0zLDsUeWV8IwBgAAAMAgN60VPYq9s4KQgB9r8yvyjPzg/xZCgADAIDesmBeU+ydtYUA+I8xwC/LM/N9WwQCGAAA9IIp2bHYww7/AK9oINeWZ+aM/F0KAAMAgHoal5mN/cudMloKgNmalcvL0/LDPC4FgAEAQH2MyKaNA8qdM4cUAIPyTC4tz8wP8pQUAAYAANXWyMaNvcvdMlUKgCF7tDh74PRcngEpAAwAAKpopcZB5d5ZUAiAlri3OH3gtNwqBIABAEB1zJk9igOyvhAALXd7eWZOyd1CABgAAHTXiGzaOMxGfwBtNZBry1Nzhg0CAQwAALpjxcb+5cGZVwiAjnimOHfgtFyYF6QAMAAA6JQF8priwKwuBEDH3V+cOfD13CIEgAEAQHuNyZaN/cudM0oKgC66vjwt385DQgAYAAC0w4zGAeVemSIEQCU8XZw9cEp+6mGBAAYAAK0zOXsWb8yqQgBUzr3FtwdOzh+FADAAABjud8mNG68td8tYKQAqq8xV5ddzZp6WAsAAAGAo5swexZFZSQiAWnis+O7AibleCAADAIDmNbJZ47Byp4yWAqBmbi9PzUl5WAgAAwCA2VkgBxSHZZoQALX1THHuwIm5LKUUAAYAAC9nRLYpXpdtM1IKgB7w2/LknJoHhQAwAAD4d4s0XlcenIWFAOgpzxZnDXw1VwkBYAAAkCQbNN5c7uJzf4CedUf5TfsCABgAAP1tjuxtn3+AvvBMce7AF3KNEIABAED/WbZxcPn6TBECoI9cX56Y0/OEEIABAEB/GJWdiyOysRAAfemfxakDX8lvhQAMAAB62/w5sHhjFhUCoM9dU34hP8wLQgAGAAC9aM3GUeVeGSUEAEmS+8qTckL+IQRgAADQOyZkv+KIrCwEAC/xTPG9gS/l10IABgAA9bdAXl8cmalCAPCKri9PzGl5WgjAAACgrtZuvLXcPSOFAGC2/l6cOPCV3CcEYAAAUC+NbFe8OTOFAGAQni9+NPC5XCsEYAAAUA9z5JDiLVlcCACG5Pry+JzuCQGAAQBAtS3ReH35+kwRAoBhua88KcfnYSEAAwCAKlqzcVS5tzv+AWiRJ4rTBz6f3woBGAAAVMfovKZ4S9YUAoAWG8gF5WdzuRCAAQBA903OG4ojs6AQALTN9eVncqZdAQADAIDumS9vKI5yxz8AHXB/eWI+n0eFAAwAADptycaby9dlnBAAdMzjxTcHPp2/CgEYAAB0yuqNt5b7ZIQQAHTc88WPBj6V64QADAAA2v1da6vi3dlECAC6qMwl5adymRCAAQBAezSyXXFMpgsBQCXcVH4u38ksIQADAIBWGpM9i/dlGSEAqJS7yuPztTwjBGAAANAKk3Jw8e4sIAQAlfRA+dV8Lv8UAjAAABiOBRrvKA/LRCEAqLSHiy8NfDEPCgEYAAAMxXyNt5Zv9qA/AGri2eJbAx/LX4QADAAABmOxxtvKwzJWCABq5fniuwMfyx1CAAYAAM1YovGW8vUZIwQAtTSQC8oP5EYhAAMAgFezZONd5SEZKQQAtVbm/PLDuU4IwAAA4OWs1HhXuU9GCAFAj7i0PCa/kAEwAAD4d6s03lHum4YQAPSYa8pjc64MgAEAQJKsW7w/2/p+BEDPuqr8n1wmA2AAAPS39YoPZQsZAOh5V5cfzE9lAAwAgP60cuOYcg8ZAOgbbgcADACAPrRi44Pl7r4HAdCHQ4AP5VIZAAMAoD8s13iv3f4B6OshwAftCQAYAAC9brHGe8tDMlIIAPp+CPABewIABgBAr1q08f7yoIwSAgCSJJeW788vZQAMAIDeMk/j7eVRGSsEALxkCPDu3CADYAAA9Ia5Gu8sj8x4IQDgZZTFDwaOyR1CAAYAQL3NkTcWR2eyEADwKgaKswaOzp1CAAYAQD2Ny1HFuzNFCABownPFSQMfz31CAAYAQL2MzEHFh7KQEAAwCE8VXx44Ng8KARgAAHUxs/hMVpEBAIbgieKEgY/nMSEAAwCg6mYUn8xGMgDAMDxYfjqfz7NCAAYAQFUt3/ifcg8ZAKAF/lx+PCdnQAjAAAComkUa7y8PzQghAKBlbis/nDNlAAwAgOqY2nhXeVTGCgEALXdp+Z5cLwNgAAB03/gcVbw7k4UAgDYpi+8PvD9/FAIYHhfrAsMxMq8tzip29tk/ALRRkZWKwxtzl9flaTGA4XwzARgqD/sDgE56ovxMPplnhAAMAIBOWq74VLaXAQA67K/lRz0bADAAADplrsYHyjdmpBAA0BXXl+/IFTIABgBAe43OG4r/seUfAHTZpeXbcqsMwGDYBBBoXpG9inOKvWz5BwBdN614XWOB8ro8KQXQ/K/zAM2ZXnw2G8gAABXyZPlp2wICBgBAKy3c+Hi5n+8YAFBBfymPyakyAAYAwPBNyDuLd7vsHwAq7PLybblJBsAAABi6RvYrjs38QgBAxQ0U3xl4Zx4QAjAAAIZi4+L4rCIDANSEHQEAAwBgCBZsfNJd/wBQO3YEAAwAgEEYm7cXR2eCEABQS5eVb87tMgAvNUIC4CVmFucUr8loIQCgpqYVr2/MXV6bZ6UA/p0rAIB/t3TxuWwnAwD0gIfKj+SLGRACMAAAXmpC3lm8J2OEAICecX15ZK6VATAAAP79e8HuxaezqBAA0GPK4tseDwj8iz0AgGT14vvF2zNZCADoOUVWLV6b5LrMEgN8QwD629yNj5avS0MIAOhpt5Vvys9kgP7mCgDoZ428oTg7GxoFAkDPm7c4sLFk+fM8KQUYAAD9Z7Xi7OL1GScEAPSFf90M8Ex+nVIM6NdvA0A/mtA4pnyHESDU06hMTDIuY5PMkZFJ5kwyMnP8x39qRCb91z/5ZJ77j3/9aMokj+eF//v/PZOn80IeFxl62U3lGz0ZAAwAgH6xQ3FCFpEBqmR85sgcmZzJmSOTMkfmyJRMzKjMmZGZI+MyNnNkVKa8uPhvv+fyZJ7OM3kyz+XxvJB/5rk8nkfzVJ7IE3k0T+TJPJFH8kQez9MOH9RNWXx74G15UAgwAAB625LFl7K1DNB5ozN3pmZq5szUzPni//zXf0/NpFpfkPNMHs0j//bfj+bRPJKH8mAezIO2HYeqerj8cL6YASHAAADoTWPy7uLojBUC2mu+zJ15Mn/mefF/z515Ml+m9GmNfw0CHsqD+UcezIP5e+7L3/N3gwGogqvLI3KLDGAAAPSejYuvZHkZoLU/RufNfFk482XhzPvi/54vo4SZrYH8PQ/kvvw99+eBPJD7cl/uyTPCQKe9UHx54Jg8JgQYAAC9Y/7GceV+vuJhuKZmkSyaRbPIi/97fov9lvpH7stfc0/uz19yb+7NX/OEKNB+95fvyakygAEA0Asa2a/4bOYSAgZvviyRaVkii2aRLJrFMkGSDns0f86fc3f+kj/n7vzZnmXQLpeXR+S3MoABAFBvqxVfyboyQHPGZ1qWyLQsnmlZIktY8FfOky8OAu7Onbkzd7pCAFrn+eIrA+/Nk0KAAQBQTxMbHy3fVOvNxaHtRmWRTMu0rJAVMi1L+MFYM4/krtyVu/KnF/9nKQkMx53lkblQBjAAAOpnm+IrWUwG+G+LZdksk6WzTJbOYmZkPeTx/D6/zx35fX6f37s6AIbmvPJN+bMMYAAA1MecjU+Wh8kA/6uRJbJ8VsjyWSHLZQ5B+sI9+X1+nz/kd7kjd3vYOTTvqfJT+XieEwIMAIA62KM4IfPIgEX/ElnlxWX/chknSF97Or/N7bk9t+c3+ZNhAMze78sjcqkMYAAAVNsSxVeylQz0rylZOatk5aySlTJRDl51GHCbXQPglZXFNwfemYeFAAMAoJoaeW3xGWse+vHUXyarvLjst/EFg/F4bs2tuSW35NY8Jge81N/Ld+ZUGcAAAKielYuTso4M9I+RWT5rZPWskdXMvWiBP+XW3JJbc3P+6CYB+P8uL1+fP8gABgBAdYzNe4qjM1oI+mHZv2zWzBpZM6tnvBy0xRO5I7fnhlyf6/KsHPB0eVw+lueFAAMAoAo2KE7KcjLQyxpZLmtnetbOKhklBx3zTG7NjbkhN+bWPCMH/ezm8rD8SgYwAAC6a3Ljw+Wb0hCC3rRA1s70rJPpmSQGXfV8bs91uS7X5ba8IAf9aKA4eeAdeVwIMAAAumXH4qtZQAZ6zdhMz7pZO2tnETGonKdyY67Lr3Od26LpP3eXb8yFMoABANB5UxrHlofJQC+ZL+tl/czImja0oBYeya9yXX6VX+RBMegf55WH514ZwAAA6KQdiq/57J9eMS0bZL1skOX9WKKm7s/V+Xmuzo2eH0A/eLh8e06RAQwAgM7w2T89YWTWysbZMOtlihj0iMfyy1ybX+QXeVQMetvF5evzZxnAAABot22KE7OwDNTX6EzPxtko62eCGPSogfw2V+eaXGWFRO96qvxwPuWiFzAAANpncuM4n/1TVyOzamZm/WxkR3/6iJsD6GlXl4fm9zKAAQDQDj77p6YL/7WyeTbLjIwVg771cK7J1bk6v87zYtBLni7/J5/OLCHAAABoJZ/9U0PTMjObZ2bmlAJe9FR+nmtyTa7Mc2LQK64tD81vZQADAKBVti5O8tk/9TF/Nszm2SaLSAGv4MlcaxBA73imPDYfc3kLGAAAw+ezf2pjQjbNVtkiy0gBTXosV+aKXJGb7BFA3d1cHpIbZAADAGA4ti1OzEIyUHXTMjPbZ6a7/GGIHspPc1kuzV1SUF/PlR/LJ1wHAAYAwNBMaHymPMzXKZU+SbNZtsvWWVQKaIm7cmkuy0/zkBTU003lAblVBjAAAAZr7eI0V1JTXatn22yddTJSCmi5gdyQS3NZrskzYlA3z5cfz0c8FwAMAIDmjczbi49klBBUz9hskO2ziw3+oAOezjW5LJfmeimol1+WB+YOGcAAAGjGcsVpWUsGqmaebJPtsnXmkAI67F83Blycx6SgLp4u/yefsrclGAAAs/uqfF3x2UwQgipZMdtn+6znhwZ01Qv5Zc7LpbkhpRjUwTXlQfmjDGAAALyS+YuTs50MVMWobJyds3MWlAIq5C85P+fn8jwtBVX3WPnOnGRiBQYAwMvZo/hK5pKBKhiXmdkuO2deKaCins41OT9n569SUG0Xl4fmXhnAAAD4d5Mbx5WHyUD3zZmZ2T47u9MfauL2nJvLckVekIKqerR8d06UAQwAgP81s/hmFpaB7logO2fnbOLxE1BD/8gFOS8X5UkpqOai43sDR+QhHcAAABjb+FD5zjSEoHvmynbZPVtnpBRQa8/k6pyfM3OfFFTPA+UhuUAGMACA/rZacXqWlwFLf6BVBnJjzsv381spqJay+MLA0XlGCDAAgH79Cnxd8fmME4JumJrts3u2csE/9Ky7cl5+kJ97FDtVcnu5b26SAQwAoP/MU3wj28tAN5b+u2ePbJIRUkAfuCc/zNm5OrOkoBqeLT+YT5lLgQEA9JfNi1M9XJ1OG5stsl92ymgpoM88lAvyg1yc56SgCi4rD/RoQDAAgH4xMu8vjrHtH500IjOyX/b2cD/oa4/kvPwgl+RZKei2R8s35gwZwAAAet/ixemZIQOd+0a/bvbOazKvFECS5J85N2fnInux0e2fT6cNHJHHdQADAOhlBxQnZKIMdMay2Tf7ZJoQwMuMAc7JmfmJmwLoprvL/XO1DGAAAL1pcuMr5d4y0JGTLTtlv2zu2zzwqh7NuflBLsrzUtAdL5QfzcfyghBgAAC9ZnpxepaSgXYbkU2zf3bLeCmAJj2c8/ODXGgVRnf8qtw7d8kABgDQS19rby4+5YHrtNsqOSD7ZH4hgCG4P2fmu/mFEHTeP8vD810ZwAAAesN8xbeylQy007zZOwdkdSGAYfpjTs8ZuUMIOr0sOW3g8DylAxgAQN1tX5ySuWSgXRrZLK/LThktBdAyt+e0nJr7haCTbi33yu0ygAEA1NfIvL84Jg0haI8Fs38OyxJCAG0wkGtzWr6bx6SgU54p35MvyAAGAFBPCxffzfoy0A6jskMOzVamS0CbPZ1z8+1cZINAOuXs8rV5RAYwAIC6mVl8O/PJQOstnUNykJML6KCH84N82wPb6Yy/lPvkGhnAAADqw6X/tMWk7JqDsqFv3kBX3JJTc3r+JgTt9kL5sXw4A0KAAQDUwcLFGdlABlppRDbN/tklE6UAumogP823c1aelIL2urzcL/fJAAYAUHXbFqfa9Z9WWiv7Zi+X/AMV8mi+n1PyCyFopwfKfXOZDGAAANXl0n9aauHslgOzmhBAJf0u38opeUAI2qUsjht4X2YJAQYAUMnVmkv/aZXJ2Sm7Z5uMkAKotFm5PCflh54SQLtcXu5j4wkwAIDq2bz4jqu0Gb5/3e2/ayZIAdTG/Tk1X88fhaAd/l7um0tlAAMAqA6X/tMSK+eQ7JN5hABqqMyV+UZ+kKeloNVmlR/1VAAwAICqWLD4nkv/GZ5J2Tn7ZaYQQM39M9/LV3KzELTaBeUBeUgGMACAbtuw+F4WkIGhWzOvyz4e8Af0kOtzUr7jUYG01j3lXrlGBjAAgG46rPhSRsnA0MyZPfLGrCIE0INcC0DLvVC+P8elFAIMAKAbJjZOLveUgaFoZLO8LjtltBRAT7s+J+XbeUoIWuXH5UF5RAYwAIBOW644KyvIwOAtkYNycBYWAugTD+eUfC1/EILWuKvcIzfIAAYA0Ek7FqdmsgwMzqjsktdmMw+MAPpOmZ/kKzkvs6Rg+J4t35STZQADAOiMETmm+ICvHwZngRyQN2YRIYA+dl9Oywm5RwiGv4w5beD1njkJBgDQfnMXZ3haG4OzQY7MznaLBEjyXM7JSblUCIbrhnK33C0DGABAO61V/CCLyUCzpuSgHJ5lhAD4Dzflqx4UyHA9WO6Tn8gABgDQLocVX7RtO81aI4dl30wQAuBlPZZT8nkf4TIcs8qP5sMZEAIMAKDVxjZOKA+RgWaMyY55nTtFAGZrIBfk+Fzm0e4M3bnlAXlUBjAAgFZasjgrq8rA7E3L63JI5hECoGl35Ks5KU8JwRBPoHLX3C4DGABAq2xZfDdzysDsbJ6jsq2H/AEMwYM5KV/xhACG5onytfmeDGAAAK1wWHFCRsrAqxmTfXJUVhECYBiezw/z+fxCCIaysDlx4E15XgcwAIDhGNc4qdxXBl7NvDk4b8pCQgC0xPX5Yk7PC0IwWJeXr8mDMoABAAzVQsXZWVsGXtkyeWNel3FCALTUn3JivmZnNwbrnnKX/FoGMACAoVivOCvzy8ArfQPdPG/Odr6RArTJYzkln81fhGAwnikPy2kygAEADNZhxRczWgZezti8Ju/KCkIAtNmsXJiP2xWAwSiL4wbel1lCgAEANGtk46Plu2Xg5SycI/K6TBUCoGOuyKdzYUohaNZF5d7uIAEDAGjO3MX3s6kM/LeV8s7slVFCAHTcrfl0vmuTd5r1h3Ln3C4DGADA7KxW/DCLy8BLbZB3ueMfoKv+lq/l8/mnEDTj8fKA/EgGMACAV7Nn8Y2Ml4H//Fa5fd6V9YUAqIDHckqOy31CMHtlcdzAezMgBBgAwMt/RXyw+ICvC/7dqOydd2ZFIQAq5Nl8Px/PHUIw+1/uzhw4OE/qAAYA8FJTitOzjQz8fxPy2rw1iwoBUEGz8oN8MjcLwezcXO6SP8kABgDw76YV53qqG//f3Dkib8pcQgBU2qX5UH4uA6/uoXL3XCEDGADA/1qv+GHmlYF/WSxvzaGZIARALVyT43KehwTyap4rX59TZAADAEiSvYpvZqwMJMmyOTp7e9AfQM1cl0/kHEMAXm3hc/zAW20IiAEA+Cr4YPFBGUiS5fOe7J2RQgDU0m/yqZyeF4TglVxY7pXHZMAAAPrXhOK07CIDyUp5X/ZIQwiAWrszx+bUPCcEL+/Wcof8WQYMAKA/LVick7VkYKW8M/tkhBAAPeEv+Vy+lmeE4OU8WO6aq2TAAAD6z6rFuVlEhn63ct6RfX3yD9Bj/prP5sQ8LQT/7dnysJwqA/3JB170r12L8zO3DP1t1Ryf47OqWShAz5mcrfPajMwN9gTgpUYWOzfGlT+1ZyT9yG+99Kujis/60Le/rZajs7tvggA97u/5XL6Yp4Tgpc4qD3BiYAAA/WBM48TyABn62fp5f7aSAaBP/C2fylfdDsBLXV/ulHtlwAAAettcxVnZWIb+tXLenz1kAOgz/8hnc7whAP/p/nL73CADBgDQu1Yozs00GfrV8vmQy/4B+tY9+Uy+mmeF4P97vNwzF8pA/7AJIP1l/eLiLCRDf1osx+akrGT5D9C3JmXrHJCncnMGxOBfxhR75aFcJwQGANB79ih+mEky9KOF8+GcknXs+wjQ9yZn++yfp3OTLeD5l0axbWNqeYkTgv7gozD6h33/+9TceXvenHFCAPBvfptj853MEoJ/Obvc3zMBMACAXjGi8aXycBn6z5S8PUdlohAAvIxb8v6cJwP/8styx/xdBgwAoP4mFt/NdjL0mwl5U96VOYUA4FX8Iu/L5TKQJH8qt83vZMAAAOptgeK8rCFDfxmTw/OezCcEAE24MO/PjTKQPFLumitkwAAA6mul4vwsKkN/fVvbPZ/wrEcABqHMD3JMfi8Ez5WH5tsy0Ls8BYDetnlxsY+B+8t6OSNvc+E/AINSZMW8MSvm+jwqRp+vjopdUuRnQmAAAPVzUPG9jJehf6yUb+QTWUQIAIY4BHh9puSGPC1GX58IxSaNhcsLMiAFvfmdDnrVu4tPOMP7x4L5QA410wRg2J7IZ3KcIUC/+0m5Wx6XAQMAqIeRjRPKw2ToFxPyprw3cwgBQIvcm4/k65klRD+7rtzeYwExAIA6mFh8P9vI0B9G5eB8KPMLAUCL/TYfypky9LO7yq3zBxkwAIBqm7+4MKvJ0B9m5nNZUQYA2uTavDtXy9C/Hii3y/Uy0EsaEtBjphVXWf73h3VyRS6x/AegjWbkyvw4SwnRr+YrfuaqUnqLHbPoLWsVP7UJfD9YPF/LZ7OYEAC03TJ5febOdbYF7E+jiz1zf24QAgMAqJ7NigsyVYZeNz7vzelZVQgAOvYL8zo5LMn1eUGM/tModkiRK4TAAACqZbfirEyQobcV2SPnZKeMkgKAjhqbmdk/D+cWKfrw149ik8Y85UUppaAXfpuG3nBk8Xl7WvS6tfL5rCcDAF30y7w9P5ehH/2o3Md9INSfBRO9oGh8sjje2dzbFsxX8wvLfwC6bJ1cle9lCSH6z87FxZkiA7VfOElA7Y1ofKV8nQy9bFzenPdmDiEAqIinc3w+kceE6De/KbfKvTJgAADdM6Y4PbvK0MvfpPbIsfb7B6By/pb35VsZEKK//KncMn+UAQMA6I45ix9nAxl61+r5XDaSAYCKuiFvzVUy9Je/ldvkJhmoK3dNU2cLFldY/veueXNSrrP8B6DC1sgV+XYWFqKfzF9c7vdP6stjAKmv5YsrsowMvamR/fOjbOAiJQAqrsjKeX3myC/znBj9YmyxV27KH4TAAAA6Z93isswvQ29aI2flTRkvBAC1MCobZP88lFuk6JtDXrwmd+ZWITAAgM7YpLjAg1h605z5ZE7MIkIAUCuTsnO2zm22iO+bVVSxax7PtUJgAADtt31xTibI0HsaeW1+lE1tTgJALS2cgzN/fpGnpegHRbFVY1x5qRAYAEB77VOckTEy9J7V8oO8wYX/ANRYI9PzujybX6cUox9s0Ji3vMjBpk7ssEXdHF6c4APi3jMlH8oRJpIA9IgbcqSrw/tlOXXGwIF5XgcMAKAd3lt8TITe+za0f47NfEIA0EPKfDvvzN+F6Afnl3u47wMDAGj52dr4ZPkuGXrNKvmSh+kC0JMezf/kS5klRO+7stw+j8uAAQC0cvn/+fLNMvSWiflw3pSRQgDQs27Mm3ONDL3v1+XWeUgGDACgNUY0vl4eKENv2T5fyqIyANDjynwr784/hOh1N5ZbOcwYAEArjCnOyC4y9JL5c2z2lwGAPuFmgL7wu3KL3CMDBgAwPBOKH2WmDL30bWf/fCZzCQFAX7k+b8x1MvS2u8uZuVMGDABg6OYszs8MGXrHUvlqNpMBgD70Qr6cD+QxIXrZ/eUW+Y0MVJfnqVNt8xdXWP73jlF5d261/AegT43Mm/PbHCBEL1ug+GlWlYHqcgUAVbZYcVmWlKFXrJ+vZQUZAOh7l+eI/E6G3vVwubW7PagqVwBQ5eX/Ty3/e8WUfDVXWv4DQJJNc0OOyWghetXU4vJsLgPV5AoAqmrp4qdZWIbesENOcDAB4D/8IW/IT2XoVU+Vu+ZiGageVwBQTcsWl1sx9oZF8uOc42ACwEssnUvy5UwRojeNL36cnWSgekZIQAUtX/w0C8rQC/bIeXbCAYCXVWStHJh/5GYpenKdVeya39jsgep934GqWa34SeaWof4Wy4nZQgYAmI3z86b8WYZe9Hy5d86SgSpxBQBVs4blfy8oclh+mOWFAIDZWiaHZVZ+kVKKnltrFbvlrtwiBFX6LR2qZK3i4kyVoe4Wz0k2vwWAQbkur89NMvSeWeXBOU0GqsIVAFTJ+sUl9sKpuyKH5ewsJwQADMpCOTTjc01ekKK3NIod82cbPVCd39WhKjYqzsscMtTbEjkpm8kAAEP0xxyWK2ToNQPla/NNGagCVwBQFZtY/tfdv+77X1YIABiyqTkgC+ZneU6KnvolqdgxD+Y6ITAAgH/Zujg342WosyXygxyZ0UIAwPDWilkze+e3uVOK3hoBbJOH8yshMACAZLvi7IyVoc6/qvjsHwBaZ0r2ywq5PE9L0UsjgK3zaH4pBAYA9Ltdix9kjAz1tUR+lCN89g8ALbViDsif8lshemkEsFUeyy+EwACAfrZt8X1rxzo7ND/M0jIAQMtNzGuyYn6WJ6XopRHA07lGCAwA6FfbFD/06X99zZNv510OIAC0zQo5NI/meiF6ZwYw014AGADQr7Yufuje//raJhdkugwA0Fbjsn1WyM/ylBQ9MgEotvZEAAwA6EdbFT+y/K+rOXJ8Puu5jQDQESvmoNyd24XolRHANvmHEQAGAPSXLYtzLP/rakYuzBYyAEDHTMgergPopRHAtnkgvxYCAwD6xRbFjy3/62lUjsk3M7cQANBhK+ZAzwXonRHAdrnf5g4YANAfNirOzXgZ6miVXJg90xACALpgQl6TZXNFnpaiN0YAf8otQmAAQK/bsLggE2Wo4c+pHJXvZSEhAKCLVsqB+UPuEKIXRgA75i4jAAwA6G0bFBda/tfREvlRDstIIQCgyyZmryyYn+U5KequUeyUP+ZWIeicQgI6av3iIsv/Oto9X8ucMgBAZdydQ3KFDPU3q9wv35WBTnEFAJ20geV/HY3Lp/PpjBMCACpkSg7I1FyeWVLUW6PYKbfmd0LQGa4AoHNmFBd7cHz9rJnTs7QMAFBJt+eA3CBD3T1f7pLzZaATbOZNp6xbXGT5XzdFjso1lv8AUFkr5Bf5REYJUW+jijOzqQx05vd76IRVisszVYZ6mT+nZEsZAKDyfpED8kcZ6u2pcutcJQPt5goAOmGZ4hLL/7qZmest/wGgFtbNzTlKhnobX5ybNWXAAID6W7K4PPPJUCej8sFclAWEAICaGJfP5azMLUSdTS4uyooy0F5uAaDdFi6uzBIy1MmyOT2rywAAtfNAXmsvuZofwnLj3CED7eMKANprnuISy/96OSDXWf4DQC3Nlx/nqxkvRI0PYfGTLC4D7eMKANppSvFTa8laHbB8Na+RAQBq7bbsm1tlqK8/lhvlfhloD1cA0D6Tikss/+tkjVxn+Q8AtbdSfpV3+zW/vpYqLslcMmAAQL2MK36c6TLUx5tyTZaUAQB6wJh8Ihfazre+ViouzZwy0A5uAaA9Rhc/zLYy1MUc+Vr2kgEAeso/cmjOk6Guri23zBMy0GojJKANRhVnZgcZ6mK1XJqNZACAHjMhe2VqLs8sKepokWJ6vu/g0WpuAaANZ1XjlOwkQ10ckKuzlAwA0IOKvDm/zkpC1NMWxXczUgZayxUAtPwnTeOr5UEy1MPEfCPHZJQQANCz5s1BeTK/FKKOlmssVp4jAwYAVFjjU+WRKtTD8rkom8sAAD1uVLbOSrk0z0hRP6s1xpaXyoABAFVd/n+4PFqFejggP8rCMgBAX1ghe+XX+asQ9bNBnsrPZcAAgCp6Y44VoQ7G58R8KKOFAIC+MSX753kryRoqZube3KADLTqfJKBl9ilOs61kHSyb72dlGQCgD12W/fM3GepmVrl3zpQBAwCqZIviPB8p18FeOTETZQCAPnVv9s2VMtTNc+WOuVgGhs8tALTGOsUFGSdD1Y3Mx/LZjBECAPrWpOyfRq5KKUWtVm3FrrnCJg4MnysAaIWVip9lqgxVN3fOsOs/AJDk8uyX+2Wol4fKjXK7DBgA0G1LFNdkARmqbo2clcVkAACSJH/PAblEhnq5t9wgd8vAcNiyjeGar7jE8r/6DshVlv8AwP+ZNxfmE+4HrpeFiosyjwwMhysAGJ5JxeVZQ4ZqG5sv5lAZAID/8tPsmwdkqJNfl5vmCRkwAKAbxhUXZSMZqm3hnJl1ZAAAXtbfs28uk6FOLiu3zXMyMDSu+mEYZ09xRraWodo2yiVZVgYA4BVMyD6eClAv0xrTyh/KgAEAnVU0Tsy+MlTbYTkjk2QAAF5FI5tk9VycZ6Soi1Uao0uXbWAAQEd/VHyqfJMKVTYxp+XdvsQBgCYsm73y89wnRF1smEfzSxkwAKBT3pMPiFBly+Qn2UQGAKBJU7JfHsiNQtREsWVuz+06MOgzRwKGYJ/i286dKtsqZ2SKDADAIJ2WN+QpGerhuXK7XCoDBgC026bFRRktQ3W9PZ90cQ8AMCQ3Z4/8UYZ6eKzcKDfLgAEA7bRycVUmy1BVY/LlHCwDADD0VWUOjk3ma+K+cr38WQaa52NCBmfh4vLMK0NVzZMfZ2cZAIBhGJPXZFwu92DAOpij2DLfzdNC0CxXADAYU4trspwMVbVafpRFZQAAWuDC7JdHZKiDX5ab50kZaE5DApo2tjjH8r+69szVlv8AQItskxuzlgx1sE5xmlUdzXILAM1qFKdnaxmqqcgHc7ydGQGAFpqc/XNfbhKi+pZvTC4vlgEDAFq5/v9cDlGhmibmuznc/TwAQIuNzE5ZIBdnQIqqWzeP5JcyMHvWDDTnHcWnRKimJfOjrCgDANAmV2fP3C9D1Q2Uu3t4AwYAtMaexenuLKqmjXJm5pEBAGij+7Kbj5er7+lys/xCBl6dRR2zt3HxLWdKNb0pl1r+AwBttmAuzwEyVN244twsJQOvzhUAzM4KxdWZU4bqGZHP5M0yAAAdcmKOzPMyVNtvy/U9vREDAIZuweJaz5aroon5TnaQAQDooCvzmvxdhoofpHLLPCsDr8SF3byaycVFlv9VtGCusPwHADpso1yXNWWo+EFqnOxDXl6ZxwDyykYW52SGDNWzai7LcjIAAB03OfvkD7ldiCpbpdEoL5cBAwAGqfGl7KlC9WyT8238BwB0yejsnnG5PKUU1bVxHsivZeDluDyEV/LO4jgRqudtOc6dOwBAl52TA/K4DNX1fLl9LpEBAwCatWtxpnVm1YzI53OEDABABdyanfMnGarrn+V67tXAAIDmrFn8LBNkqJaJOSPbyQAAVMRD2SNXyFBdd5freGgDL+UzXv7bQsU5lv+VOyi50vIfAKiQuXJRDpahuhYvzs4YGfhPNgHkpeYoLsvSMlTL2vlplpIBAKjYUmKnzJmf2BCwqhZtLFr+SAYMAHiVM6I4MxvKUC275UeZUwYAoILWyZo5P88KUU2r5rlcLQP/n1sA+M8T4gvZXoVqeXO+l/EyAAAVtV1+lWVlqKjiY9lLBf7tjJCAf/O24jMiVOsL9AP5oAwAQMU9nD1yuQzV9HS5SX4lAwYAvNR2xTluCqmS0flm9pYBAKiB5/KGfFOGarq/XCd/lQEDAP7dGsWV9v6vkok5M1vJAADUxvF5WwZkqKIbyw3zpAzYBJD/tWBxWeaWoToWyKXZQAYAoEbWyYo5P88LUcFfLYvlc6bHNWAAwL/MUVyWZWSojhVyuc10AIAa/g6zec7zUXMVLd8YXV4mAwYAJI3i+9lYhupYNxdnARkAgBpaOHvl8vxNiOrZMPflBhn6fuknAY2PZ0cVqmOXuBsDAKjzCOBn2U6GCipOyEYq9P1ZIEHf26P4nvOgOo7M58zlAICam5W35AQZqueBcrrnAfQ3twD0uzWKH2e0DNVQ5Nh8xDQGAKi9RrbN+PzUrnNVM7HYJKfZp9EAgH61QPHTzCVDNYzOt3K4DABAj1g/K+fcvCBE1X7/XzY/kMEAgH40trg4y8tQDRNzTnaSAQDoIctnk/w4TwtRLSvkqVwjQ79ytXEfH/vGaeW+MlTDnDk368kAAPScO7Nt/iBDtQyUO+U8GfqT3cb613ss/6ti/lxu+Q8A9KQl8/OsL0PF1oDF6VlRhv7kCoB+tU1xrhtAqmGJXJylZAAAetZT2Sc/lqFafl+uk0dl6D+WgP1p+eLCjJOhClbMT7OYDABADxuVPfJwrhOiSuYq1szpHtNgAEA/mFr8NAvKUAXr5JLMJwMA0OMa2TZz5hLrzSpZsjGu/IkMBgD0ulHFuVlThirYNudlsgwAQF9YJ8vkvMwSojrWz19zowz9xR4AfafxldLD5ith75ySUTIAAH3k8uyaf8pQHc+UG+dXMhgA0LuOKL4kQhW8IV/0EA4AoO/clm1yrwzVcU+5Vh6QwQCA3rRpcUlGytB9784nRAAA+tLd2SZ3yFAdPytn5gUZ+oU9APrJIsVPMocM3VbkuHxABgCgT03JPrk6fxWiKhZvTCovlsEAgF4ztrgoS8vQbSPz9bxRBgCgj43La3Jj/ihEVaybu3OzDP3BTcj9c6hPyHQVum10Ts+BMgAAfW5ifpxDZaiM4itZQwUDAHrJEeUhInR/+f/d7C4DAEBG5sR8UIaqGFecnbll6AduAegPM4ozHOtuG59zsp0MAABJkiKbZFJ+IkQ1TClWz+kphTAAoP7mLy7NnDJ014T8ODNlAAD4NzOyZM7LgBBVsGSjUV4ugwEAdTeqOC8rydBdU3JRNpIBAOAlVsnq+ZGn0FXDhrktv5WhtxUS9LrGV8vXq9Bdc+YiOzACALyCn2Xn/FOGKni8XDe3y2AAQH0dUHxLhO6aL5dkZRkAAF7RDdk2f5ehCu4o185jMhgAUE+rF9dknAzdtEB+khVkAAB4VXdly9wlQxWcU+5iM8DeZQ+AXjZvcXnmkqGbFsvlWVYGAIDZmDN75CeuAqiC5fJUrpGhV7kCoHeNLH6STWTopmVyaRaWAQCgKQ9n+/xChu6bVW6dS2XoTQ0JevbQfsbyv7tWzBWW/wAATZuai7OpDN03ovh2FpTBAIA62ad8swjdtHouz/wyAAAMwhw5P9vJ0H3zFadnpAy9yB4AvWml4scZJUP3rJafZG4ZAAAGaWT2yB2eRNd9izdGlZfJYABAHUwsLnHRTjetmkvtvggAMMQFyq65NzcK0W0b5Ob8TgYDACqv8Y1spkI3l/8+/QcAGMZvs9khj9kOsNuKYqucmUeEMACg2o7Ku0Sw/AcAqPHaM1ulzM+E6K5xxSb5Vl4QwgCA6lq7OMNRtfwHAKi7TTI2bkLvsvkbU8vzZTAAoKqmFj9x83n3rJJLLf8BAFpkg8ybi1IK0U3T86fcLIMBAFXUKM7KWjJ0y8q5NPPIAADQwtXnQrnACKCrii1zTv6hQ88sGSXoIe/P1iJ0y/K52PIfAKDFDs23PZC+uyYUZ2eSDL3CFQC9Y/PiZAOdblkuP838MgAAtNxKWS7nZECI7pmrsXh5lgwGAFTJ/MUlJnOW/wAAvWfFrJ6zM0uI7lk59+d6GXpBIUFPGFn8NBvKYPkPANCbLsxueUaG7nmmXNdmgL3AJeO9cRg/afnfLSvmCst/AIA22yZnZ5wM3TO2+H7mkKH+3ALQC3bI8a7l6I6lfPoPANCh37s2yFl5Tohumasxf3mODAYAdNuSxYXGod2xaC7LIjIAAHTE4tkwPzAC6J7V8ye3AdSdz43rbmzx86wuQzcslJ9lmgwAAB3082ybx2TolifKtXKHDHVmD4C6H8DPWv53xzy52PIfAKDD1stlmVOGbplYnOnaYwMAumfX8g0idMOUXJgVZAAA6Lg1c56nX3fPyo1Pi1BnbgGos0WKmzJVhs6blJ9kugwAAF1ybbZxI0DXlPvkDBUMAOi0kcXPsp4MnTc+F2QjGQAAjAD60z/LNXKXDPXkFoD6HrqPWv53w+icafkPANBlM3KhGwG6ZXLxvYyWoZ48BrCuNs3XXL/ReaNyVraTAQCg6xbJRjnTQwG7Y8HG+PISGerIErKe5i9uynwydNqIfDt7ygAAUBE/zzZ5XIZuKMsdcr4M9eMWgFoeteJUy//OK/JVy38AgApZLxdmDhm68qtx8c0sIIMBAJ1wdLYQofPL/6/kUBkAoI89L0ElRwDnZYIM3TBPcYrryevHHgD1s07xLcet8z6VI0UAgD72u9yUpWSooMWybs7MC0J03pJ5LNfKUC9mNnUzZ3FDFpeh096bj4oAAH3sjHw9F/sMprJ+kp3yjAyd92w5IzfKYABA+w7YD7OzCp12YL7hSwUA+tYLOSafz6+zohQVdlF2ybMydN4fyjXyhAz1YQ+AejnS8r/zds5Jlv8A0LfuyyY5NsdY/lfc1vlORsrQeUs3Pi1CnVjX1MnKxS8zTobO2jQXZIwMANCnrspeuT+r5lcZJUbl/SD72AugC8o9830VDABotYnF9VlGhs6anks9WgYA+taJOTLPZ2SuzZpi1MK3cmgGZOi0h8tVc48M9eAWgPocquMt/ztt6fzY8h8A+tQT2SuH5/kk77H8r40Dc6JPODtvavEdO2TWhQNVF7vkkyJ01iK5IgvKAAB96ffZKpcnSZbLt91bXiOrZ85cJEOnLZZncrUMBgC0ykLFBRkvQyfNncuypAwA0Jd+nO3y1yRJI2dnmiC1sk5G5acydFixcX7iNoA6cAtALY5S8a3MJUMnjc85WV4GAOhDs3J0dsk/X/xXb8n6ktTOe/MeETptZPGdTJKh+lwBUAdvKw4XoZNG54fZRAYA6EMPZtec9n//aol8L6NFqaHN81h+IUNnzdmYr/yxDAYADNeKxXfdeNbZL4rvZEcZAKAP/Tpb5Mb/+1dFvpflRKmpLXPvvx1LOmL1/Ca3y1BtbgGourHF6RkrQyd9OXuIAAB96MRskD//278+PDNFqa0iX8kuMnS6+lcyvwoGAAznAH0qq6jQSR/K60QAgL7zTF6bw/Pcv/07C+VjstTayJyRbWTorLmLUzyHsdrcAlBtW+Z4X0KddGg+IwIA9J0/Zsv/enTcaVlVmNovdXbJ1f9xVQdtt1Tuy/UyVJfFZZXNXdySBWTonG3zI9stAEDfOT8H5JGX/HsH5pvC9ITHsrn1aGc9Wa6R38tQVW4BqLDi65b/nTQ937P8B4A+U+bY7PRfy//5XRPYMyblAls5dtaE4hTXmRsAMHiH24q+k6blx5kgAwD0lYeybY7OwH/9+1/KVHF6xjy5JIvJ0EkzcrQIVeUWgKpaqrgxE2XolLlzVZaVAQD6yo3ZPX96mX9/j3xPnB7zh2yYv8vQOS+U6+U6GQwAaNao4uqsLUOnjMulmSEDAPSVU/OGPP0y//5cuS3zydNzrsvmeUKGzvltuebLfoHRZW4BqOZh+Yjlf+eMyHcs/wGgrzyb1+egV1idfN7yvydNz48yRobOWb7xCRGqyBUAVbRB8TOjmc75Yo4QAQD6yF/zmvzyFf5/2+Y8gXrWj7JHZsnQKWW5ZS6VwQCA2ZlQ3JwlZeiUY/I/IgBAH7k8e7/i3eCTcmsWkaiHfS1vEKFz7ilX+a9HbNBlHtBQOY3js6UKnbJvvmAKBgB9o8xxOfhV7gQ/PpuK1NPWyohcLkOnTGosWP5QBgMAXs1MK9LO2Szfz0gZAKBPPJZ986WUr/j/3zSf92tYz9soj+daGTpl1dya38pQJb7HVcvk4pYsKkNnrJ4rMocMANAnbs7uufNV/v/j4y7M/jCQ/XOGDJ3yj3IlT2CsElvNVetwfNHyv1MWzI8s/wGgb3wn67/q8j/5mOV/3yyATnHHbefM0/i8CFXiCoAq2bE4R4TOGJ/LM10GAOgLL+SYHDub/8y6ucq9sX3k8WySG2XokPI1OVMFAwBeau7iNo+d7YxGzspOMgBAX7g3r5ntPd9jcn1WkKqv3J/1c7cMnfFguVIekKEqKyEqoviK5X+nfMryHwD6xJWZ3sSWbx+0/O87C+SSzCtDZ8xdfE2Eyqw6JaiI/YrTROiMQ3OSCADQB8ocn3fl+dn+51bLLzNKrj70q2yeJ2XozFfj3vmuCgYA/K8Fi1szVYZO2DLnefQfAPSBx/Papm48HplfZA25+tT52SUvyNAJD5Ur5W8ydJ9bAKqgKE62/O+MFfJdy38A6AO/zTpN7jv2Hsv/PrZdvixCZ8xVnChCFdjstApeX7xVhE6YO5dmQRkAoOedm+1zb1P/yeXybR8O9LU1UuZnMnTCsrkzt8jQbW4B6L4lips9kL4TxuayzJABAHrcrHwkH81AU//ZRq7MepL1vTfmqyJ0wqPlyrlHhu5yC0DXj0DxTcv/TihysuU/APS8h7JdPtzk8j95m+U/Sb6QLUTohCmFSYsBQN97czYWoRM+kn1EAIAed1PWziVN/6eXyAclI8monJlVZeiE7bKfCN3lFoDuWqK4JRNlaL8D800RAKDHnZ7D8tQgfg2+JJuLxovuzQxXp3fCQ+WKeUCG7nEFQDcVxYmW/52wUb4mAgD0tBdydPYbxPI/eYPlP/9moZzjF/NOmKtxvAhdXYJK0EVvKDx3pAMWy68yjwwA0MP+kb1y+aD+iUVzq22YeIkLs1NekKHtyt1ytgoGAP1noeK2TJGh3Sbm6qwiAwD0sF9n9/xlkP/MBdlaOP7LyTlMhPb7W7lCHpGhO0ZI0C3Ft+010oHKOTWbyQAAPezE7JGHB/nPHJS3C8fLWCNP5xoZ2m1iY57yxzJ0a31EdxxYnCJC+30oHxABAHrWszkyJw/6n5o/t2WqeLysgeyT78vQduVWg3hgBwYAtTd/8Rs/d9pv15zpFAeAnnVPds+vhvDP/SC7iscreiab51oZ2u3P5Up5QobO8xSArii+ZPnffqvmW5b/ANCzrsz0IS3/97T851WNzTlZUoZ2W6zxURG6shKVoAv2KFxX1HZz5ZeZJgMA9KgTc2SeH9JvCLdlPvmYjduzfv4pQ3sNlBvnahk6zRUAXViZFl8Uod1G5QeW/wDQo57IXjl8SMv/5AuW/zRhhXw3I2Vo80q0ODljZeg0TwHo/Jl+Umao0G4nZDcRAKAn/TFb5fIh/rPb5RMC0pSlMjkXydBeczeK8qcydJZbADptu+I8EdrtyHxBBADoSRdk/yE/QHxSbsvCEjKI3ylPEKG9ni/Xzk0yGAD0rknFbVlEhvbaMD/JaBkAoOeUOS7vy8CQ//kT81oRGYRZ2SU+u2uzX5frZpYMnWMPgM7m/rTlf7stnrMs/wGgBz2W3XL0MJb/m+ZQERmUEflOVpahvdbKESJ0kisAOmnT4jLF22uO/DwrygAAPed32S2/HcY/Pz43e7QbQ/CnrJt/yNBOT5Yr5W4ZOsUVAJ0zrjjJ8r+9ipxs+Q8APeh7mT6s5X/yCct/hmSJ/DBjZGinCYXtuwwAejL1B/zcabd3Zw8RAKDHzMrR2SdPDuvPmJE3CskQrZeviNBeO2YXETrFJ9KdslJxQ0bJ0E6b5WLPtQSAHvNg9smlw/wzxuT6rCAlw/CWHC9CO91frpBHZegE66XOaBRnZ3EZ2mmRXJKJMgBAT7kxW+SGYf8pH/XxIsO0RX6dP8rQPnM0JpYXytAJrgDojCOKL4nQTmPzs0yXAQB6yrfz+jw97D9ltfzSZZgM2yNZN3+QoX0Gyg1yrQwGAL1hgeL2TJGhnU7yYB8A6Ckv5Jgc24I/Z2R+mdXlpAXuyAxXqbfTreWaeV6GdrMJYAcUX7L8b6/DLP8BoKfcl41bsvxP3mv5T4ssmzPcP91OK+etInRgbSpB221bnC9CO62dn3k4CwD0kKuzZ+5vyZ+0fG7wWwIt9Km8W4T2ebpcOXfK0F6GWO02oTjf5//tNFcuydwyAEDPODF75Z8t+ZMa+WGWEJQWWj/35EYZ2mVUsWy+LUN7uQWg3YE/Zvf/dhqZ7wkMAD3jmRyaw1t2G/Dbs56ktNgXs7YI7bNV9hahvdwC0F5rFb9wlUU7HZd3iAAAPeKv2T3XtexPWzo3ZZyotNz9mZ77ZGiXB8rl7LXYTq4AaKcRxdcs/9tp57xdBADoEVdkeguX/42cZPlPWyyQ72e0DO0yX+MjIhgA1NVbsoYI7bNsTnEJCwD0hDLHZov8vYV/4huykay0yXr5tAjt+27wRndZtJP1U/ssWvwmE2VolznyyywnAwD0gMdzcM5u6Z+4WG7JHMLSRofkFBHa5dflOhmQoT1cAdA2xZcs/9vpS5b/ANAT/pj1W7z8T75q+U+bfdnH1O2zVl4nQttWqRK0yWuK74nQPm/ICSIAQA84P/u3fMevg/N1YWk7mwG20cPlcvmHDAYA9TFH8dssJEO7rJJrbesDALVX5ri8r+VX+i6Q2zKnuHTAz7NZnpOhPcvUbwwcqkI72KO+LRqfyFYqtMscuSTzywAANfdE9ssXU7b8zz01q4tLRyySyblIhvZYLVfkzzK0nisA2mHF4saMkqFdp+z3s5sMAFBzf8wu+U0b/tz9cqq4dNBBzrh2ua1cI8/L0GquAGjDCrX4bpaUoV2OyltFAICauzDb5K9t+HPnyTmZIC8dtHUuzP0ytMO8eSS/kKHli1UJWm7/whiwbabnqoyWAQBqrD13/v/Lma4TpOPuzlp5WIZ2eLxcPvfKYABQbZOK32ZBGdpjzvw6S8gAADX2RA7OWW36s1+T7wpMF5yXndqwmwVJ8b2BvVRoLbcAtFjj2GyhQpu+AeQ7mSEDANTYH7JlftamP3vu/DgTJaYLlslzuVqGdlgpv8ofZWjtmopWWrX4dUbK0B7vyidFAIAauyD75dG2/emnx0eFdMtAtsvFMrTDHeUqnrXYSg0JWqgovmD53y7r5iMiAEBtlTk2O7Zx+b+D5T9dXVR9J4vL0A7L5igRWrpklaCFDiq+KUJ7TM31WUwGAKipx3NI2+78T5IpuTULyUxX/Sob51kZ2vDto1wu98nQKvYAaJ1JxQ8zhwzt0MhZWVMGAKipdt75/y9fzYYy02ULZc5cKEPrjWnMU/5IhtatrGhVyo9nARXa413ZSgQAqKkLsk5+09a/YdscIDMVcET2FaENyv1N+FrHLQCtsnpxnesp2mOtXJ3RMgBAHX9xz3F5Xwba+ndMyq1ZRGoq4cmsk9tlaL0by+mZJUMruAKgRR2LEyz/22Nivm35DwC19Hj2yNFtXv4nn7H8pzIm5HsZL0PrrZ5DRDAAqJJDPKC+Xb6SZUQAgBr6Q2bk7Lb/LZtZF1ApK+ZEEdqg+ETmUqEVfGrdClOLHxn1tcdBOUYEAKihC7Jt/tr2v2VCLshUsamUlfPn3CRDq41vjCvtsdgCrgBoRcQPZ24V2mGpfEEEAKidMsdmxzzagb/puEyTm8r5clYTofXfV96YVVQYPpsADt8Kxc0ZKUPrjcqVWUcGAKiZx3NwBy79T5KN81O/zFJJf8j0PCZDq11VbpxShuFxC8CwFd/O0iq0w7HZQwQAqN3CZ4tc2ZG/aXwucFMwFTVXlshZMrTaYvmNhywMl1sAhmuXbClCO2yVt4kAADVzfgcfgvaxLCU4lbVnXidCyxWfyQQVhscVAMMzpviRnWfaYd5clDlkAIAaKXNcXpenO/S3zchXfJJFpW2RC/I3GVprcuOF8goZhsP3zeF5W5YUofWKfCvzywAANfJ4ds/RGejQ3zYmJ/kci4obmzMyUYYWK9+VxVQYDt85h2O+4nsZI0PrvTOHiwAANfKHbJGrOvj3fTw7i07lzZUFc44MrTWyMV9pewUDgO5onGCT+nZYM992YgJAjZyfbfPXDv59a+dkl7FSC6vlrtwiQ2utlMvyFxmGypNThrFOLX7lZ0/rTcz1HqsAALVR5ri8r2OX/ifJ6Pw6KwlPTTyetfIHGVrrl+UMjwMcKgvYoSqKz6vXDp+3/AeAGi1uOnnn/78cY/lPjcyRM9wz3GrrZC8RhryMlWCI9i9OFaH1dsoPRQCAmvh9du34Q7lXza8ySnpq5XN5uwitdU+5bJ6SYSjcaj0044uzM1mGVpsn59srFQBq4vxs19E7/5NkZM7NwtJTM+vmptwhQytNytMd3Xe0h7iIfWjZ3ptFVWi9kzOfCABQA2WOzU55tON/73uzhvjUTpFvWDy0uul7soAKQzsbGbxFi99mvAyt9vp8RQQAqIHHc1BXbtpbPje4m5qaujKbZ5YMrVzIfmPgUBUGzy0AQznZvp5VVWi1pXJWRssAAJX3u8zM1V34e0fmPJ+iUluLZVaulKGVVs0FuU+GwXILwOBtkF1FaP2P9FPd/Q8ANXBB1uvS3czvzFryU2PHZIYILV3JFp8WwQCgEyfa59040XrvzboiAEDFlTk2O3bhzv8kWTbHOADU2siclkkytNLG2UWEwbKUHawDi1NEaLU1cq0H+gBAxT2RQ/KDLv3djVyRDRwCau+UHCJCK91VrpBnZRgMewAMzjiP/2u98bk488oAAJV2Z7bKFV3729+W1zoE9IDVckduk6F15swjuVaGwXAFwOC8t/iYCK32xRwhAgBU2s/ymvyja3/7ErklExwEesKjWS1/kaF1HimXysMyNM8VAIMxT/G9jJWhtbbIF8yhAKDSTsw+ebxrf3sjP8zSDgI9YmzWzGkphWiVcY1G+RMZBvMdleZjfcjl/602Z75u+Q8AFfZMDsnheb6Lr+CIbOQw0EM2zDtEaKHyqExToXnWXs1btrjVTnWt9v3sLgIAVNa92S2/6uorWDy3eFQwPea5rJ/rZWjdkva0gQNUaJYrAJo/sY61/G+1vS3/AaDCrsn0Li//i3zV8p+eMzpnOK9bqNw3a6pgANBqG2UnEVprvhwvAgBU1onZPH/r8ms4LFs6EPSgpXKcCC1c0xafEqFZbgFoslNxTWbI0FpnZjcRAKCSnsuROanrr2Kh3JopDgY9aoecL0LLlFvnYhUMAFpn7+J0EVprn3xbBACopH/kNflZBV7H+dnGwaBn3Z9V8pAMrXJLuXoGZJg9jwFsxujirEyVoZXmyY89zxcAKumGzMwtFXgdB+ftDgY9bI4sne/L0Crz5a7cLMPs2QOgGUdlSRFa6yuZRwQAqKDvZMP8pQKvY4F82sGgx+2SfURomeLjGa+CAUArzFm8R4TW2je7igAAlfNCjs7+eboSr+WEzOmA0PNOyKIitMpCeZMIs2cPgNlqfK58iwqtNE9u8/k/AFTOQ9krl1Xkteyb0xwQ+sKl2SqlDK3xaLmUbRVmxx4As7NETslIGVrp1KwlAgBUzC2ZmRsq8lrmyTn2CqJPTMtD+ZUMrTG2MbK8RIZX5wqA2Wh8t9xThVYy0QeA6vl+Ds2TlXk1HhVMP3km0/MbGVrj2XLZ/FmGV13fSvCqVi33EKGV5s8XRACASinzoexdoeX/Hpb/9JWxOSWjZGiNMY0PivDq3ALwqopTs5QKrXRK1hABACrkseydEyv0eubKuZnosNBXFsxzuUqG1lglP8g/ZHhlrgB4NRtlSxFaaT+7/wNApfw+M3JOpV7RFzOfw0LfOSYri9AaI4oPi/Bq7AHwanF+nhkqtM4CuTVTZQCAyrgg++aflXpF2+fHDgt96aask+dlaIWynJFfyvBKXAHwyna2/G+tL1r+A0B1fkfOsdmxYsv/yfmKA0OfWi3vFqE1iuIjIrxKHgleQaO4IavK0Dq75UwRAKAinsjBOatyr+qUHODQ0Leez4zKPIqz7srN81MVDAAG58DiFBFaZ3Juy0IyAEAl3JldclvlXtU2Od+hoa+5DaBlrivXSSnDy/EUgJc3ujgzc8rQOsdnExEAoBIuydb5S+Ve1aRckMkODn1t/szKz2RohYVyY+6Q4eXYA+DlHZ5pIrTOxnmtCABQCSdm+zxSwdf16Szi4ND33p81RWiJ4mM+6n6FMhK8jInFHz2BpnXG5IYsLwMAdN0zeUO+VclXtll+4tdSSHJz1slzMrRAeUBOU+G/uQLg5bzV8r+VPmD5DwAVcE82rujyf0K+ZvkPSZJV8x4RWqL4cMao8N9cGPHf5izOyDgZWmWVnOI0A4Cuuzpb5PcVfW2fy1YOELxog5yXv8kwfFPyt1wnw0u5AuC/k7zX9n+tMyInZ5QMANBlJ2ZmHqjoa1s/hztA8H9G5qs+PmuJ4v2ZoMJ/r8/4TwvmNCvW1nl7DhQBALrq2bwxH86sir668bkoczlI8G8WymO5Vobhm5jHco0M/8ntVi/ROKm0YX3LLJ5bMlEGAOii+7N7pZcSn8lbHSR4iaeyWv4ow/A9VC6Rx2X4d64A+E/L5CS3RbTOd23/BwBddWO2yG8q/PrWzdf86gX/ZVRWzqkyDN/4PJmrZPh3vuP+Z44PZqQKrXJQthQBALrojGyQv1T49Y3JyT6Ngpe1SQ4VoQWKd2SKCgYAr2SZck8RWmXuHCsCAHTNrLwz++bpSr/G/8kKDhS8gk9lYRGGb0qOEuHf2QPg3zS+awDQOt/J3iIAQJc8lv1zbsVf4zq52uf/8Cp+lF1FGL5/ltPysAz/y3fd/2/FfMlApFVm5jgRAKBLfp+Z+XnFX+OYnJf5HCp4Fcvlt5Xew6MmxjaeKy+X4X9Z8P7/FGdmdxVa9SP95iwjAwB0xYXZJ/+s/Kv8WI52qGA2HsiKPrwevifKafmHDP/iCoD/tWJxvHFIq7wvu4kAAF1Q5ri8Ns9U/nWunm/4NRRma2LmqvzNPDUwuvFCeZkM/2LJ+78hznKLTasslVsyVgYA6Lhncli+XYffxnNdVna4oAlltshPZRiuJ8tp+bsMiacA/K+Vs7MIrfJ5y38A6IJ7slEtlv/JMZb/0KQiX/a79fBNaLxDBAOAf//C+ogSrfKabCsCAHTcNZmeX9fila6Wdzlc0LRlfMW0QPmmLKhCYg+Af1mj+IybIVpjjvw4k2QAgA47MXvnsVq80pH5saebw6DMyNl5UIbhGdVolBfL4AqAJEnxIcv/VvlwFhIBADrqhbwlh+e5mrza92cNhwwGZUy+YrkybOUbXAOQuAIgSdYsPu0rqjVWzslmSgDQUQ9mp3yvNq921Zzq108YtMXy59wkw/CMbIwsL5LBwjfF+W5ab41GrsoMGQCgg27OLrm7Pr9/59qs6aDBEDycFWxjP1zPlNNyvzVbv1sr2/haaI3XWf4DQEd9P+vXaPmfvNfyH4Zoao4TYbjGNt4qQt9fAVBclK2cBq0wb27PVBkAoEPK/E8+krJGr3iV/CqjHTgY8tf8lrlMhuF5slwi/+jvBP1+BcAMy/9WOc7yHwA65vHsmg/Xavk/Midb/sMwFPlyxsgwPBMaR/V7gj4fABQf8lXQGhtmfxEAoEP+mBk5p2av+eis5cDBsCydt4swTOWbMqXPV8B9/e7XLn7pi6AVRuaGrCQDAHTExdknj9TsNS+f6zPWoYNheior1Wrfj0qOAD6YD/fz++/rKwCK9/kCaI0jLP8BoENOzA61W/6PzCmW/9AC4/N5EYa7BjwqcxgA9KcVs70vgFaYK+8XAQA64NkcnMPzQu1e97sy3cGDltgxO4gwPFNzRD+//T6+BaDx3XJP538rnJjXigAAbXdvdsuvavi6l8sNPv+HlvlLVsyTMgzHQ+XieaJf3/yIvj3sS+XLff8MhJZYI1/2NEkAaLtrMzN31PKXzXOzmMMHLTM5A7lchuEYn4dybb+++b5dAjfe18fDjxYq8jlzFABou29n8/ytlq/8nVnb4YOWeleWE2F4a5h3ZpwBQH9ZpNzHid8K+2dDEQCgrV7I0Tkgz9TytS+bDziA0GKjc7wIwzN/Du3Xt96n1243Tijf6LwfvjnyuywgAwC00UPZK5fV9TeuXJENHEJog73yfRGG46/lUnmuL1fCfXm45y8Pds63wvst/wGgrW7N2rVd/idvt/yHNvl0JogwHItk//584315H3zjQ9nIOT98S+VbGSkDALTNedkhD9T21S+bMzLKQYS2mGQrwGEqVswJKftwLdyHx3pqeZgTvhW+kDEiAECblDk2O+exGv+SeVL/7rIFHfDOLC3CcCyZXfrxbffhAKDxlszhfB++HbONCADQJk9kjxydgRq/g7e4/B/aakyOE2FYivf14454/feWJxV3Z06n+3CNzi1ZRgYAaIs7s0tuq/U7mJab3aEMbbddLhRhGMot85N+e8/9dwXAEZb/rfBOy38AaJMrs17Nl/+NfMPyHzrg827JHZbi3f33nvttE8DxxXf9PBq+hfPdjJYBANrgxOydx2v+Ho6KDZegE+bKY/m5DEM3LRfnnv56y/12BcBhmdd5PnwfN0UBgDZ4Nofm8Dxf83exZD7iUEKHHOOx3MNSvLPv3nFfvdvRxZ1Z2Gk+XKvnur58fAQAtNeD2SM/q/27aOSybOxgQseckkNEGLqBcsX8rp/ecH+t4/ax/G+Fz1n+A0DL3ZTpPbD8T46w/IeOOjDrijCM9XCjz64B6KcrAIrixqzqHB+uXXKWCADQYt/PIXmqB97H4rklEx1O6KhfZUZKGYbq+XKp/KV/3m4/bQK4bfE25/dwjcrZmUsGAGihMsfljbW/8z9Jinwvyzug0GEL5c7cIsOQV8SNlBf3z9vtoysAisuzifN7uN6az4gAAC30RA7MD3vkvRyRLzqg0AX3Zrk8KcNQPVkungf75c32zxUAaxUfd24P15z5fsbLAAAtc1e2yJU98l4Wyw88kxy6YlKe64k9RLpkdJ7qn3x9s5tb413O7OH7gMv/AaCFrsp6ua1H3kuRr2UOhxS65N1ZVIShf/96c/885bxfBgBLlLs4sYdryRwuAgC0zImZmb/3zLt5fbZ0SKFrxuXDIgzd1BzQL2+1T/YAaHypPMJ5PVxnZ2cRAKAlXsjbe+p++cVyi8//oavKrJvrZBiqu8plMssAoFdMLf7SPxd1tMvGuVwEAGiJh/Kanvq5WuSCbOWwQpddmw08DnDIyl3yo354n/1xC8CRlv/D/8H+KREAoCVuyfQeG6u/1vIfKmBGdhdh6Oudt/fLuq73jS3uznxO6eE5IKeIAAAtcF72y2M99Y4Wyq2Z4sBCBfwpK+YZGYaonJFf9P677IcrAA62/B+ucfmICAAw/F8vc2x27rHlf3Ki5T9UxBI5SoShL43f1g/vsvevABhR/DZLO52H530GAAAwbE/moJzVc+/q0Jzk0EJlPJql85AMQzOrXDZ39vzyuOcP426FZ9cN09z5XsbIAADDck+2yWU9964WzA8zzsGFyhib0blYhqFpNFJe1PNvstffYL9s5tBO78skEQBgWK7J9Fzfg+/rhMzp4EKlvDFLiTBE5WszlwFAvW2UdZ3Iw7N4XEIBAMNzUjbPAz34vg7KTg4uVMxoN+8O3fgc1utvscf3ACjOyY7O4+E5NfuJAABD9kKOybE9+c4WyG0+/4cKKrNBrpVhaO4rl8hzvfwGe/sKgCWynXN4eFbOPiIAwJA9nG16dPnv8n+oqiKfEGGoFuz15U9PDwAab+mDTQ7b7BN98aRIAGiPO7J+D2789y8HZGcHGCpqI5dBD1nx9t6+Sr6X39yk4q92rxueDfMzEQBgiC7Ivvlnj763+XNbpjrEUFl3ZOW8IMOQlFvmJ7377nr5491DLf+Hy8VDADDEXyBzbHbs2eV/8iXLf6i0ZXOoCENUHNXT765n31mj+H2WdPoOx845WwQAGIJn8vqc1sPvb9+efnfQG/6WpfOkDENRlsvnjl59c717j/xOxRucu8M7Nc7MPDIAwKDdm21yYQ+/v3lyTiY4zFBxE/N0rpJhKIpGWfbsN/GevQWgty/c6ISDsoIIADBo12Z6ruvpd/hlHxFALbwjc4kwJOVBmWwAUC8rZWMn7nCMzQdEAIBB+042z996+h3uld0cZqiFyXmXCEMzRw42AKjX23pbbz+8of3enEVEAIBBmZWjs3+e6en3OHc+70BDbRyZhUUYkuKoXr1Zvjff1jz5RkY6bYduSr6XcTIAwCA8kl1yas+/y1My3aGG2hiZ8TlfhqEtiK7vzY0Ae/MKgDdkrHN2ON7l0T4AMCh/yPq9/ODoF70muzvUUCuHZGkRhqRX95TrxQvlRxd3ZwGn7NDNkzszUQYAaNpF2SeP9vy7nDu3Zj4HG2rmu9lHhCEpV80tvfeuevEKgD0t/4fnaMt/ABiEL2SHPlj+J1+y/IdaLo7WEGFoS+U39eK76sErAIpfuTltOBbIH93/DwBNejaH51t98U53zI8cbqilC7OdCEPxdLlIHuq1N9V7VwBsaPk/PO+1/AeAJt2bjfpk+T9XvuZwQ01tk01FGIpxeV3vvameuwKg+IGH0w7HorkjY2QAgCbcmF3ylz55r9/J3g441NbV2UiEobi3XCLP99Zb6rUrABbJTs7T4Xiv5T8ANOV72bBvlv87WP5DrW2QLUUYioWyS6+9pR4bADRen5HO06FbLAeJAACzVeZD2SdP9cm7nZIvO+RQcx/tyce/tV/xRgOAKhtVHuwkHY4PZLQIADAbT2T3fDhl37zf47OQgw41t1a2FWEoNs7KBgDVtVsWdI4O3VLZXwQAmI17skl+2Efvd/vs56BDD/gf1wAMbcH8egOAyire4AQdjg+6fwIAZuOaTM8NffR+J7v8H3rEGjZLG5LygEwyAKim5bOhE3TolsleIgDAqzo5m+eBvnrHX8jCDjv0iA/34DPgO2CO7GsAUM23coSrWob3DWGECADwimbl6ByW5/rqPW+bAxx46BkreV76kBRv6qV1Zu+8lYnFvb11cUanvx3cZCIIAK/o8eyb8/rsPU/OLVnEoYcecntWyYAMg1ZunCt75b30zppvP8v/4fgfy38AeEV/zLp9t/xPPmv5Dz1mBTf9Dm3R3EN7zfXMFQDFDVndqTlUa+Q6908AwCv4SfbKI333rmfmYr8dQM/5fVbMLBkG6/ly8dzXG2+lVz723cDyfziO8QMeAF7Bidm+D5f/k/J1vx1AD7Lx95CMyiG98lZ6ZADQ8ADAYVgxO4gAAC/jhbw5h+f5Pnznn3H5P/So97r1dwiKw3rliem9cfTnLnd1Ug7dMb4JAMDLeChb5Ut9+c43750Pu4CXWD67izB4i2R7A4DqeF3GOieHajnfAgDgZdyatXN5X75zl/9Db/Px31AUPXLNeS8c+0bxOifk0B3tGwAA/JcLs1H+1Kfv/bgs6gSAHrZidhJh8LbIMgYA1bBtlnA+DtW07C0CALzEF7JD/tmn732z+GQFep0twIegaPTEN8ceGAAUNgAchvf0ym4WANAiz+agvDUDffruJ+RECwPoeav1yg3tHVUelDEGAN23eLZ2Mg7VIjlABAD4N/dnk5zax+//uExzEkAf+KBR3+DNnZ0NALr/Bg5xC/vQvSujRQCA/3NTZuSXffz+N83hTgLoC2tkKxEGrRf2nqv74KdR/Mk+NUM1f+7MOBkA4EVn5uA81cfvf0JuypJOA+gTv8h6IgxWWS6bP9R8AV3zQ7CN5f/QvcPyHwD+97e6HJu9+nr5n3zS8h/6yLrZTITBKhqH1P4t1Pzl/7AX7sPojrnyp0yUAQCSPJkDc3afN1g/P3NfJfSVS7OlCIP1QLlInq/zG6j39/n5sp1zcKjeZvkPAEmSe7JJ3y//x+eblv/QZ2ZmXREGvwLdsd5voN7f6Q/OKOfg0EyOpycCQJL8PNNzfd9X+HiWcipA33mHBINW940Aaz0AKA50Ag7VUZkiAgDk9MzMA31fYb28yakAfWiXrCjCYG1Z7+1S6jwA2CTLOf+GZmLeLAIAfW9Wjs5+eabvO7j8H/pVkbeLMOhojYMMALrz0g919g3VYZkqAgB97vHsmmNlSPLRLC0C9Kl9s5gIg1S+ts43oo+o7SufnJPtADA0o/KdTJYBgL52Z2bmGhmSzMhXff4PfWtEGrlIhsGZmOtzR11ffH2/3++f8c69odk7i4oAQF+7MuvldhmSjMlJNf48CBi+12YeEQapzhsB1nYAULgBYMjeIgEAfe3EbJF/yJAk+WhWEAH62vgcKcJgbZ1FDAA6a62s5rwbmm2lA6CPvZCjcnieFyJJsq6PBYAc6fbgwRqRAwwAOvuyff4/ZHb6BKB/PZSt80UZXjQmJ7v8H8jkvFaEQSoOTVHTV17LVz2uuM9j7Idmen4pAgB96vfZMb+X4f98Mu8SAUhyb5bMczIMSrlRrqrj667nFQB7Wv4P1TslAKBPXZh1LP//zTquCgRetFBeI8JgF9IH1/N11/IKgOKqbOCUG4ppucOlfgD0pS/k7RmQ4f+Mya+zogzAi27J6illGIwnygXyRP1edh2vAFgq6zvfhuYdlv8A9KFnc3Deavn/Hz5o+Q/8m1WyuQiDMzG71/Fl13AA0DigrhsudNu8OVAEAPrOP7JlviXDf1jd5f/AS7xNgkEqankTQP0GAEW5r5NtaN6UcSIA0Gduztr13KepjUbnlIySAfgPW2dVEQZnwyxpANB+G2Wac20oJuQNIgDQZ87M+vmzDC9xTFYWAfgvR0kwOEWjhhdY124A0NjfmTY0h2UuEQDoI2WOzd55SoiXWM3D/4CXtW8WFmFwP2cOrt8Wa3V7wePy9Yx1qg3eqHzbsxMB6CNPZt980Z7WL/MbwblZSAbgZZeGz+YyGQZjUq7KXfV6yXW7AmAXq9ih2S2LiQBA37g3m+YsGV7G+7O6CMAreH0mijC45XTtNgKs2QCgcAPAELmjB4D+cW2m59cyvIxV8x4RgFc0Zw4WYVDKXev2AXW9BgDzZaaTbCjWyzoiANAnzsjM/E2GlzEyJ9v9H3hVR9bxOfHdNDZ7GgC0z34Z6RwbijdLAEBfmJWjs2+eFuJlvTdrigC8qqWyrQiDUhxUs9dbqxd7c1Zxig3eQrnLvB+APvB49s+PZXgFq+RXGS0DMBuXZksRBqVcNr+vz6ut0xUAq1n+D82Rlv8A9IE7M8Py/xWNzNct/4EmzLToGqx96vRiazQAaBzg3BqK8TlUBAB63lVZL7fL8IqOdvk/0KQ3SjAoxX51uq6+Pi91ZPHXzO/0GsoX8JdEAKDHnZgj87wMr2j5XJ+xMgBNeTqL5iEZBqFcL9fW5bXW5wqArSz/h6LIm0QAoKe9kLfkcMv/VzEyp1j+A00bl8NEGNyier8avdbavND9nVhDsW2WEwGAHvZwtsnxMryqd2e6CMAgHGEPsUEp98oYA4DWmlTu6MQaCg8ABKCX/T7r5zIZXtVyeZ8IwKAsmF1FGIyp2doAoLX2yDjn1eCtmJkiANCzLso6uUOGVzXC5f/AEPgYcXCK2lyvXpMBQLGPk2poX7iFCAD0qC9kh/xThtl4Z9YWARi0GVlLhMHYLlMMAFpn/mzsnBq8qdlXBAB60rM5JG/NLCFmY7l8QARgSA6XYDDGZg8DgNbZMyOcU4P3xowXAYAe9GC2yikyNPFr3kku/weGaO/MJcIgFDV5EkAtBgDFXk6owRtlagdAT7o503OlDE14e9YXARiicTlIhMHYMEsYALTGYlnH+TR4u2ZBEQDoOT/IBvmzDE1YNh8SARiGw+vzzPgqKFKLfevqcEz3tpPd0L5gAaC3lDk2e+VJIZr6Fe8kj1AChmXJbCXCYCYAtbgJoAYDAE8AGIrls5EIAPSUZ3JAjs6AEE15azYQARimN0gwGMtldQOAVmRc2bk0lC9Wl00A0EvuzUb5jgxNmubyf6AFtq3Hbe3VWVzvaQAw/BfoSXZDMDH7iwBAD/lFpufXMjT96903M0EGoAXfTV4vwiCUNbh5vfIDgHJPJ9Lg7ZfJIgDQM76bzfM3GZr25mwoAtASh3qY6GAsmnUNAIZnepZ2Hg2eSR0AvaLMh7JPnhaiaUvkwyIALTJXXiPCYJbXlf/4uuIDgMZeTqLB2yCrigBAT3giu1rODvJXu29kogxAyxwmwSCUe2aEAcAwXl1p4DQEHgAIQG+4KzNyjgyD8qZsLALQQuv5cHEw5q/6w9iqPQDYMAs7hwZrnuwmAgA94Iqsk9/IMCjT8jERgBY7WILBLLArfhNApQcAbgAYitdljAgA1N7J2ToPyTAoRb5i93+g5Q7IeBGaVu6R0QYAQzOy3NUJNPgD+loRAKi5F/KWHJbnhBikN2QLEYCWm5LdRWje1GxuADA0W2Re589gbZ/FRQCg1h7PrjlehkFbPJ8QAWgLHzEOaold6ZsAKjwAaNgAcAhsAAhAvd2ZGTlPhkEr8tXMIQPQFhtkRRGaVu6ScQYAgzey3N7JM1hLZksRAKixq7JebpdhCF7vdwCgjQ6VoHmTsrUBwOBtmrmdO4P1uoo/1gEAXs2JmZl/yDAEi+VYEYA2OiBjRWh+kV3hmwAqu15s7OLEGayROUAEAGpqVo7O4XleiCFw+T/QblNtBDgI5Q7VfSRLVQcAjXJnJ85g7Zj5RQCglh7Lzj7DHrLXZSsRgLZ/p6Fp47OtAcDgrJ8FnDeD5c4cAOrpj5mR82UYooXySRGAttswy4nQ/DJ7NwOAHglWXQvb/AeAWvpJ1slvZRiykzJFBKAD9pegaeV2VX0SQDUHAEVpB4BBOyQjRACgdk7M9nlEhiE7tMqbTQM95QDrjeZNrOq9WdUcAEzPos6ZwR7Ig0UAoGZeyFts/DcsC+Y4EYAOWch+I4NZn1X0mvaGWL1hyywmAgC18nC2yfEyDMtJmVMEoGMOkqBp5Q4ZYwDQbKxdnTCDdYgEANTKH7JBLpNhWA7ONiIAHbRj5hGhWZOzuQFAc1bNUs6XwZk7O4gAQI1cknXyOxmGZYF8WgSgo0ZnbxGaX2pX8rr2hlC94KBqXl8CAC/rxOyQR2UYphNc/g90nAePN6/cJaMNAJoJZQAwhAEAANTDC3mzjf9a4IDsLALQcStnDRGaNWc2NgCYvWWygnNlcDaQDICaeDhb50syDNsC+awIQFccJEHzi+0KfrRdvQHAHk6UwbIBIAD18Iesn5/K0AJfylQRgK7YJ2NFaFK5W0YaAMxG4QaAQZpkZgJALVycdXKHDC2wb3YRAeiSqdlOhGbNnQ0MAF7dElndeTI4+2SCCABUno3/WmUel/8DXbWfBM0vtyv38XbVBgA7OkkG62AJAKi4F3JkDs8LQrTElz2HG+iqbTK3CE0qd0lhAPAqCgOAQVo+00UAoNIeylY5QYYW2TvulgS6a3ReI0KzFspaBgCvbHL17pGouv0lAKDSfp/1c7kMLTJ3PicC0HVuAhjEgnsnA4BXtk1GO0UGd/j2FQGACrso6+T3MrTMlzOvCEDXrZtlRGhSaQDwKi9mByfI4GyWRUQAoLK+kB3yTxla5jXZXQSgEvaWoFkrZWkDgJc3otzK+TE4Lr4BoKqey6F5a2YJ0TJz5wsiABVxYNX2tquySn3MXaUBwIaZy9kxGBOyqwgAVNJD2TrflKGlvpT5RAAqYvHMEKFJRaVuAqjQAMANAIO1WyaKAEAF3Zq1c4UMLbWTXbeBSnEtctPWr9JzEys0ACgNAHzRAdADLsxG+ZMMLTVXvioCUCl7ZowIzRmR7QwA/tvy1docofoWzmYiAFA5Nv5rhy+6/B+omDmztQhNqtJNANUZAPj8f5D2q9gzHAHg2RySt2ZAiJb/krSXCEDl7ClBs7bKeAOAlygMAAZpHwkAqJQHs1VOkaHl5srXRAAqaEc7kjVrfHUu3q7KAGAu20gOzlpZSQQAKuTWrJ0rZWiDz2d+EYBKrmp9htv0srsyNwFUZQCwfUY4LQZjfwkAqJALsmHulqEtvyLtKwJQUW4CaFa5Y1XWuxUZALgBYHBGehQQABXyheyYx2Rog8n5ighAZW2dqSI0Z96sYwDw/43OFs6JwdjOXsAAVMSzOcjGf23zhSwkAlBZo7OzCM0uvCvykXc1BgCbZpJTYjBsAAhANTyYLXOqDG2yXQ4QAag0NwE0q9zOAOD/v4jtnBCDMUe2FwGACrgl03OVDG3i8n+g+jZzZXKzVs6iBgAvKrdxPgzGzhknAgBdd1bWz59laJvPZWERgIobkd1FaNa2BgD/skSWcjYMhgttAOi2MsdmzzwpRNvMzIEiANYmPaSoxHXvRQVew5uKLzodmjc192eUDAB00bM5LKfJ0EaTcmsWkQGogTKL568yNOPpcu481e0XUYErAIqtnAuDsbvlPwBddX82tvxvs89Y/gM1UWQ3EZozLht3/0V0fwAwOps4FwbDRTYAdNPNmZFfydBWm+cQEYDa2FWCZhffFbgJoPu3AGxeXOpUaN78+WtGyABAl/wgB3X/+sUeNym3VGOraICmDGTR3CdDM/5UTuv2S+j6FQANNwAMyp6W/wB0SZljs5flf9t9yvIfqJVGdhGhOUtk+b4fAJRbOw8GNwAAgG54Jgfm6AwI0Wab5bUiADXjJoCmdf0mgG7fArBAcW8lnkRQE4vlLrkA6IL7skuuk6HtJuTmTJMBqJlZWSh/l6EZV5SbdvcFdPsKgG2tZwdjH7kA6IKbsp7lf0d8yvIfqKERbgJo1gaZ0tcDADsADM5rJACg487MBvmLDB2waV4vAlBLbgJo0shs0c8DgBHl5s6B5i2XVUUAoKPKHJu9bfzXERNyoiv9gJraNPOI0NwCvMu7AHR3ALB2pjoFmreXBAB01DPZ38Z/HfPJLCkCUFMjs4MITSm37u6st6sDgIYnAAyKJwAA0En3ZaOcLkOHbJI3igDUmJsAmjRfdy/r7uoAwCMAB2P1LCsCAB1zY2bk1zJ0yHiX/wM1t3kmidCcru6D180BwFxZy9FvnpkaAJ3zvWyQv8rQMZ/IUiIAtTYmPt1tTtHVbQC7OQDYsusPITQAAID/UuZD2SdPC9Ex6+UIEYDa21GC5myYiX05AGhs6dg3b4UsLwIAHfBk9siHUwrRMePzTZ+JAD1gu4wWoRmjs1FfDgDKmY5983z+D0An3JtNcrYMHfXRLC0C0AMmd3NdWyuNLt4E0L0BwDJZ2KFv3i4SANB2v8j0XC9DR83IkSIAPcJNAM0pu3gtfPcGAJs78M1bPKuJAECbfTeb528ydNTYnJwRMgA9YhfPM2nOClm07wYAjU0d9+bt7ksJgLYq86Hsa+O/jvuoPX6AHrJQ1hChOV27CaBbA4Ci3MRRb54bAABopyeym43/umDdHCUC0FPcBNDkMrxrA4BufbC8WnGjw96s+XOP3YEBaJt7snNukKHjxuT6rCAD0FNucetycx4p58msbvzF3VpXbuaYN283y38A2ubaTLf874oPW/4DPWeVTBOhGXNmze78xV1aWRYGAIOwswQAtMkZmZkHZOiCdfI2EYAetIMEzenSkwC6MwAYmQ0d8WbNlY1FAKANbPzXPWPs/g/0qG0kaErRpQHAyK78rdMzySFv1k5dOkgA9LbHs2/Ok6FLPpgVRQB60saZI4/LMHvrdidUd64A2Nzxbp4nAADQevdkE8v/rlk9bxcB6FFjbPfWnFHduSq+KwMAOwA0bw7TEgBa7ueZHo/j6d4vx9/KKBmAnrWtBM0txTftlwHA2MxwuJu1fcaKAEBL2fivu47JSiIAPT0AKERoQtmVj8W7MQBY35q2eTtKAEArf93Ih7JvnhGia1bPO0UAetpCWUWEZqyWuftiANBwA0DTRmYrEQBomSeyaz4sQxeNziku/wd63nYSNLcW36gvBgClm9qbtmGmiABAi9yTjXOODF31vqwsAtDz7ALQ5GK8Cx+Nd34AMEfWdKibtb0EALSIjf+6b9W8RwSgD6zTjWvba6jsiwHAxh5rbwAAQKedbuO/rhuZr7v8H+gLI9zI3Jzls2DPDwAaGznOzVo2S4sAwLDNytHZz8Z/Xfe+rCEC0Ce2kaA5HX8UYMcHAOWGjnKzdpAAgGF7IrvlWBm6bpUcLQLQN7bsyuPm6qfR8wOAcYbfzXMDAADD9afMyI9l6LqR+XpGywD0jbmzughNKGf2+gBgXT/9mjVn1hMBgGG5JjPyGxkq4L32QAb6jF0AmrJYlujtAYAbAJq2jd0SARiWb2Tz/F2GCljB5f9A39lCguZ0+EkAHR4AFAYATXMDAABDNytH57V5TogKGJlTMkYGoM+sl0kiNLMg7+kBwMis6xA3m8pFMwAMlY3/quTdWUsEoO+MysYiNKHs8DaAnR0ArJ6JDnFzNsicIgAwJHfZ+K9Cls/7RAD6kpsAmrJAZ5/93tkBgBsAmuYGAACG5pqsZ+O/yhiZUzJWBqAvuaK5SRv17ACg2MDRNQAAoJ2+buO/SnlnposA9KmlM02EZpbkHf2YvJMDgCLrO7zNWSrLiADAIM3K0Xmdjf8qZLkcIwLQx9wE0IyyZwcAy2Zeh7c5Pv8HYLAez642/quURk5y+T/Q17aUoBnTskhvDgDsAOBLBYA2uSvr5VwZKuUdLn0E+txmGSFCxVbKHRwANAwAmjS2s/tAAFB7Nv6rnmXzQRGAPjc5a4hQsZVyBwcApQFAkzbMeBEAaJqN/yr4y1xOyjgZgL63mQQVWyl3bgCwUBZ3aJvjBgAAmmXjv2p6Wzz6CCDZVIJmrNC53fI6NwBwVXvTPDETgObY+K+alsn/iACQZIOMEWH2iqzXcwOAhkF4kxbIiiIA0IS7MsPGfxXk8n+A/zU+64jQzE+Ojn1c3rEBQLmew9qcrVOIAMBsXZP1crsMFXSUBx8B/B83ATS1Wu7YD45ODQDGZyWHtTl2AABg9k628V9FLeHyfwADgMFaPZN7awCwVkY6qs0dEDtlAvDqZuXoHGbjv4r+HP9mJsoA8H/WzQQRZm9E1u2tAcDajmlz1so8IgDwKmz8V2VvsusxwH8YnfVFaGZh3qEfHx0aABQzHNLmeAIAAK/Gxn9VtkQ+KgLAS2wiQRM6tWdep64AsPljk7aQAIBXdLWN/yqsyNdc/g/wXzaXoBnTO3PTfGcGAAtmIUe0GZNMSgB4RSdnpo3/KuyIzBQB4L+skTlEmL0JWaV3BgBuAGjSzIwSAYCXYeO/qls8HxMB4GWMiCfCN6UjmToyAGj4WLtJbgAA4OU8nl1s/FdpRb7mEy6AV7CBBM2smjvysXlH7jMo13U4m7OlBAD8lzuzkzv/K+5wQ3yAV+T5KE2tmjsyACg68HeMKP7p4Y/NmJY/igDAS1yd3fIPGSptsdzi83+AV/Rs5swzMsx+BLBg7m/339GJWwBWsfxvzqYSAPASJ2dzy/+KK/JVy3+AVzEma4vQjA5cA9CJAYAdAJq0iQQA/Jt/bfz3vBAVd1i2EgHgVbkJoKnFeQcGAB3YA6CxTulYGgAAMEiPZ9+cJ0PlLZRPiAAwG7YBbEYndgHowB4AxW+znIM5e8vmtyIA8CIb/9XFBdlaBIDZeCJT84IMs/NsOTnPtvevaP8tAFOyjCPZjM0kAOBFV2c9y/9aeK3lP0ATJmZ1EWZvTFZr91/R/gHA2h3ZZ6AHbCIBAEmSk2z8VxML5lgRAJqyoQTNWK/+AwBbADalyMYiAJBZOTqvt/FfTZyUOUUAMABo3fK87bsAtH0TwGIth7EZK2VeEQD6no3/6uSQbCMCQJNmSNCE9m8D2P4rANZ0GJthBwAA7sy6lv+1sUA+JQJA0+bNkiLM3sJZsN4DgHmzkKPYjE0kAOhzV2U9z4OpkRNc/g8wKK4BaMr0eg8A1nAEmzsMG4kA0NdOykwb/9XIgdlZBIBBWVeCZlaGBgD9YHWfIgD0MRv/1c0C+YwIAIPkCoBmlG0eALR5E8DC4x6bsqkEAH3r8eyT82WolS9lqggAg7RKJuYJGWZnrRQp2/fHuwKgEjaRAKBP3Zl1Lf9rZr/sIgLAoI1o9+3tvWFqe3dLbO8AYEqWcARnb2Q2EAGgL9n4r37mz+dFABgSNwE0pa1zkvYOANZI4fg1k2mSCAB96EQb/9WQy/8Bhso2gE0t0Ws8ALADQFM2lACg78zK0Tncxn+1s092FQFgiGb4fLgJZX0HAA0DgKasJwFAn3ksO+dYGWpnnnxWBIAhmytLiTB7a7Rzq/62DgBKWwAaAADwX/6YGTb+q6UvZ14RAIbBLgBNGJ/l6zkAmJBlHL3ZWybziQDQR67K+jb+q6U9s5sIAMOylgTNaONNAO0cAKyWEY7d7HkCAEA/sfFfXc2dL4gAUN2VbQ9p1HQA4AaAprgBAKBf2Pivzk5w+T/AsK2a0SLMVlnPAYAtAJuzvgQAfcHGf3W2U/YQAWDYxmYlEWZvlYyr4QDAFoDNmNtGCQB9wcZ/dTZXvioCQEu4CaAJo9o3J2nfAGBMVnDkZm8Dz8IE6AOXZh0b/9XYF23YC9Aia0rQjLZdTd++AcCKGeW4zZ4dAAB634nZLo/IUFs7Zi8RAFrEFQBNLdNXq98AYBWHrRmeAQDQ217IW2z8V2su/wdopZUyQYTZKut3BUDD7g5NGOdRCQA97ZFsk+NlqLUvZH4RAFpmRFYVYfZWyYiaDQBKA4AmrO0xGAA97I9ZP5fJUGvbZx8RAFrKTQBNGN+uveLbdwvAyo7a7LkBAKB3/STr5Hcy1NqUfEUEgBZbS4JmtOkmgHYNAObMgo7Z7M2QAKBHnWDjvx7w+SwkAkCLeQ5AUwv1mg0AfP7fVHzPAADoRc/njTkyLwhRc9vnABEAWm4Z2wA2oTQA6D3LZYoIAD3n4Wxr3/geMDlfFgGgLUtQD4xrwmq1GgB4BkAz1pYAoOf8wcZ/PeKzWVgEgLZYXYLZmyuL1GgA4BkAzbD9BUCvuTjr5A4ZesDmOUgEgDbxIMCmtGVO0q5bAAwAmuAKAIDecmJ2yKMy9IBJ+XoKGQDaZDUJemwAsLCb22dvjI0SAHrIc3ltDrfxX484NouKANA2K2eUCLNV1GgAYGXbhNUzRgSAHvFQts43ZOgRm+YwEQDaaGyWFaGZBWNtBgBuAGiCGwAAesWtWTtXyNAjxudEl/8DtNlqEszeoplakwGAZwA0wxaAAL3hwmyUP8nQMz6RJUUAaDPbADZlxZoMAEq3ADTBFQAAveAL2SH/lKFnzMgRIgC0nQcBNqUN6+qRbXiZI7KcYzU7U7K0CAA192wOz7dk6CHjckrbHpAEwL8PAIqUMsxGY6WB1v+ZbXidS2WcgzU7091fCFBzD2Yry/8e8xHjeYCOmDMLizBb7biyvh0DADsANGEdCQBq7ZZMz5Uy9NjP5qNEAOgQi8buRGrHAGAFR2r2bAEIUGdnZf38WYaeMiYnZ4QMAAYA1TGl9RdKtGEA0PBQxyZMlwCgpsocmz3zpBA95oPt2GwZgFfge25TWn4TQBsGAKUBwGwtmgVEAKilZ3Jgjs6AED1m9bxdBIAOcgVAdzK14ykA9s+ZLY8ABKin+7JLrpOh54zMyRklA0AHrZARmSXDbDRWbvVHDq2/AmCBTHagZmdNCQBq6KbMsPzvSe/3RGqADhubpUSYrbLlVwC0fgCwjMM0e2tIAFA7388G+asMPWiVvEcEgI6zC0ATVmj1NfutHwDYAaAJq0oAUCtljs3eeUqIHjQyX89oGQA6zi4ATRjT6gslWj4A8AyA2Vso84oAUCNPZo8cnVKInvRuN+YBdIUrAJrS4jlJywcAngEwe6tJAFAj92aTnC1Dj1ou7xMBoCtWlqAXBgD2AJg9Gw0B1McvMj3Xy9CjGjk5Y2UA6IqlfAduQtHiOUmrBwCjs4SDNDurSABQE9/N5vmbDD3rHVlPBIAuGWn7uGYsX+0BwJKt3qWwF7kCAKAOynwo++RpIXrWMvmgCABdZADQhKUyqsoDAMdwtiZlmggAlfdEds2HZehhjZyUcTIAdNFyEszeqCxpAFBrq6YQAaDi/pqNc44MPe3N2VAEgK6yfVxTWjonafEAwEMAZ281CQAq7ppMz40y9LQlXN8B0HUWj7UfAHgI4OytKgFApX09m+fvMvS0Il/LRBkAur6ydW10E0v2Kg8ADHFmbzUJACprVo7O6/KcED3uDZkpAkDXTchCIsxW2dIBQGtHLlOLhxygVzcq//S8S4CKejz75VwZet5iuSVzyABQAVvmUhFm57FySspW/WGtvQLA5/+ztYLlP0BF3ZkZlv99oMhXLf8BKsJzAJowKQu07g9r7QDA8+1mazUJACrpqqyX22XoA4dmKxEAKsJzAJrSwjmJAUCH2QIQoIpOzMz8Q4Y+sGCOFQGgF1e2MnV+ANBYwrGZnVUkAKiYF3J0Ds/zQvSFEzKnCAAGALXSyucAjGzlCysNAGZrBQkAKuXh7JnLZOgTB2QnEQAqZKFMyJMyzG6d7RaAupor84sAUCF/yAaW/31j/nxWBIBKKSwhm7F8NQcAozzGcXZWlACgQi7JOvmdDH3jS5kqAkDFLCnB7C2USVUcACyWEY6NAQBAXZyY7fOoDH1j7+wqAkDlLCXB7BVZuooDAFdvzNbyEgBUwgs5MofnBSH6xtz5nAgAFWQR2ZSWXSgx0rHrJFcAAFTBQ3lNLpehr5yQeUUA6OWVbW9r2YUSLRwANJYoHRgDAIDKuy075U8y9JUds4cIAL29su1pjSUHWvUntfBVeQjgbMzt0weArrsoG1r+95m58lURACpq0YwWYbbKls1JWjgAKN0CMBs+/wfoti9kh/xThj7zeQ/hBaisEVlchNmr4gDAFQCzs4IEAF30bA7JWzNLiD6zXfYVAaDC7ALQhAUyoWoDgMkermsAAFBdD2arnCJD35mcr4gAUGl2AWhC0ao5SesGAG4AmC23AAB0yy1ZO1fK0Ic+m4VFAKg0C8mmtGhOYgDQQa4AAOiO87NR7pahD22eg0QAqDi3ANRzAGAHgNnwDACAbihzbHbKY0L0oUn5egoZACpuMQmaWbi3aE4ysmUvaInSUXlVbgAA6Lxnc1j+H3v3GShJWeZ9+F9nhpxUFDNiTkQVRUUFQVEQERFBREUEWJCaZwAAgABJREFUVAyr666Iu+uaMa0BBZGg5CxZVJLEIQlIzjnnIUye6Xo/uOuLOpzu06dDVfV1fWJZmTnnVz1z+rn7qacOkGFEfT8rigBgANAIvXoQYM8GAKXrZgAAUDF3Z9NcIMOIWjc7iABQA8vmKZkuQzuVuwXg+a7J+F4uAcBA/SVvtPwfWUtmT9v/AWpiJQnae16WqNYAwCG7bbxMAoABOiJr5zYZRtb3HCoFUBs2k3e0cl+pSgOAJfJU12R8L5UAYEDKfD8fykwhRtYbs6MIAAYAzdKTmwB6dQbA8+2zG9+iDiICGJDZ2S4HyzDClsi+PdziCEC/WSl1ZKUqDQCe63qM74W9O28RgHHcmU3zZxlG2rfsugOoFTsAOjH2glYvfpUefTVOAGjDWxGAQTgva1r+j7g35F9EADAAaJxypV78KgYABgAAjXFo1ss9Moy0xbJ3psgAYADQPFUaAIy5BaCNl0gA0Fdlvp4PZ5YQI+6/82oRAGrmGVlKhHoNAEo7ANqwAwCgnx7PZvlmSiFG3Br5kggANeQYwA4sn2UqMwBwC4ABAMDw3JF1cowMI29q9s4iMgDUkA3lHenBvRIGAAOxmEAAfTMta+ZiGch/Zg0RAAwAmmulqgwAFs0KrsZ4XuxAIoA+OTjr514ZyKr5iggABgBNVpkdAM9N4WqM52USAPTBguycrTNbCDI1+2RRGQBq6jkSdLJ478EAYGpPvhL729twAgBA7z2WrXO8DCRJvpLXigBQW3YAdGQlA4Ca8BBAgF67MZvkKhlIkrwiXxUBwACg4coeDAB6cwuAAUAbdgAA9NbZeZPlP397M7N3FpcBwACg6aoyABhzvQwAAAZoj6yX+2Xgf30pbxIBoNae2aOt6Q33jCxViQFAaQAwrsUdagHQM/Py2eyYeULwv16Wr4sAUHNjeZYInXjB5Ev3woquxPhXyUMSAHrjoWyY3WXgCW9k9soSMgDUns+UB7Py7s1Oi5VcifEHAAD0wnXZJNfKwBN8Jm8RAcAAYFRM+vS9XuwAWDzPcCUMAAD67Q95g+U///AT9tsiABgAyDTQAcCKdrgbAAD028+ycR6Rgb+zR5YRAaARPDi9o+X7pAcAvbgFwPpWIIC+mpNPZ18Z+AefyAYiADTEKyXoQDnpWwAMAAZgJQkAJuHuvD/ny8A/eHZ+IAKAAcBoqcItAGMGAG0IBNC9v+SNlv8sxC/yVBEAGrSyXVaE9ipxCKCHAI5rkTxbBIAuHZG1c5sM/JMPZVMRABrl5RK097TJPvu2BwOA0gfc41oxU0QA6ObnS76fLTNTCP7J0/MTEQAaxk0AHZnkTQC92AFgACAPQM89ng9k55RCsBC7ZgURABrGDoBBDAAmfwjgFI9sHN9KEgBM2B3ZNBfJwEK9J1uKANA4dgB0ZJKnAEx+B8BzsoirMB5HJABM1DlZ0/KfJ7FcdhcBoIFeIUEnhn4LgB3ubawkAcCE7J31cq8MPIn/mfwRyABU0IuzqAjtF/BDHwD4gLsNExKAzi3Iztkhc4XgSbw9HxcBoJEWyUtEaKsc+i0A1rdtrCQBQIcezab5vgw8qaWyZwoZABrKAKADwz4EcGxFJzSPH9gZiQCduT6b5BoZGMcueZEIAI31Ugn6PgCY9A6AciXXYDzP6sGDFgBGwUl5g+U/43pjdhQBoMHsAOjAMye3FW7ytwA83zUYj8//ATqxZ96T6TIwjsWydw/etgBQXXYAdGCRPG24AwAr3HE9RwKANuZmu3wq84VgXN/0hGgAAwCSZw5zALBEnuIKGAAAdO+BbJBfy0Aba+QLIgA03POyhAgVHwBY37bxLAkAxnFZXp8zZKCNqdk7i8gA0HCFo14NAOru2RIAPKkj8+bcIgNt/UfWEAFgBLgJoOoDAOvbNkxIABauzPezZWYIQVurZGcRAAwA+OsSflIDgMk+o876ViCALszO9jlIBjowJXtnURkARoIHAXZgUneZT3IAMPbs0gXo39UBaKg7s2n+LAMd+VLWFAFgRNgB0F7pFoDqWjTPEAHgH5ybNS3/6dDL8t8iAIyMF0rQ3jAHAKUd7uN6VgoRAP7OIVk/98hAh29T9vRIKIAR8jzPfKn2AMAOgPGZjwA80YLsnA9nlhB0aMe8VQSAETIlzxehnRUm8ymzxwAaAAAMyGN5f74vAx17Qb4jAsCIWUmCdhbNU4c1AFgiT9F/PDZIAPyfG/LGHC8DE7BHlhEBYMQ4BaADk7gJYHIDAB9wt+EZAAB/dWbenKtkYAK2zQYiAIyclSSo8ADA+rYNExKAJPl51s/9MjABz84PRQAwAGBhVuj+P506qd/4udobAACMb37+Nb+QgQn6xWRucASgttwC0IHlhzUAcIt7GytIAIy4B/LBnC4DE7RlNhUBwACAhXta9//ppG4BGDMAMAAAGMdleb3lPxP29PxUBIAR9awsKUK7dfgkdgA4A6CvlpcAGGFH5s25RQYmbFcDdICRVWRFEfq4zJzUAKD083lcy2RxEYARVeb72TIzhGDC3pMtRQAYYQYAbd9lTeIWgMmdAfB08eUB+GePZ5scJQNdWC67iwAw0p4vQTtDOwTwGdobAAD8ozuyaS6Sga78T54nAsBI83OgnwOAyZ0BYIUrD8A/ODtrWv7Tpbfn4yIAjDg7AKo6AFg8S2s/HhskgNGzZ9bPvTLQlaWyZwoZAAwAGN9Tu1/HT2YAYH3bhh0AwGiZn53zqcwVgi7tkheJAGAAIEH7Vfxy3f6nkzkDwACgjadJAIyQB7NFTpOBrr0xO4oAgKcAdGL5PNzdfziZHQA+4BYI4H9dntdb/jMJi2XvSR5MBEAzLOmD1E4GAF1yC0AfCQSMit/lLblZBibhG3mlCAAkcRNAVQcAPuAWCCBlvp9N8qgQTMIa+aIIABgAdKrrTRKTOANg7Oml8ONaXgKg8WZnhxwoA5MyNXtnERkAMADo+1LTIYB9JBDQdHdm0/xZBibpq1lDBAD+5tkStNP1UwAmcQtAaX3bJq3DK4Bmm5Y1Lf+ZtFdmZxEAMACYyFpzGAMAt7iP76mZIgLQYAdl/dwjA5M0JftmMRkAMACYiGWHMQCwA2BcPv8HmmtBds5HMlsIJu1LWVMEAAwAJqbrHQDOAKjeNQGouIeyZU6RgR54Wf5bBAAMACao7HoHQPcDgLE8VfjxLCsB0EjX5X25RgZ6YCx7ZgkZAPgHz8iULJBhPEM4A2A5t7j36ZoAVNjv8wbLf3pkx7xVBAD+yZSsIELlBgA+/2/DDgCgeX6WjfOIDPTEC/IdEQBYKDcB9Gux2f0tAD7gNgAARsqcfDL7y0DP7JFlRABgoZ4lQZ9W490PAJ6iep+uCUAF3ZX35wIZ6Jlts4EIADwJOwDaWKrbYxImcwYA41paAqAxLs4bLf/p6Ru7H4oAgAFAt4put9F1PwB4iurjMyEBmuKQvCW3y0AP/cJRQgCMwyGA/Vpu2gHQN84AAJpgQXbOhzNLCHpoy2wqAgDjeIYEfVqPOwOgalcEoEIey9Y5XgZ6avn8VAQADAAmp8vPm7seAIwtV4rejysCUBk3ZJNcLQM9tquNnQAYAEyWWwAackUAKuKPeb3lPz23UT4kAgAGAJPV5efNXQ8Ayqdo3pcrAlAJe2bjTJeBHlsuvxQBgLaePolPqkfEkgMeADgDwAAAaKo5+UQ+lflC0HM/yvNEAKCtqZabfRoAdH8IoB3u4+r6wYwAQ3diVshOSZJHs+Bv//bxzPvbP8/MnL/98+wnPCNgXh7/2z8vyKN/++fSbgKSrJ9tRQCgI8/IQyKMZ6lBDwCeovn412OqCEBNbdrnh7RNz/8/RvaxJ+w0mJG5f/vnWZn9t3+ek5n/9GuMN1J44qji781dyK+0sK/q7z1x3PH3njjkqKZlOvxptHQW6eh/t2QW6+h/t1iWWMi/3TKFP14AdGSFXCvCOMaWaBkAVOstFwDtf4A8VQ4A4J84BrCNgZ8B4Bb3cS0hAQAAgAFAAwYAS3W4V9AAAAAAgAlZXoJKDQAcAWgAAAAA0BdPkWB8XR4C2O0AYGnFx7e4BAAAAF1xStD4yoHfAsC47AAAAADoztMkGJ8BgAEAAABAE9gBYABQK24BAAAAMABowgBgScXHZwcAAABAd9wCUK0BgB0ABgAAAAB9YQdAf1bkBgAGAAAAAJWydBYVYTx2AFSLMwAAAAC6ZQ9APxaczgAwAAAAADAAqJNFUgxwADBmB0AbbgEAAADo1rISjKfIIgMcALgFoB07AAAAAAwA+mSgAwC3ALRhBwAAAIABQJ90dUqiHQAGAAAAABWzjATVGQCUBgBtLCYBAABAl+wAqNAAwA6AdhaRAAAAwACgAQMAZwC0MUUCAACALi0tQYUGAHYAGAAAAAD0iTMAqjQAsAOgT2EBAABwC0CVBgDOuGvDDgAAAIBu2QFQpQHAonobAAAAAPTHchJUaADgkHsDAAAAgD5x13mVBgB2ABgAAAAAGACMwADADgADAAAAgD5ZQoLKDAAKAwADAAAAgH6xA6CNrtbkY13+VoXeBgAAAAAGAEMxwB0ATgAwAAAAADAAGIEBgBsADAAAAAD6ZpFMFaHnq3I7AAwAAAAAKscegN6vyg0A+mRMAgAAAAOA/rADoErsAAAAAOieBwH2flXuDIA+sQMAAACge3YAVGUAYAcAAAAAfbSYBOMt5d0CUCULJAAAAOiaZee4DAAMAAAAAAwA5OnlAMAZAAYAAAAABgAjMACYqnY7LQkAAAAMAGo/AHDEfVt2AAAAABgA9MkAzwAo1DYAAAAAMACoUx4DAAMAAAAAA4BaKe0AMAAAAAAwABgBXa3KDQD6xCGAAAAABgB9Mjaw/8gAoL35EgAAAHRtMQl6vio3AOgTOwAAAAC6N0UCA4C6cAYAAABA9zx9vvd5DAD6xA4AAAAAA4A+sQOgSuwAAAAA6J5bAHq/ljcAMAAAAABoxgp3dNgBYAAAAABgAGAAYAAwUHMlAAAAMACoUB4DgD6ZJQEAAEDXLDt7n8dQpU9mSwAAANA1i9Xe57EDoE/sAAAAAOiepwD0flVuAGAAAAAAYABgAPAkSrXbcQsAAABA9yw7e7+W724AMF9tAwAAAAADgDrpbgDgIfdtuQUAAACgey0Jer4qtwPAAAAAAKBy7AAwAKgNtwAAAAB0zw4AA4DasAMAAACge3YAGAAYAAAAABgAGAAYABgAAAAAGAAYAPRuAOApAG05AwAAAMAAoP4DADsA2rIDAAAAwACgPwoDAAMAAAAAA4ARYABgAAAAANAM8yQwAKiLmRIAAAB0zbLTAKA2HpUAAACga3MlMACoizmZIwIAAECX3AJgAFAjj0gAAABgAGAAYAAAAADAk3ELQO9X5QYAfeMUAAAAgG7ZAVCVAYDb2ztgBwAAAIABQF/MHtwAYHZKvduxAwAAAMAAoB9aXX0s390AoOV2jPbsAAAAADAA6IsBDgC63G5gAAAAAIABwKQN8BaAZJbe7bgFAAAAYKAr3NFhB0C1PCYBAABAl3zqXJ0BgGvRllsAAAAADAD6wi0ABgAAAAAGACPALQDV4gwAAAAAA4D6DwBci7bsAAAAAOiWT50NAGrEDgAAAIBuWXSOa6BnABjGtDVdAgAAgK60MleE8QxyB0BhGNPWAxIAAAB0xZKzQgMAOwA6SfS4CAAAAAYA/VhwDnAA4Gp04H4JAAAABrW+HSVd3SFhANBHbgIAAADohv3UbcwY4ACgZRzTATsAAAAAuvGYBOPrakJiB0Af2QEAAAAwsPXt6Ghl5iAHAK5GB+wAAAAA6IYdAOOamXKQA4BHFW/vQQkAAAAMAHqty4/kx1yN/nELAAAAwABXuPL0ZQBgB0AH3AIAAADQDZ85j2tGd/+ZHQB9ZAcAAABAN+wA6EeeqV3+dnYAdMAOAADa2zs71ewrfuok//tlun77kSSLZ4mF/vulsuhC//2ymTKB72Jqll7ov18sSy703y+ZxZ70/14iiy/0q37iPz/ZrwvADAkqNACwA6ADdgAA0M4d+fc8UrOv+WGXrS8WzVIL/edFnjCUmJpl/vbPU7LsQv95LMv97z+tnY1kBWrLkrNKAwA7ADp6gzR/Up9xANB8n6vd8p9+mZu5Pf31dsg7RAVGb4U7IooZXT0FsOszAGakJXo7pQcBAjCuA3OsCPTB1PwsezzJTREA9TBdgvEM+CkApYFMJ9wEAMB4PyW+JAJ98PSclM/JABgAGAD0bADgJoCOOAYQgCe3o58T9MHquTDryADUnlvkxtMa8GMAncnQESdXAvBkjs+RItBzW+bsvEAGoAEcOTsuOwCqaJYEACzU9OwoAj02JbvkYA8WBBrzk5LeDwC6P6TeDgADAAC69oXcKQI9tWwOyMYyAA0xNzNFGM90AwADAABq4pQcIAI99bIck1fIAIz6+lagNrq+BaBwC4ABAABdeTTbpZSBHtoo51v+A9a3AvVvAGAHgAEAAN35Sm4TgZ4pslOOzXJCANa3ArXV/S0AnsrQgdkSAPAPzsivRKBnls5vspkMgPXtqOlyPd71AKD1UCF6W3YAAPD3ZmZ72//pmefn6LxGBsD6dvRM7+4/6/4WgIc0NwAAYKK+lhtEoEfemgst/4GGul+C8ReacwwADAAAqLjz8zMR6JEdcnJWkAFoqAckGM/0bv/D7s8AMADogGdXAvD/zc12WSADPbBYdsu2MgAN9rAEBgD187gEAPzNt3OlCPTAc/LbvEEGoNHcAtCfAUD3twA8qHp7npUIwP+5LN8XgR54Yy60/Acazy0AVRsAPOQQYwMAADo1P5/IPBmYtA/nlDxbBsAAYKQVQxgAzLO/vT2JAPirH+QiEZikqdklB2QJIQADgFHX9QBg6iR+04eyjPLjswMAgCS5Nt8WgUlaPodmPRkAAwCGcguAYwANAADoSCvbZ7YMTMqqucDyHxgZszxPbfx3Fo8YAFTSjLREABh5u+ZsEZiUzXNOXigDMDI8A6CNrp+SOIkBQOE5AG21MkMEgBF3S74mApNQZKcckqWEAEaIpWYbXU9IJncGAG097qAEgJFW5pOOhGUSlsl+eZ8MwIi5R4LxdX1EglsA+swpAACjba+cLAJde0mmWf4DBgBUYQDQelj39h6RAGCE3ZWviEDXNsj5ebUMwAi6T4LqDQDcmNGJ6RIAjLDP+DlA1z6fE/JUGYCRdK8E42l1vxvfGQB9ZpsEwOg6MMeKQFcWzx75qAzAyHILQJuV+IJhDAAeUL696RIAjKgH8iUR6Mpzc1TWlAEYYXYAjGsSe/HHXJX+sgMAYFR9xlOM6cqbc6HlPzDi7AAY1yTeYBgA9JlDAAFG0/E5QgS6sENOzbNkAEacpea4JrEXfzIDgMcyQ/t27AAAGEXTs6MITNjU/DR7ZFEhgBE31ypqXMWQdgB4OkNHbwEBGD1fzJ0iMEHPzGn5vAwAuTelCOMZ0g4AOzM6YHYFMHpOzf4iMEGr5dysLQNAnADQTmtIhwAaAHRgugQAI+bRfMInF0zQ5jknK8kAkCR20bUzrFsACgOAtuwAABg1X8ltIjCR91PZKYdmSSEADAA6M4lbAKZO6jc2AGjrQQkARsoZ+ZUITMDS2S+bygBgADCQReakBgCtewvx23g48yc5ZQGgPmZmB9v/mYAX5ZisLAOAAcBETOKQBGcA9FlpDwDACPlarheBjr0l0yz/AQwABrgONwDouwckABgR5+dnItCxHXJKVpABwABgYh7ObAOACrtfAoCRMDfbZYEMdGRqds0eWUQIgIW4S4Lx3D25nz8GAH1mBwDAaPh2rhSBjjw9h2cdGQAW6pE8JsJ47pnMfzw2yWszW38DAACSy/J9EejIarnA8h/gSbkBYHzFpHYAjE3yd7/PBWjHLQAAzTc/n8g8GejA5jknK8kAYADQrSHuAHATQAc8BQCg+X6Yi0SgrSI75dAsKQTAOO6QYFytSQ0AJvuIegOAttwCANB01+ZbItDW0tkvm8oA0MatEoxvmAOA4s7SBWjDXRIAzdbK9o7Eoa0X5ZisLANAW7dLML5hngHQcoNGWzZJADTbrjlbBNp4S6ZZ/gN0xA6ACg8A3KDR3j0SADTYLfmaCLSxQ07JCjIAdOQ2Cfq4wJzsAMAOgLYecC40QGOV+WQel4FxTM2u2SOLCAHQ4U9WnzGPa04entxPpclxdTp4Cd+X58oA0Eh75WQRGMfTc3jWkQGgY/c4V2d892ZSx/C5BWAgL2IAmuiufEUExrFaLrD8B5gQJwC0cffk/vPJDgAezWOugQEAwGj6TKaLwJPaPOdkJRkAJsQJAP1dXI5N+guwB8AAAGAkHZhjReBJFNkph2ZJIQAmyA6ANj9fJvmUxMkPABwDaAAAMIIeyJdE4EksnSOzSwohACbsdgnG1ZrkB/CTPQQwxR2lq9DGfRIANM5ncr8ILNSLckxWlgGgKzdLML6h7wBwC0Bbd0sA0DDH5wgRWKi3ZJrlP0DXbpKg2gOAllsA2rpLAoBGeSQ7isBC7ZBTsoIMAF0q7QCo+gDAGQDt2SQB0Cxf8MOPhZiaXbNHFhECYBKLy9kijKc12U+XJ30GgNVte3dlQabIANAQp2Z/EfgnT8/hWUcGgElxA0Ab92bu5H4BZwAMwHzHAAI0xozsEMff8o9WywWW/wCTdqME45v0QxImPwB4wC6N9kxJAJriy+5O5J9snnOykgwAk+ZnbPUHAKUz7gwAAEbFGdlDBP5OkZ1yaJYUAqAH3ALQ5mdOBQYAVrcdcFgUQBPMtP2ff7B0jswuKYQA6Am3AIyvNem1dw8GAMUtLkQ7NkkANMHXcr0IPMGLMi2bygDQM3YAtHFbBQYAMQBoyyYJgPo7Pz8TgSdYL+dnZRkAeuax3C/C+KpwC0DLSQ0GAACNNyfbZYEM/M3n8vssLwNAD9ln1/8BwNQefBG3uA59v04ADNm3cqUI/O3t04/zWRkAeuw6CcY3P/dUYQBgB0AHA4BWT+62AGA4/pIfisD/Wj6HZ10ZAAwABu2uyW9G7M1TAOa5FuObO/lRDQBDMz/b+VHH/1olF1j+A/TFDRKMrwcfvfdiALDALe7t3SIBQG19JxeLQJJkw5yVF8oA0Bd2AIyvqMgAwE0AHbhVAoCaujy7iECSIjvluCwrBIABwFD04vj9XpwBkOKW0tVo4xYJAGppfrbLXBnI4vlVPiIDQN/cl+kijK8qA4DWLYWL0cZtEgDU0g9zoQjkOTk6a8oA0Ec+/x/EAMAtAAPiFgCAOro23xKBrJULLf8BDAAMAP7XLa6FAQBA87SyfWbLMPK2zKl5tgwAfeYZAG3Mzt1VGQDYAdDBAMA5CQB185OcLcKIK/K1HJwlhADoOzsA2i4pW5P/RXpyBkDuyuws7oqMZ2buzwoyANTIzfm6CCNumeyfTWQAGIgrJWj3xqQHerMDoMztrkc7N0kAUCOtfDwzZBhpL840y3+AAZmTG0UYV1GhAYCbADrgBQ1QJ7vnTBFG2lszLa+WAWBArsl8EcbVqtIAoDAAMAAAaJBb8h8ijLQdcnKeIQPAwFwhQfs3J9UZALTsb29LIoC6KPOpPCbDyJqaXbNHFhECYICukmAgC8qpPfpirnc92vFYC4C62CsniTCyls/hWVcGgAFzBGBbPdl136sBgGc2tOUWAIB6uCtfEWFkrZJj8kIZAAwAqubRPNSLX6ZXhwDe1ItnEjbbvbaTAtTC9pkuwojaMGdZ/gMMwUynyrfTow3lvRoAzModrkk7TgEAqL5983sRRlKRnXJclhUCYAiu9nlyu59SPbrpfqxnX5FTANpyEwBA1d2dL4kwkhbPvtmlh2+LAJgINwC01aOb7nv2k64wADAAAKi9z+ZhEUbQc3JGPiIDwNB4BkA7rartAGgZALTlOQAA1XZwjhZhBK2VC7OmDABDZAdAW24BqB+PSgCosgfyryKMoC1zap4tA8BQXSGBAUDzXCsBQIV9JveJMGKKfC0HZwkhAIbq8dwmwvgezoO9+YWm9uxLuinze/irNdI9mZ6nyABQScflCBFGzDLZP5vIADB0V6YUYXw920zeux0Ac41t2rNNAqCaHswnRRgxL840y3+AigwAGF9RwQGA1W0H3AQAUE1fyL0ijJS3ZFpeLQNAJXgGQDu9O3K/hwMADwJsTyKAKvpdDhJhpOyQU/IMGQAqwg6AwS0kezgA8CDA9uwAAKieR/JpEUbI1Pwse2QRIQAqwzMA2urZLQC9PLbPAMAAAKCG/jV3iDAyls/hWVcGgAp5JHeJ0M6NVRwAeMx9B4laPT12AYDJOjX7ijAyVskxeaEMAJVyhWcAtHNPHunVL9XL1eitmevajG9WbhcBoEIezSe87RgZG+Ysy3+AyrlMgnZu6N0v1csBwHx7ANq7WgKACtnJM2xHRJGdclyWFQKgci6WoN3PsB6us3u6H72wum3LCZcA1fGn7CnCSFgiB2UXN+EBVNJFErTR6uFzEqf29gsrXJ02zEgAqmJmPmn7/0h4To7K62UAqKQ5PiId6CJyalW/sKa6SgKAivhqL2+po7JWzzFZUQaAiros80QY4CJyrKpfWHOvnU+bAKrg3Owmwgj4YM62/AeoMCcAtDWzlwcW9XYAcG3muz7je9TTpgEqYE62ywIZGq7ITjkkSwoBYABQZ9ekVdUBwNzc6Pq0Y5sEwPD9l7vWGm+pHJFd4nQiAAOAeit6uoDs9YG4VrdtOeQCYNjOz09EaLjn5vS8XwaAipubK0Roo9XTzyx6PAAoDADa8pkTwHDZ/t98b8yFea0MAJV3ReaI0E6VdwC0rG7bsgMAYLi+5W/ihvtQTsmzZACogYskaK/KOwDcAtDeFb08wwGACfpLfihCgxX5Wg7KEkIA1MIlErTT43P2ej0AuNquynYed1IiwNDMz3aeN9xgy+TofF0GgNqwA6Ct63r7pL1eDwBm5xbXqB1zLoBh+Y7ThhvsRZmW98oAUBvzc7kIbRQ9vsl+rOdfoZsA2rpMAoChuDy7iNBYa2daXi0DQI1cmdkitNHq8fq65wMAzwFo7y8SAAzB/GyXuTI01PY5NSvIAFArbgDoQNV3AHgOQHtuAQAYhh/mQhEaaUp2ya+yiBAA1kXN0+MP2KdW/Qtsortzb54pA8BAXZtvidBIT81hWV8GgBqyA6Ct+bmut79g788AuMJzANr7iwQAA9XK9u4zbKSX5BzLf4BaWuBstPauzpyqDwBmecqdAQBA1fwkZ4vQQO/MBXmFDAC1dFVmitBG0fMZyVgfvshLXah2JAIYpJs9G76RdsgJeYoMADXlBoD2Wj1/TmIfBgAtOzna+osEAIP74ZmPZ4YMDTM1P88efTjKCIBBcQRgB3q+tu7HT04fb7d1XR7P0jIADMTuOVOEhlk+h2ddGQBqbZoEQxgAFH34Il9Q3OJKtX+5ryUCwADcmlXzmAyNsnKOzQtlAKi1GXlq5sswvofK5Xv9S/bhFoDcloddq3b+IgHAAJT5pOV/w7w7Z1n+A9TeBZb/7fXh5vp+DADKXO5ateM+CYBB2CsnidAon8/xWU4GgNpzA0B7RU0GAH35QpvmLxIA9N1d+YoIDbJYfpOf9uetCwADdp4EbbX68MF6X47PbV1auFptXJYFmSIDQF9tn+kiNMbTc2TeKgNAI5Q5X4ROFo09N1aXL7RpZuU6EQD6at/8XoTGWC0XWv4DNMa1eUCEdlq5si4DgMuzwPVqx3MvAfrp7vybCI3xgZyTF8gA0BhOAOjADZlRlwHArNzgerVjmwRAP302D4nQCEV2yqFZUgiABnECwLAWjH06SccxgO3ZAQDQPwfnaBEaYfHsn10c/AfQMOdK0FbZl2fr9eknastT7tq6MC0RAPrigfyrCI3wnJyRD8sA0DDTc7UI7dVpB4D97Z287B0DCNAfn8l9IjTAWrkwa8oA0Djn+ii0ExfVaQBgB0AH3PkC0A9H5QgRGmDrnJZnywBgHTSaHsjtdRoA3J6HXbN2LpAAoOcezGdEqL0iX8t+WVwIgEbyDIAO9OnIuH4NAMpc7Jq1c74EAD33+dwrQs0tnd/m6ymEAGikBblQhLaKP9drANC3L7hJLsvjIgD01PE5RISae15Oz/tkAGisy/OoCG21arYDIK2LXLR2FtgmAdBT07OjCDX3xlyY18gA0GBuAOhIn5aK/XuwrgFABxx/AdBL/5I7Rai1D+WUPFMGAGugUfdIbqrbAODmPOi6teMYQIDe+V0OEKHGinwtB2UJIQAazg6ADlycsm4DAMcAduBcCQB65JF8WoQaWzpH5esyADTeff36aLtRir6tpcf6+EW7CaCtu/vzcEeAEfTF3CFCbT0vp2cTGQBGwDkSdKBVxwGAYwA74VGAAL1wSvYTobbe5OA/gJFxhgSdqOMAwDGAnXAKAMDkPZpP9OtWOfpuKwf/AYyQP0nQ3uO5ro4DgJvzgGvXjjMwASbvS26oqqkiX8uBWVwIgBHxYK4Uob2/pFXHAUAcA9jeRZknAsCknJpfi1BLDv4DGDV/6t/KtkGKPq6j+zoAcAxge7NymQgAk2D7f129KOc6+A9gxJwuQQdaf6npAMAxgJ1wEwDAZHw5t4lQQ2/OtLxaBoAR4wSAjvTxoLj+3gLwZ9duqFcXoPFOy14i1NAncmpWkAFgxNyXa0Ro77F+ZurvAODW3O/6teNBgADdmpFP2v5fO1OyS/bKokIAjJzT/NTuxJ+zoK4DAMcAduB6D0sA6NKXc6MINbNMjspOMgCMpNMl6EDR10+I+zwAcAxge6VTAAC6fBuxhwg186JMy8YyABgA8KRaF9Z4ANByg3sHzpIAYMJmZgcbCWvGwX8Ao+yuXCdCJ+q8AyDnun7tnSEBwITtnBtEqJXtHPwHMNJOk6ATd+XOOg8A7stNrmE7F+cxEQAmZFp2E6FGpmSX7OngP4CRdroEnejz/eH9HgCkcIN7W/NzjggAEzAzH09Lhtpw8B8AyZ8k6EDZ55vo+z4AaHnKXQfOlABgAv4z14tQGy/OuQ7+Axh5t+VmETpR9wGAI+474RQAgM6dm5+LUBtrZ1peJQPAyHMCQEda6fNz9Po/ALgks1zHdv6cGSIAdGROts8CGWpi+5yaZ8gAgBMAOnN1Hq37AGBeLnEd20fyuASAzvxnrhKhFqZkl/wqiwgBQOx57kzR9xvoxwbwTVjbdsApAACdOD8/FaEWlsnRDv4D4H/dmFtF6EDrgn7/DlMH8E2cX7iSbZmIAbQ3J9vZ/l8LL85xeaUMAPwvTwDoUN8HAAPYAeAYwM6utKMSANr571wpQg28JdMs/wF4gtMl6MTMXNGEAcDtudO1bGeOOQlAGxfnJyLUwA45xcF/ADxBK6eI0InzM68JAwB7ADriJgCA8czJNv3/qcgkTcku2cPBfwD8nYtynwgdKKb1//cYyACgNADogGMAAcbzzf7vimOSls0xDv4D4J/8QYKOtAYwAJg6kO/EAKCjSLOzuAwAC3VJfiRCxb0kx7rzH4CF+KMEnSgHsW4ezC0AF2Wu69nO7FwoAsBCzbX9v/LWz/mW/wAsxMP9P9q+Ga7KQ00ZAMzKZa5ne04BAFi47+RyESpth/wuT5UBgIU4OfNF6EBxziB+l7EBfTPTXND2nAIAsDCX5nsiVNjU/NTBfwA8qZMk6Ejr3AYNAFpnu6DtTXOnBMA/mZ9P2P5fYU/N7/N5GQB4EqUTADrVpB0AOcv1bG+mUwAA/sm3c7EIlfWSnJP1ZADgSV2eO0XoxAO5oUkDgHsG8+3U3ckSAPydy2z/r7B35IK8QgYAxvF7CTpzdsomDQBS2APQAffHADzR/Gzn5qjK2iEn5CkyADAuNwB0phzQqXkDGwC0DAA6cOEgnvwAUBu75M8iVNLU7OrgPwDaejznitCZcwbz2wxsAOAUgE4syGkiAPyvq7OLCJX0tPwhn5UBgLZOyRwROjFnUEceDW4AcEPucl3bcwoAwF/NzzaZLUMFvTTn5O0yANABtzh36KJBvekZ3AAghUcBdsAhGQB/9UNPRqmkd+b8vFwGAAwAerlWnjao32mAA4CWAUAH7sg1IgDkmnxLhApy8B8Anbs6N4nQ2Vr5jAYOAJwC0BlTMoBWtrf9v3Km5ufZI1OFAKBDf5Cg0zc+A/uwfJADgMsy3bU1AABo70eDOgqXjj0tf8xnZADAyqb3Lh3cSnmQA4CWZ0B04nQnZQIj7tp8Q4SKeVnOyboyADABs3KmCB0pzhjc7zXIAUBKNwF0YKbPvYCR1sr2mSVDpWyQ8xz8B8AE/cnP807f+zR1AOAUgM7YKgOMsp/EmbHVskOOd/AfABP2Rwk6Uw5ynVwM9FtbrJiexV3hdlbPxSIAI+q6rOHzggqZmp9mRxkA6MKLc7MInbisXG1wv9lgdwDM8VDnTlyau0UARpLt/9WyfP5o+Q9AVy6x/O/QIE8AGPQAIIVzIDpQ5lQRgJG0q3vFKmTlXODgPwC6dKwEHWo1eQDQ+pML3ImTJQBG0M35mgiV8a6clRfKAIABQH+Vg/30Y8ADgJyT2a5xeyelFAEYMa1sm8dlqIjP5/gsJwMAXbo1l4rQmatyX5MHALNznmvc3r3+wAAjZ7ecIUIlLJp98tNMEQKArh0tQYeKAb/9GfQAIKWbADriUYDAaLkl/yFCJSyfP+TjMgAwKcdJ0KFW0wcAOc1F7oSnZgKjpMwnbf+vhJVzQdaRAYBJeTBni9CpAaca/ADggsxwlTt5HTwsAjAy9nD4aSW828F/APTACZkvQmeuzV1NHwDMNQ7qxLz8QQRgRNyar4hQAQ7+A6A33ADQqWLg++MHPwBwCkCHTpAAGAllPpXHZBiyxfLr/HQYbwoAaJxZzjPrWOvUQf+OU4fwXToFoCMnZm4WlQFovL2cejJ0T88ReZsMAPTEye757nj9P/hHIA1j2H9xprvW7T2Ss0QAGu9O2/+HbpVcYPkPQM+4AaBjl+SBURgALMiZrnUn3AQANN/2ZsJD9u6clZVkAKBni73jRehQccrgf8+h3O7nFIDOHCMB0HD7OPB0yD6f47OsDAD0zDm5X4QODf4EgCENAGIA0JFbc7kIQIPdlS+LMESL5TcO/gOgx9wA0LG5mTYqA4DLjIU6c6wEQIN9Jg+LMDRPzx/zMRkA6DE3AHTsnGGcljicAUBZnO56d8IpAEBz7WvIOUSr5oK8VQYAeuzyXC9Cp4viU4fxuw5p51/LTQAduTB3igA00l35kghDs2nOdvAfAH1wjASdG6UBQE5zvTtR5nciAI30Odv/h+bzOSJLywBAHzgBoGOP5M+jNAC4Nje75p1wEwDQRAfkaBGGYrHs6+A/APrktlwsQqfOyPxRGgAM5ZmHdXTqME6GAOire/JFEYbi6TkpH5UBgD45PKUIHRrOCQBDHAC0TnLROzErJ4sANMxn85AIQ7BqLsxbZACgjwMAOjakD8THhvgNz3fVO+EmAKBZDslRIgzBRjkzL5ABgL65KReJ0Kl7c/WoDQCm50LXvbMBwAIRgMZ4wPb/ofh8js2yMgDQR4e5AaBjxUnDijXEc4BKNwF05L6cLwLQGDvmPhEGzMF/AAyCGwA61/rDsH7nYb4f+KML35njJQAa89bgSBEGzMF/AAzCtblUhI7X/xnakfjDHABc4BSozniaJtAMD+RfRBgwB/8BMBg+/5+Ai4a3IXKYA4AF+ZNr34mrc6UIQAN8NveKMFAO/gPAAKB6ij8M7/ce6i2BpZsAOnSEBEDtHeetwWDfXGQnB/8BMCBX+MhyAlpDXAcP90yg37v4nTlMAqDmHswnRRigxfKb7OLgPwAGxJB/AqYP85T34b43uCPXuv6duDZXiADU2r/Y/j9Az87pDv4DYIAc8jsBp2T+qA4AUrgJwB8pYAQcn4NFGJhVMy1vkAGAgbkk14jQseHeCD/kAUDrJC+AzrgJAKiv6dlRhIHZLOc4+A+AgXIDwIQMdQ087NsDT88cr4BOXJvLRQBq6l9ypwgDUWSnHJalhABgoOxWnoArctsoDwBm5ByvAX+sgCb7XQ4QYSAWy74O/gNg4C7IjSJ0bJiPAKzCAMCjADvmJgCgjh7Jp0UYiGfnjHxEBgAGzg0AEzHsm+CH/0HBiV4Enbkul4kA1M4Xc4cIA7Bazs3rZQBg4Mr8VoTOzcyZoz4AuCK3eB10xk0AQN2ckv1EGIDNcnZWlAGAIZiWW0Xo3J+GfQZeBW4VLH7nddAZm2uAenk0n0gpQ79/ijr4DwBrlJoo/zDsr6ACA4CWAUCHrsulIgA18qXcLkKfOfgPgKGu5dwAMDFDX/tW4T3DnzLTK6EzbgIA6uPU/FqEPnPwHwDDXsrdJULnrsjNBgDJ7JzqtdCZQyUAasL2//5z8B8Aw+ZRvxNRnDD8r6ESuwZLNwF06Mb8RQSgFr6c20Toqw/kHAf/ATBUM3KUCBNQhZvfq3Hb4PE+JuqUmwCAOjgte4nQR0V2yqFZUggAhrw2eVyEzj2U8wwA/uouj7jvlJsAgOqbkU+a6/bR4tnPwX8AVIAbACaiODHzDQD+L4abADp0Uy4WAai4nXKjCH3z7JyerWUAYOjuzBkiTEA1nn43JkbdHCEBUGmn55ci9M3qDv4DoCL2zwIROjc/f6zCl1FUJMdYcXdW8KroxHNzS6bIAFTUzKyeG2Tokw9kX3f+A1ARr8o1InTu9HLdSiy8K5KjVfzRa6IzttoAVbaz5X+fOPgPgCo53/J/Qqry5LvKnCHkJoDOHSgBUFHTspsIfeHgPwCqxQGAE3RCNb6MojJBlivuzyJeF51YOndnKRmAypmZNXK9DH3w7ByTNWUAoDLm5nl5QIbO3VS+uBpfSHU+THgk07wuOvN4jhUBqKD/tPzvi9VzruU/AJVyguX/hBTHVeUrqdBuwtJNAB1zEwBQPefm5yL0wQdydlaUAYBKcQPAxLROrMpXUlSoysuKa700OjMlt+dZMgAVMievzVUy9PyH9JfzHXf+A1AxD+a5mStD5x4tn1GVYFV6V3FdrvTa6MyCHCwCUCn/afnfcw7+A6CaDrL8n5Did9UJVqn3FcUxXhydchMAUCXn56ci9Nhzcka2lgEAa5Haa1VonVtUqszrigu9PDp1aVYRAaiEOXmdLVw9tnqOcec/AJV0VVYWYUJvlMoV8mhVvphq7Sy8KLd7fXTqIAmAivhvy/8e29zBfwBUlgMAJ+iU6iz/qzYAKAvPt+vYgVkgAlABF+cnIvRQkZ1ySJYUAoBKajmNbKKL3GOq9NVU7Gyh1jFeIJ26K38SARi6Odkm82TomcWzv4P/AKiwU2zanuASNycYADy5M/Kg10inbL4Bhu9buUKEnnlOzsiHZQCgwvaXYGLOyT0GAE9ufnGi10injsrjIgBDdUl+KELPrJ5zs6YMAFTYgzlKhAmp1g0A1RsAuAlgAmZELGCY5tr+30Ob5+w8XwYAKm3/zBZhYgwA2vhDZnqVdMoTOIFh+k4uF6EnHPwHQD38WoKJuSw3GQCMb2ZO8Trp1Cm5QwRgSC7N90ToCQf/AVAPZ3nw7wSVR1ftK6rg+42q3SVRZa0cKgIwFPOzne3/PeHgPwDqYm8JJqpya9uigpGWL+7JVK+VzrzK+dvAUHw93xShB9bIMe78B6AWHs7zMkuGibilfFHKan1JVdxx+GDO9lrp1FWZJgIwcJfZ/t8Tm+csy38AauIAy/8JKo6u2vK/mgMANwFMiI04wKDNz3aZK8Nk3xRkpxzq4D8AauM3EkxQFZ9wV1Sy1ErFTRX9yipoidyZp8gADNC38zURJmnx7J2tZACgNqZlbREm5p7yuWlV7Yuq5qHDt+TPXi+dmpVDRAAG6Op8V4RJek7OtPwHoFbsO56o4sjqLf+rOgBIeYQXTOd+JQEwMPOzTWbLMClr5Ny8TgYAauSRHC7CBLWOrOJXVdXHDh9RveMSquuyXCQCMCA/zIUiTMoHHfwHQO0ckJkiTMy91TzavqoDADcBTIgNOcBgXJNviTAJRXbKIQ7+A6B2fi3BRH/m/zYLDAAmwE0AE3FQHhMB6LtWtrf9fxIWzwHZxRm3ANTO+fmLCBN911TR9WxlBwBuApiIx2NeAvTfj3KOCF1z8B8AdWW/8YTdX80bAKo8AHATgD+UQKVcm2+I0DUH/wFQV485AHDCit9mvgHABLkJYCLOy6UiAH3UyvaZJUOXPpizHfwHQE0d6Hbjib9vquxatsIDADcBTMxvJAD66CdV3clWeUW+lkOyhBAA1NQ+EkzUAzmzuu9Lqvym6UL7JTv3lNzhZGmgT27KapkhQxeWyn55vwwA1NaFeYMIE13H/qr1qap+bVXeAeAmgAmZnqNFAPqilW0t/7vy3PzJ8h+AWnPWWBfvnCq8jq3204hWKm7yvKTOvS1/EgHog5/mX0Xowlo5Ks+SAYAaezgr+hBgoh4on13VIwArvgMgt+Qir5/OnZGrRQB67uZ8TYQubJFTLf8BqLm9Lf8nrDi6usv/qg8A3AQwQftKAPRYK9vmcRkm/MP12znYwX8A1NyC7CHCxN87VXoNW/UN9i8sbnQTQOeentuzmAxAD/0inxdhgpbK/tlUBgBq7xgn2UzcfeVz7QDo3s1uApiIB3KsCEBP/xL+qggT9PycZfkPQCPsJsGEFYdWeflf/QFAysO9iCZidwmA3v0NnE/Z/j9Ba+X8rC4DAA1wVU4TYcJah1b766v8ACCHpuVl1Lkzc7EIQI/skZNFmJAtHfwHQGP8PKUIE3VrzjMAmJzbc7bX0cTesAP05ifYV0SYgCJfc/AfAI0xPQeKMPF3AwdVfWpS/QFAykO8kCbioDwoAjD5v3vzqTwmQ8eWzlH5ugwANIYHAHajVfm1aw0GADk8c72UOjcrvxYBmLS98kcROvaiTMsmMgDQnIWsfcXduCpXGABM3kPehU7M7lkgAjApd9r+PwFvzrSsLAMADXJ8bhJhwsoa3DUxVouQbgKYkFtzggjApGyf6SJ0aLucmhVkAKBRfiFBN44wAOiNYz2HamI8sROYjH3yBxE6MiW7ZM8sKgQAjeIBgF05NzcYAPTGzOJYr6eJOKX6N58AlXVXvixCR5bN0dlJBgAa5xceANiFeuxbr8cAIK2DvaAmxqEdQLc+k4dF6MBLcm7eIwMAjTM9B4jQxZI1vzUA6J2Tcp/X1ETsn0dEALqwb2y56sQ7cn5eKQMADbSPBwB249TcZQDQO/OLI72mJuLx7CsCMGF350sidGCHnJCnygBAA7XySxG6UJeD68dq80J0E8AE7ZaWCMAEfdb2/7amZtfskUWEAKCRTvAAwG7MztEGAL01LTd7XU3EDTlJBGBCDqzLz64hWj5/zGdlAKCxPACwG8VxdXmCcn0GAGVxqBeWP7xA/9xv+39bL8s5WVcGABrrqpwqQhdatTk3caxGUQ/0wpqY3+c6EYCOfTr3izCud+X8vEwGABrsxx4A2I378kcDgN67Kpd5bU1E6WGAQMcOyVEijOvzOT7LyQBAg90bB691ozg48wwA+rGgtQdggvbJoyIAHXggXxRhHIvl1/lppggBQKP9LLNF6EKd9qrXagCQ/TPfy2siHstBIgAd2DH3ifCknp4/ZhsZAGj82uFXInTjqlxkANAf9+YUr6+J+Z8sEAFo4/AcKcKTWjUX5q0yANB4e3kYcFfK/ev01dZtP+OC4gNeYhPxcFbPK2UAxvFA3psZMjyJzXJ8niEDAI03L1vnERkmrpVP1Om+67Ga5T2mLs9XrI7vSwCM67O5V4SFKrJTDstSQgAwAg7LbSJ049TcXqcvt24DgNnF4V5jE3NBpokAPKnj4q/VhVs8+2WX2v2YBIDu/ESCrpQH1OvrLWpX+E3FOV5mE/M+D/cCnsSDWdnn/wv1nBydNWUAYET8Me8WoRszymfl8Tp9wfX7aGNarvE6m5hjc7UIwEL9i+X/Qq2Rcy3/ARghP5KgK8Vv67X8r+MAIOWBXmgTLJZdRQAW4oQcLMJCbJGz8nwZABgZl+Y0EbrSOqBuX3FRw8orFje7KXNiFsvNeZYMwN+ZnlVypwz/9GPxv/LftfzhCADd+nAOEaEbd5YrplWvL7mOC+nb8ievtYmZk1+KAPyDf7H8/ydL58h83fIfgJFye44UoSvFfnVb/tdzAJByPy+2idrNU76Bv/O7HCDCP3heTs+mMgAwYn6ceSJ0tSxt7Vu/L7qeW+mPymNebxPzUPYVAfibR/JpEf7Bm3JhXiMDACPm4ewjQnfOzPUGAIMxo/it19tE/TjzRQD+1xdzhwh/Z6uckmfKAMDI2b1ux9hXRvnrOn7Vdb3RcZ3COQATdlg2FwFIcko2SCnD30zJt7OTDACMoDl5Ue6WoRuPls/OzPp92XU9Tf+M3OQ1N1Ge7gkkyaP5hOX/EyyToyz/ARhR+1v+d6k4tI7L//oOAMrS6VUTdmHOFAHIl3K7CH/z4pybjWUAYCSV+akIXWr9up5f91hti++TBV52E/U/EsDIOzW/FuFv3pJpeZUMAIyoY3O1CN25MucbAAzW7TnV626iTshVIsBIs/3/iXbIKXmGDACMrF0k6FJZ289TxmocfW8vvAk3y09EgJG2U24TIUkyNT/NHllECABG1om5UITuzM2Bdf3SixpnX7S4PSt49U3MYrkpz5YBRtRpeYfP/5MkT8thWU8GAEbam3OuCN35bfmBun7pNd4BkLmFgwAnbE5+LAKMqBn5pOV/kuSlOdvyH4ARd4rlf9fKGh+oVNS6/MuLq2v+HQzBUrnRxgkYSZ/N7iIk2SCH5CkyADDi1vGEsG7dWb6gvgfSj9U6/bU5x+tvomZkVxFgBJ2eX4qQZIccb/kPwMibZvnftWK/Oj+Pru6fn3+02M9LcKKWzc15qgwwUmZm9dww8hUWze7Z1osBAPLOnCJCd8ryZXV+UzVW8/xHZLrX4EQ9ag8AjJydLf+zfP5g+Q8ASc63/O/eafV+U1X3AcCs4hCvwYn7qbkJjJRp2W3kG6ySC7OOlwIAJPmWBF0rf1Xvr7/uA4C09vAinLhH3AsMI2RmPp7WiDfYMGdlJS8FAEhySX4vQrfuz3EGAMN1WS72Opy4H+dxEWBE/GeuH/ECn89xWdYLAQCSJN/yWOCuFftkjgHAkJV7eyFO3IPZUwQYCefm5yP9/S+WffPTJvywA4CeuLLuH2EPdenZ2qfu30LRgMuwXHFXlvRqnKhn5cYsIQM03Jy8NleN8Pf/7ByVN3gZAMDfbJnDRejWSeUGdf8WmvChyCPFEV6LE3dP9hEBGu8/R3r5v3rOtfwHgCe4OkeK0LW6HwCYNGMHQLJ2cZaX48Q9P9dnURmgwc7P2lkwst/95vmN7WEA8Hc+koNE6NY95YqZV/dvohm3RZ490h9xde327CcCNNicbDeyy/8iO+UQy38A+Ds35jARun93sU/9l/9NGQCk9FS7rnw/80WAxvp6rhzR73zxHJBdHPwHAP/gu979d6/VasTh80VDLscyxZ1Zxqty4n6Tj4kAjXRx3tiEMXUXnpuj8zovAAD4B7flZZkrQ7d+X27YhG+jKR+QPFYc4jXZje+M8P3B0GRzss2ILv/XyoWW/wCwELtY/k9CEw4AbNIAIK3dvSi7cUM8QgGa6Fu5YiS/7y1zap7l8gPAP7k1+4rQvbtzogFAtVyac70uu/HttESAhvlLfjiC33WRr+XgLOHyA8BCfDNzROj+XcZeTdlaOaVBV2VusamX5sTdn5XzKhmgSX8ZZsPcPXLf9dI5LJ9y8QFgoa7Lp3zs17355cfyaDO+lSYdknx47vPa7MZ/OQcAGuU7uXzkvucXZVo2cekB4El83fn/k3Fsbm/Kt9KkHQALxlbIm706J+7BvDSrygANcWk+NnIT/jfnpLzQpQeAJ3FFPpdShq6Vn80tTfleikZdmRcV13vwczdWyjVZVAZogPl5Yy4ase95u/zC32AAMI735TgRund1+ermzE+atVy+KSd5fXbjFmeCQkN8Z8SW/1OyS/a0/AeAcfw5x4swCeUvmrR9omjY1XlvcayXaDeek+udnQ21d1leP1JP+F02B+Y9LjsAjOudOUWE7j1WPq8pBwAmadyG+ROac3fGYN2VX4kANTc/243U8v8lOdfyHwDaOMvyf1KKfZu0/G/eAKBV7u1F2p1d8pgIUGvfy59H6Lt9R87PK110AGjjvySY3AKzYZ+TNu/IvD0zx8u0G/fnFyJAjV2d747Qd7tDTshTXXQAaOPEnCnCZJySKw0AKr6OLY72Ou3OD/OwCFBT87NNZo/I9zo1u2aPLOKiA0AbZb4pwuQK7ta076iBD81r/dILtTvT81MRoKZ+mAtH5DtdPn/MZ11wAOjAUblAhMm4rXkPUCiaeJ2KP+e1Xq3dWDo3ZAUZoHauzmtH5PP/lXNMXuSCA0AHWnlNLpNhEsqd872mfU9jjbxQu3mxdufx/FAEqOGP9x1GZPm/Yc6y/AeADh1k+T85c/Lr5n1TjRwA5ODc6/Xand1yhwhQMz/KOSPwXRbZKcdlOZcbADoyz/3/k33vcVjua953NaWR12rB2HJ5q5dsN+ZndjaSAWrk2myV+Y3/LhfPPvnXZt61BgB9sXcOEGFSyh1yZ/O+q6a+m3pOcXMW9aLtxiK52hZbqI1W1snZjf8un5ujsqaLDQAdm52X53YZJuPc8k1N/LbGGnq57ip+6zXbnXn5tghQGz8ZgeX/WrnQ8h8AJmQPy/9JKn/azO+rufspX1dc6GXbnSm5PK+QAWrgpqyWGQ3/Hj+UvbOESw0AE/BYXtrE29cH6c7yhZnXxG9srLGX7M853+u2OwvydRGgBlrZtuHL/ynZJQdZ/gPABP3Q8n+Syl2bufxPo09U2qo4yEu325fF2XmjDFBxP8sXG/39LZMDs7HLDAATdGde0fgdgn02s1wxDzbzWxtr8GU7whPtulVmZxGg4m7OfzX6+3tJzrP8B4Au/Jfl/yQVv2nq8r+pjwH8q1aWKt7u5dudW7NGXi4DVPgvuM1yfYO/v3fmD3m+ywwAE3ZZPpNShskoy4/lgaZ+c2ONvnS/ymyv327t1NTbXqARds8ZDf7udsgJeaqLDABd+HIWiDA5J+aa5n5zzR4A3F8c4vXbrWuzjwhQUbfkPxr7vS2WvbNHprrIANCF03KSCJPU1AcA/lXR8Ku3cnG5l3C3Vsh1WVYGqN6PpbwrJzf0e3t6jsjbXGIA6Eora+YSGSbnynKVJt9DMdbwy3dFzvQa7tZ9+R8RoIL2aOzyf7VcaPkPAF3bz/J/0sqfNvsIhaLxV/D9xW+9jLu1RK5xDBdUzK1ZNY818jvbPL/Jki4wAHRpVl6R22WYnAfKFTOryd/gWOMv4bG5weu4+79EvikCVEqZTzVy+V9kpxxq+Q8Ak/Bjy//JvyPZo9nL/1HYAZB8tvi5l3K3xvLnrC4DVMae+VQDv6uls182dXEBYBLuz0vzqAyTM698Ye5s+vqu+X6TB72Wu9Vq8FnjUD935isN/K6en9Mt/wFgkr5u+T9pxaFNX/4nU0bgOs4bWyZv9XLu1g15U14sA1TCh3JF476ntXNKXuLSAsCkXJvt05Jhksptck/Tv8dR2AGQ1s8z28u5e1/2lwlUwj75feO+px1yalZwaQFgkr6SeSJM1h/yl+Z/k1NG4lLOGFspr/GK7ta9eVFWkwGG7K68v2GzzKn5cb41Ij+GAKCfzszOIkxa+cnc3PzvshiRq/ny4qrR2O3QH8/NtU7nhiHbNMc26vtZPofl7S4rAEx+4Zq1c64Mk3VpufoofJujsii+Nid6TXfvzuwqAgzVfg1b/q+SCyz/AaAnDrP874Fyl9H4PouRuaLrFH/ysu7eMrkuz5QBhuTurJKHGvT9bJiDspzLCgA9MDevzo0yTNYt5UszfxS+0dHZFn96zve67t5j+a4IMDSfbdDyv8hOOc7yHwB65OeW/z1Q/ng0lv+jtAMg2bI4xEu7e4vk0rxCBhiCA/PRxnwvi+dX+YhLCgA9cm9ekUdkmKyHyhfk8dH4VkfpYLwjcpPXdvfm5fMiwBDcny815nt5bs6w/AeAHvqq5X8PFLuPyvI/I/X8pTJjxbu8vLt3U9bIy2WAAftYLmrId/LGnOLvEADooYvz2ZQyTNac8sOjMwAYrUfj7ZUHvb4n418b9hRyqL5DclRDvpOtckqe5YICQM+U+UJaMkxasW/uGZ3vdspIXdt5Y0/N2l7i3Xs4S+YtMsDAPJBNMqMRP2q+mx9nERcUAHroAI/q7oVW+bE8MDrfbjFil/eZxS1Z3Ku8e0vmqqwoAwzIB3NkA76LZXJgNnYxAaCnHs8rcpcMk3d0+f5R+nbHRuzy3lsc5DU+GTPzHyLAgBzeiOX/S3Ke5T8A9Nx3LP97ovzRaH2/xchd4RcX147YjQ89f8n8KW+VAfrugayc+2r/XbwrB+cpLiYA9NiNWTlzZJi808t1R+sbHhu9PyvFb73OJ6PMF7NABui7zzVg+b9DjrP8B4A++KLlf2/WNruM2ndcjOBVXq24ZCS/7x76VbYXAfrquLyv5t/BYvlltnEhAaAPTs4GIvTCJeVrR+05iiO5EC5OzLu92idj+VyT5WWAvnkwq9T8eTTPyW/zBhcSAPpgXlbNtTL0QLlZY5633LGxkbzQu3ixT3Zx8m0RoI/+pebL/9fkXMt/AOiTn1n+98Y1OWb0vukR3QpfnJW1veInY2ouyioyQF+ckPfW+uvfKntlCZcRAPrivrw8j8jQA+U22W/0vuuxEb3Y9gBM0vx8UQToi+n5dI2/+inZJQda/gNA3+xs+d8bt+eQUfy2R3QAkBNzsdf85JyWo0WAPviX3Fnbr/1pOTE7uYQA0DcXjeKH1n1Rfj9zR/H7Ht3T8LcoDvWyn5wVc1WWlAF66nfZuLZf+8tyTF7hEgJA/xateVvOlqEX7itXyqxR/MbHRvaSH5nrvO4n57b8WAToqUdqvP1/w5xv+Q8AfbW/5X+PlD8ZzeX/KO8ASLYr9vLSn5wlclVeIAP0zLbZt6Y/Sr6c74zwRBkABuGxvDJ3ydALj5QrZfpofuuj/H5tv9zmtT85s/JlEaBnTqnpXX2LZ7/sYvkPAH32bcv/Hil+PqrL/2TKCF/3VopiAy//ybkqr8vLZIAeeDTvquWpvs/LH/Iulw8A+uyKbJuWDL0ws/xQZo7qNz/aH9nsmQe8/ifrs5khAvTAv+X2Gn7Vb86FeZ2LBwB9VubTmSdDTxR75f7R/e6njPS1n5clinX9EZicRzIlIsJknZp/reFXvUMOzXIuHgD03d7ZXYTemFNukcdG99svRvzyL1fckqf4UzA5i+bivEoGmIQZWS031exrnppvZSeXDgAG4MG80tblXi2Af9H63Ch//6N+atMjxS/8IZisufl0ShlgEv6tdsv/5fMHy38AGNg7Bcv/Xi1dWj8a7QDFyL8EnlbcnGX9SZis3+RjIkCX/pT1azZEWzVH54UuHAAMxFlZx8dtvVr+/rK142gXmDLyr4FZY8vkLf4oTNbZ2TZLygBdmJGN8lCtvuLNc1xWcOEAYCDm5r2jfGZdb80rtxzdBwD+lQc3p/XjUT4EolcezH+IAF3ZKTfW6KstslMOyVIuGwAMyA9zlQi9eh/z69wy8g28DJKx75VuZe3BS+nMvFkGmKDTs16NNvUtnf2yqYsGAANza1b20O1emVe+PDdbtZEsX9ycZWSYrJVzURaRASZgZlbPDbX5al+co7OyiwYAA/TenCBCr5a+e7V2UMEZAEkya+ypPryevPuyjIwwIf+WP9Tma31r/ujgPwAYqCPyXRF6ZV65ZR6WwQ6Av3p6cXOWlmGylszlFgjQsWl5a1o1+Vp3yM/t8AGAgXosr8qdMvRq4fvr1idUcAjg/3mg+JUIkzcznxUBOv7z8vGaLP8Xy97Zw/IfAAbsa5b/vbOg9T0RDACeoPXDzFRh8n6fY0SAjvxnrq/F1/mM/CHbulwAMGCXZTcReqY4oCZvvPpfQoL/M/aT8gsqTN7zc6W7KaCtc/PWLKjB17lGjs6KLhcADFgra+c8GXplQfmqXCdDYgfAE/+Q/SCzVJi82/NNEaCNOdm+Fsv/LXOW5T8ADMEvLf97qDjY8v//eArA//f42Ap5gwyTd0Hem2fJAOP4ao6twY+H7+Yn7vwHgCG4Jx/IbBl6ZUG5ZR6U4a/cAvBEzy5uzBIyTN6amWa2BE/q/Kxd+c//l8kBea9LBQBD8eEcIkLvlrz7tLZT4f9YpT3R42PPyutlmLy7snTeLAMs1Jy8J/dW/Gt8aU7J2i4VAAzF77OzCL0zt9w8j8jwf5wB8Hda3/UsgN74Wq4WARbqG7my4l/hhrkgr3ShAGAoHs2nROihYu/cqoIBwJO5u9hDhF6Yk+1r8oRzGKxL8j8V/wo/n2OznAsFAEOyU24XoXdmt3YRwQBgHK1d8pgKvTAtvxIB/sHcbJN5Ff76Fs+++al7wwBgaM7IniL0ULF77lDhibzP+0czx5bKW2XozV9fH8pTZYAn+FaOqPBX9/z8Me92kQBgaGZlI8fV99KMcovMkOGJ7AD4J60f5iEVevLnLTuklAH+5tJUeQ/am3N+XusiAcAQ/XeuF6GHil0rf/LywNkB8M/mZJHi7TL0ws15UVaTAZIk87NJhfeg7ZBD3fkPAEN1Ybb38VkvPVpukVky/D07ABbmp7lPhN74Qu4UAZIk38tFFf3KpuZn2SOLukQAMETz86kskKGHyp/Y2f3P7ABYmHlpFRvI0Auzc2O2lAFyTbbO/Ep+Zc/IcdnCBQKAIftWDhWhl6bnQ5ktwz8qJFioxYvr8zwZeuOIbCYCI66Vt2ZaJb+yNXJ0VnSBAGDIrs5rMkeGHiq/Gg8AXAi3ACzc7PK7IvTKjrlfBEbcjyq6/N8qZ1v+A8DQtbK95X9vPZBfiGAAMBH75GYReuP+/LsIjLTr8o0KflVTsksOzBIuDwAM3U8q+lFBfZW75DEVFv4OkIVbkEeK98nQG5dmjbxcBkZUK5vlxsp9Vcvn6HzUxQGACrg5W2SeDL10Zz5a0cOXhs4OgCd3QK4WoVc+k+kiMKJ2zVmV+5pWzQVZ36UBgAoo88nMkKG3Tf/L4/+ejB0A4/1ZfKD4gAy98Vgey4YyMIJuzhaZW7GvafMclxVcGgCohD3zcxF669p8Ki0ZFs5TAMatU1yc1WXo1UvtpKwnAyOmzAY5pWJ/Er+c7/qrHwAq4q6sbKdsr99/vS/HqvBk3AIw7mun/JoIvVsI7ZiZMjBi9qjY8n+ZHJVdLP8BoDI+Zfnfa+da/o/HLQDju65YJyvJ0BsP5RG3ATBSbs1mldr+/9KckrVdFgCojIPyfRF6rPxYblHhyfkgqJ03FOeq1LuX2+/zThkYGe/OHyv01WyYA/MUFwUAKuOerJoHZOit35XvEWE8bgFo53xbSHqnzLZ5SAZGxD4VWv4X2SnHWf4DQKXsYPnfa63yP0UwAJjsovUrniHZO3flX0RgRF7rX67M17J0Dssu/roHgErZOyeI0GPFQfmLCuNzBkB7D46tmNfI0CuX55V5tQw03scq8/PnxTkp67ogAFApt+T9mSNDb80tP5iHZRifj4Q60Ppvx9f30mdzjwg03AE5piJfydsyLau4IABQrfVFts2jMvRYsUduVKEdOwA68djYMo7O7p2ZuSIfdrIiDXZ/3leRqeEOOSTLuCAAUDE/zl4i9Nrj5eaZIUM7dgB0pPX9PKhC7/wx+4hAg+2Y+yvwVSyeX2ePLOJyAEDFXJ2vidBz5Y9yrwrt+Ri2U18qfiRC7yyVS/ISGWikw/KhCnwVz81v83oXAwAqZ37enAtl6LX7ypfkMRnaswOgU7vlVhF6Z0Y+ngUy0EAP5AsV+CrenAst/wGgkr5l+d8H5dct/zvjDIBOzc/Dxftk6J3bs0zeJAONs13OH/rXsEMOzXIuBQBU0MX5eFoy9Nq12V7WzrgFoHNjxUVZXYbeWSwXOJ2chjk+mwz5K5ia/8nnXAgAqKTZWTNXytBz5SY5ToUOF7USdKxV/qcIvTQnH8tcGWiQ6dlxyF/BM3KS5T8AVNZXLP/74QzL/865BWAiri/emhfK0Dv3JFlXBhrjUzl7qL//Gjk1q7kMAFBRp+WzIvReWW6eu2TolFsAJub1xXma9dLUnJU3yEAjnJj3DPX33yp7ZQmXAQAq6pGs7lTxfixoD2ptrULn3AIwMRfktyL00vxsncdloAEezaeH+LtPyS450PIfACrsC5b//TC79R8iGAD0UfnlzFGhl27MV0WgAf4ttw/t914+v89OLgEAVNix2U+EPih+Zq4yMc4AmKjpY8t5el1vXZg18nIZqLXT8sWh/d6r5tS81iUAgAp7IBtlhgy991C5ZWbJMBF2AExY6zt5QIVeKrOdczuotRnZIeWQfu/Nc46zSQGg4nbMvSL0Yx3x9TykggFAv00vvyFCbz2QbdKSgdraKTcN5fctslMOzVIuAABU2q9zpAj9cFN+JcJEuQWgGxcXm2UFGXr7p3eJrC0DtXRmPjeUz/+Xy5H5tMeSAEDF3ZD3Z64MfVBulytUmCjvHbvznuJ4EXpras7MWjJQOzOzRq4fwu/7shydV8oPABU3L2/JBTL0w7nlm4d2D2aNuQWgOyfkVBF6a362zqMyUDv/NZTl/3tyvuU/ANTAzpb//VGWX7T8NwAY5CvuX7NAhd66KZ8TgZo5L7sO/PcsslOOyXLiA0DlnZSfiNCf90MH5nwVuuEMgG7dO7ZiXiNDb12WF2dVGaiNOXlP7hvw77lsDsln3b0FADVwf96dx2Toh5nlZnlEhm7YAdC11n/Ysd57O+Y6EaiNr+eqAf+OL8+5eZ/wAFADZT6Ru2XoT9tdcpsKBgCDdm/5IxF67fFs7ZRUauKS/HjAv+PGOc+d/wBQEz/LCSL0x+0DfxPWIG4BmIwLi4+4EbfX7sr8rCcDlTc3Gw10ql9kp+yZJYQHgFq4Iltmvgx9Ue6Qv6hgADAM8/NgsakMvTYtb8qLZKDivpkjBvi7LZtD8xl3/gNATczMO3OPDP1aLPybCN3zfnKS/Yrzs6YMvfbM/CXPlIEKuzSvz7yB/W4vz9F5hegAUBs7ZG8R+qNVviF/lqF7zgCYnLL8kgi9d2+29VhPKmx+thvg8n/jnGf5DwA1cpTlf98U+1r+T45bACbrtrFXZmUZeu2GPD2vl4GK+m4OHtQPOXf+A0DN3JGNMkuG/nisfH8el2Fy7y6ZrOcV12QpGXptsZyb1WWggq7JazJ7IL/TstkvmwgOADXSyjvyJxn6pNwpP1BhctwCMHl3lN8XoffmZOvMkIEK/ljfbkDL/5fnPMt/AKiZb1v+989N+ZkIBgBV8INcL0LvXZUdRKByfpRpA/l93pvz3fkPADVzQb4jQt+UX8ocFSbLGQC9sCB3FFvI0HtX5Ll5jQxUyHX50ACe6Vtkp+yVxeUGgFp5JO/IQzL0y2n5qgi9eJ9Jb0KenPVV6L3FM81JAFRGK+vmrL7/Lstm/7xXbAConQ/lMBH6ZX65Rq6QYfLcAtAj5ecH+FSwETI7H8wjMlARuw5g+f+KnGf5DwA19EvL/z4qfmH53xtuAeiVB8aelrVk6L2HcnW2sFWFCrg5W2Run3+P9+Z3ea7UAFA7l2aLAdwmOLLuLTcf0CnMBgB0qjy3+HiW1qH3rs1TzVYY/p/wbJFr+vzX8X/ll+78B4Aamp71c78M/Xsf9tmcr4IBQNXMyaPFxjL0w2l5e1aUgaHaI7/o66//tPw229nrAgB1XJ7mIwN6StCIOjf/IkKveLfZS2PFuXm9DP3w/FyUp8vA0NyWVfJYH3/9VXNUXiQzANTS/+TfReifVrlWLpShZ0tWCXr64vxCShn64fZ8LC0ZGJpP9XX5/8GcY/kPADV1fv5DhD4qfmX530tuAeitO8ZeklVl6IcbsmjeIgNDsU9+0se/hL+bn2RRkQGglh7KO/OQDH0MXG6WmTL0jlsAeu1ZxbVZVoZ+GMsfsr4MDNxdWSUP9+nXfloOzjslBoCaauU9+YMMfVR+Mnuq0Ns1Fb11T7mLCP36C/YjuUsGBu6zfVv+r5oLLP8BoMa+Y/nfXxdnHxF6yw6A3lu0uDSvkKE/3paTM1UGBuiAfKxPv/IW2TtLCQwAtXV63pEFMvRPq3xzzpOht5wB0HsLckXxMaOV/rg1rbxdBgbm/ryvL7edTcl382N3/gNAjd2bDfKoDH1U/LrcXQUDgFqsUsdekZVl6I+zs7oNFgzMNvlzH37Vp+WomBICQJ0tyPtzmQz99Gj5/jwuQ685A6AvWv9qHNgvZbbNLTIwEIflt334Vd35DwD19185VYT+vuv/j9yjQu/ZAdAfj2d28S4Z+mN2zs3WTgKg7x7IJpnR8191ixybZ4oLALV2Yj4jQn9dlE+mlKH37ADol5/nEhH65YJ8UgT67l9yb49/xSn5QQ5x8B8A1Nzt2cbatL9a5Wecr2gAUC8Lyk+mJUO/HBAngtBfJ+SQHv+KT8uJ+TdhAaDm5uVDeUCGvip2y/kq9IdbAPrnrrEV8xoZ+uXkvDUryUCfTM+Geaynv+LqOSWvFRYAau9LOVKE/rqn/EBmy9AfdgD0UevLhoP9My8fyp0y0Lcf7Xf19Nf7UM7KC2UFgNo7LLuK0GflFzNdBQOAOnqo/KoI/XNPNsksGeiD07JvD3+1qdklB7nzHwAa4LJsJ0K/nZxDRegfD6Lur7Hi7LxRhv75aE8XapAkM7JaburZr/aMHJK3iwoADfBwXp8bZeivOeVquVaGPi5QJeirVvnJzJehf/bPL0Wgx77Sw+X/63Kh5T8ANOONfba2/O+78ruW//3lEMB+u29s+awlQ/+cnLflBTLQM+dmx5492GeHHJGnSQoAjfBVO0/77/ps7ePT/nILQP8tU1yd58rQP8/MhXmeDPTEnLwmV/fkV1osP3eXIAA0xtH5QM8+IuDJlOvnVBX6yy0A/fdY+e8i9NO9+WDmyEBPfK1Hy//n5QzLfwBojKvzccv/visOtPwfQGUJBpL5pLxDhX5yGCC9cEnWyrwe/Dpvy6F5ppwA0BAP5w25QYZ+m16+IvfK0G92AAxE+anMVKGf9s+vRGCS5me7Hiz/i3w+J1v+A0BjtPIRy/9BrJi+avk/CA4BHIyHs6BYX4Z+OinrOAyQSflmDpv0r7F0DsiXTFYBoEH+M78Rof/O7+E5zIzDLQCDMrW4IGvI0E/PyoVOW6RrV+c1kz5L4qX5bVaWEgAa5JhsZl3af3PL1+RKGQbBB1WDMr/8ZBbI0E/3ZHOHAdKlBdlm0q+e9+R8y38AaJRrso3l/wAU37P8HxS3AAzOXWNPy1oy9NMduTcby0AXfpT9J/djKztlrywhJAA0yPSsl7tl6L/ryg9nvgyD4RaAQVqquDwvlKG/fpwviMBEf+pkjcyaxH//tByUDWQEgEZp5X05QYb+K8u35SwZBsUtAIM0o/yMCP32bzleBCb4432HSS3/V8sFlv8A0Dhft/wfiGJPy/+B9pZgsMYOLzdXob+WydlZRQY69ot8fhL/9VbZM0uKCAANc2ze7+7/Qbi7fHUelsEAoLmeVVyVp8rQXyvlvKwgAx25NavmsS7/26n5VnaSEAAa59qslUdkGIDy/TlahUFyC8Cg3VPuLEK/3ZLNPA+ADn2q6+X/M/IHy38AaKCHs4nl/2CcYPk/aJ4CMHgXF+tlRRn66/bclk1loK1f5ydd/pevyylZXUAAaJx5eV/+LMMgPFpumEdlMABovmnFdpkqQ39dlsWytgyM6+5smtld/Zc75Ig8TUAAaKDP53ARBqL8Qk5TwQBgFDyYRYp1ZOi30/KKrCwD49gml3TxXy2eX+Zr/vIEgEb6ab4jwmCcl884Z3HwHAI4HIsWl+RVMvTbEjk9a8rAkzg0W3XxXz0/R+T14gFAI/0xG2e+DIMwt1wjV8kweA4BHNYL/pNpydBvs7Jp7pCBhXowX+jiv3pbLrT8B4CGujpbWv4PSPlty38DgNFydvELEfrvrrwvM2VgIT6f+yb4XxT5fE72gEkAaKgHnf0/OJfmeyIMh1sAhmfJ4rK8WIb+2yyHe6HzD36XjSf4XyydX+cDwgFAQ83LBjldhsGYX66Vi2QYDudYDfNvmcuLj1qZ9t/VSdaRgSd4JBtN8JkzL83JXkUA0GCfzlEiDEjxnfJgFQwARtEtY8/Ja2XovzPzkqwqA3/zuZwxof/9e3JiVpQNABprl/xIhEG5utzaUQvD4/Pn4Vq2uNy6YhAWz2lZSwaSJH/K+hN45kyRL+c7jksBgAY7Ops7n3tQ5pdvyoUyDI93tcP1aPkJT78chNl5f26VgSQzs8ME/tA9LSdmF39RAkCDXZyPWv4PTPEjy38DgNF2SrG/CINwTzbMQzKQnXNjx//b1XNBNpAMABrs7myaGTIMyrWtb4gwXG4BGL7liivzXBkG4S35YxaXYaSdl7dkQYf/262yZ5aUDAAabFbenvNlGJRW+bacLcNw2QEwfI+UnxJhMM7KNjZ4jbQ52a7D5f/U7JIDLf8BoNHKbGf5P0DFTyz/h89TAKrgurFXZGUZBuHKzMo7ZBhZX8vRHf3vnp0TspVcANBw/53dRRicm8otMk+GYXMLQDU8vbgyK8gwGLvmsyKMpL/kDR391Fk7h+XZcgFAwx2cjziNe3Ba5bo5U4bhswOgGmbm9uIDMgzGH7NyXinDyJmf9+bODv53O+TQLCcXADTcmfmgh9EPUPGLcg8VKnElJKjMpTg671NhMJbIyXmTDCPmm/l62//N0tkrW0gFAI13ddbOwzIMzk3lanlcBgMAnujZxRV5mgyDsXzOzstlGCHX5DWZ3eZ/87Ic6TAOABgBd+dNuVWGwWmV6+QsGarBUwAq9DdR+XkRBuXBbJR7ZRidnzrZru3yf5Ocb/kPACPgsbzH8n+gih9b/hsAsDAHFUeIMCg3ZePMkGFE/DjTxv3/T80uOcqd/wAwAublg7lEhkG6uvU1EarDLQDV8vTi8jxLhkHZKEdnqgyNd3NWHXfY84wcnPVkAoARUGa7/EaGQZpfvikXylAddgBUywPlDiIMzu88EHAkftDvMO7yf+1cYvkPACPiG5b/g34n9h3L/2rxGMCquW7shVldhkG5KEvkzTI02i+z2zj/3x1ySJ4iEgCMhIPyRREG65J8NC0ZqsQtANWzXHFZVpRhcH8E9s1HZGis27JKHnuS/5+H/gHAKDktG2auDIM0p1wzl8tQLW4BqJ5Hyo+nlGFQymyfU2VorE896fL/ZZlm+Q8AI+PybGb5P+j32f9l+W8AQCdOK3YTYXDmZvNcJkMj7Zs/PMn/5705z0P/AGBk3Jp35REZBmtafixC9bgFoJqWLC7Jy2QYnBVypuCNc09WzkML+fdT8u182V9+ADAyHslbfRQ9aDPL1XO9DNVjB0BV/8BskwUyDM592TB3y9Awn13o8v8Z+X12svwHgJExNx+w/B+48t8s/w0AmIhzix+KMEg35V15WIYGOTxHLeTfrpkLs744ADA6C9Fs57ynwTs1e4hQTT4Gq67FiguzigyDtFZOzlIyNMKDWTn3/tO/3SG7ZlFxAGCE/Hv+R4RBe7hcLbfLUE12AFTXnPIjjiodrPPyfskb4gv/tPxfIr/OHpb/ADBS9rD8H4LyM5b/1TVFggq7N2XxdhkG6abckk1sjKm9E7PzP/ybl+akbCAMAIyU3+YTnq49cMUB5bdUqPD1kaDSphZn5w0yDNaO+YUItfZoVvmHsfPG2S9PEQYARspp2ShzZBi0W8rVPXGxytwCUG3zy63ymAyDtXsMLevt3/9u+T8lX8vRlv8AMGIuyPss/wevVX7c8r/a3AJQdQ/nvuK9MgzW6Vkua8lQ26v3hSf8X0/P0dnWVicAGDHX5Z2e7zQExXfLX6tgAMDkXDL2qrxahsE6OS/LyjLU0MxslIf+9n+9LifnNaIAwIi5PW/PXTIM3sXlR7NAhmpzC0ANtD6V21QYcPN8LL+XoYb+Izf87Z93yNl5gSQAMGLuzwbePA/DzHIrD9QyAKAXHi4/mpYMgzUvm+dsGWrm/L8d4Lh49vHQPwAYQY/m3blGhiEo/zXXqlB9bgGoh1vHls2bZBj0COCovCvPEqI25uQ9uTdJ8tKc7KF/ADCCZuU9OU+GYfh9viRCHdgBUBOt/8hfVBi0R/Ke3CxDbXwzVyZJNs75WUUOABg5C/KRnCnDMNxffjylDAYA9M6c8sOZJcOg3ZV35R4ZauHS/Cge+gcAo6vMtjlKhqGkL7f9322YGADQM1eVXxZh8K7Puv4+q4H52S7z8vScmK/7aw0ARtK/5wARhqLYPSeoYABA7+2WE0UYvGvzric8WI5q+l4uyutyYd4hBQCMpG/mxyIMx1UtH1PWSCFBraxQXOpUumFYI6faVl5h1+Q1+Wh2deo/AIyoX+YzIgzH7HKtXCqDAQD98q7iRFdtGN6UP2RpGSqplQ3yoWwrBACMqEPyEc/MHpJyx/xSBQMA+mhs9/LTKgzD23N8lpChgo7LSllVBgAYUadk48yRYTh+V27s9H8DAPpr8eLCrCzDMLwzx2RxGSpnXhYRAQBG1Hl5R2bIMBx3lKvnQRnqxSGA9TO73MoDAYfjpGyVeTJUjuU/AIyqv2Qjy/9haZUftfyvnykS1NB9eaTYUIZhuCZX5/3mZgAAlXhn9o48IMOQlN/MvioYADAYFxSr5ZUyDMPVuTXvde8MAMCQXZ+35x4ZhuWsbOvu/zqyjqmrpxSXZCUZhuPj2dsfHQCAIboh6+ZOGYZlerl6bpWhjuxlru8fui3djj4sv8kXRAAAGJrb807L/yEqP2X5X1duAaivO9Mq3i7DcFyQR7KBDAAAQ3kbvG5ulmFoit3LH6hgAMDgnVO8KS+WYTjOS5l1ZAAAGLD7sn6uk2F4riw3z3wZDAAYvDKnFB/JUkIMxxlZJG+RAQBggO7PerlKhuGZWW6Qu2QwAGA4Hs/lxVbOoxuW07Js3igDAMCAPJR35HIZhqj8VE5SwQCA4blxbOm8WYZhOckuAACAAXkk78rFMgxRcWj5nyoYADBU5Z+Kd+T5OgzLaZmat8oAANBnM/KenCvDMF1Xbpy5MhgAMFytnFx8LEsIMSx/yljeJgMAQB/NzMY5U4Zhml1ukNtkMABg+B7JTcUHZRie0xNPBAAA6Js5+UBOkWGoyu3zRxUMAKiGq8aek9fKMDxnZHbWlwEAoA/mZvOcKMNQFb8pv6GCAQCVUZ5abJxn6jA85xgBAAD0wbxskeNlGK4ryvdnngwGAFTH/JxSfCyLCzHMEcDcrCcDAEBP3+RunaNkGK4Z5Qa5SwYDAKrloVxdbJFCiOE5O4/nnTIAAPTIgmybQ2UYsnJ7BzAYAFBF1449NWvJMEzn5jEjAACAnpiXLXOYDENW7F1+W4UGXU8JGmWR4k95swzD9ans5g8WAMAkzc2WOUaGYbuifENmymAAQFU9v7g4T5dhuD6Z3f3RAgCY1PL/gzlOhmF7vHx9rpahSdwC0DSP5oriQ1afw3VR7s5GLgIAQJfm5INO/q+Acpv8SQUDAKrthrFF8lYZhuvi3GUEAADQlZnZJH+QYeiKXcsfqmAAQOWVZxRvyot1GPYI4I68xwgAAGCCZmSTnCrD8J1XbpUFMjSN9UkzrVBcnOfKMGwfy95mbAAAE/BYNsrZMgzffeVrc4cMzTMmQUP/wG6eeTIM237ZLLNlAADo0CN5l+V/FSwot7b8byYfTzbVHZlTvEOGYbs207JZFhUCAKCt6Xl3zpOhAsqdc4AKzeQWgAZf2+K32VSG4Vs7x2c5GQAAxvVw3pULZaiC48r3pZTBAIC6eUpxUV4kw/C9Jr/PM2QAABhn+b9B/ixDFVxfrplHZGgqZwA02fTyg25Br4KL8zY3UQEAPKn7so7lfzXMLDez/DcAoK4uKrcXoQquyVtygwwAAAtxb9bP5TJUQrmjS2EAQJ0dWOwuQhXcmrfmMhkAAP7BPVkvV8hQCcVu2U+Fhl9jCRpvkeLUvEWGKlg+v8/rZAAA+Jub887cKEM1nF++LXNkMACg7p5T/DnPlqEKls5RWV8GAIAkydXZwElJVXF/+drcLkPTuQVgFNxVbpa5MlTB49k4x8gAAJDkoqxj+V8V88stLP9HwRQJRsIdebjYUIYqWJCj87K8WggAYMSdmXfnYRkqovxiDlPBAIDmuHBsxawhQ1VGAM/Ja4QAAEbY7/K+zJChIooDyq+oYABAo5QnFe/Kc3SoxLXICVk6bxICABhRh+RDTpurjkvKTTNfBgMAmmV+/lhsnaWEqIaTU2YdGQCAEbR7dsgCGari3vLteVAGAwCa55FcXGzl4MeqOCO3Z0OXAwAYMd/Pl1LKUBXzyvfmMhkMAGimmzOneIcMVXFJLssmWUQIAGBElPlKvilDla7I53KkCqOkkGDUrvjYoeUHZaiOtXJcni4DADACFmTH7CVDlZYG+7c+poIBAM22dHFuVpahOl6V3+f5MgAADTc3H83hMlTJeeU6zmI0AKD5Xlqcn6fKUB3PyYlZVQYAoMFmZvP8XoYqubt8Xe6SYdQ4gWwUXV9u4UEfVXJX1s1ZMgAAjfVI3mX5Xy3zyi0s/0eRQwBH002ZUWwgQ3XMziF5eV4tBADQQPflnblAhkopd8zRKhgAMDrOHXtB1pChOhbk6KyQ1wkBADTMbVkvV8hQKcUvSw9jMABgtJQnFm/LC3So0BXJ75KsIwQA0CBXZP3cJEO1nFVulQUyjCaHAI6yZxYXOn6+arbJnpkqAwDQCOfmvXlQhmq5uXx9HpBhVDkEcJTdW743M2Soln3zgcyUAQBogKOzvuV/1TxWvtfy3wCAUfWX8mMpZaiW47Kev5UBgNrbNZtnlgzV0iq3ciDDaHMGwKi7emyRvFWGarkzJ2TjLCcEAFBTZb6ZnX3OVL3r8qXsr8JocwYAxdhh5eYyVM3zcmJWlgEAqKE5+XgOlaF6b/v3a22jggEALF1MyyoyVO6y5JBsJAMAUDOPZfOcJEP1nFOulzkyGABAslJxQZ4hQ9VMyU/zGRkAgBq5OxvlLzJUz63l63OfDDgDgCSZnvOKD3s1VE2Z32d63mlOBwDUxFV5e66VoXoeL9+Rm2TAAID/c1seLjaUoXrOz+XZOIsIAQBU3rl5V+6WoXpa5RY5UwYMAHiiC8eentfLUD3X5MRslGWFAAAq7ei8L4/KUEHlV7OPCvyVvcX8f1OK4/NuGarouTk+q8sAAFTWz/PFtGSo4oLvgNbHPJERAwAWZpni7KwqQxV5JgAAUFVlvplvyFBNZ5XvcPY/BgA8mecW5+e5MlSRZwIAAFU0N9vmYBmq6aZyrdwvA09cU8ATPZYzig9nUSGqp8zvMzPrmdoBABUyPZvkOBmq6aFy3dwuAwYAjOfuXFt8wCqzmqZ5JgAAUCE35R25QIZqmlu+NxfJgAEA7VydecV6MlSTZwIAAFVxbt6ZW2SoprLcNsfKgAEAnTh77Dl5rQzVdE8Oz9vzLCEAgKE6LJvlERmquv7/RnZVgX9mozcLt0jx+9gFUFmeCQAADHV5mW/mm54tV91F3mGtD7k8GAAwEU8rpuXlMlTV1Pwsn5YBABiCWfl4Dpehus4u1/foPwwAmKgXFeflGTJU1w7Z1QMbAIABeyDvz9kyVJdH/2EAQJfWLk7JYjJU15tzZJ4pAwAwMFfkvQ7+q7KHyjflWhl4MmMSMI6zy23cPVRl52RNT3cBAAbmj3mL5X+VzSs3t/xnPJ4CwPiuGJuat8pQXY/m4Lw8rxICAOi7PfORzJKhuspyG4/+wwCAyf09cvrYC7K6DtU1L0dmdt7ufh4AoI8W5Iv5WlpCVPl9+1ezuwqMz5qB9hYpjs8GMlTbRjkoy8oAAPTFY9kqv5Oh2gu7PVufVAEDAHphmeKMrCFDta2SY/JCGQCAnrs5782VMlTb78r3Zb4MGADQG88uzs0LZKi25XNY3i4DANBT52XT3CtDtV1YrpsZMtCepwDQmbvLDfOwDNX2YN7txi8AoKcOzNst/6vupnJjy38MAOitq8r3ZY4M1TYvn82nMlcIAKAHFmTnfDSzhai2B8p3m9HQKbcAMBEfLA4xNKq+N+fIPFMGAGBSHsqHcrIMVTerXD/TZKBTHgPIRFyZWcU7ZKi623NY3pLnCAEAdO2yrJ+LZKi6BeWWpjQYANA/08aemrVkqLpHc3BeklcLAQB05YhskvtkqLzyC9lPBQwA6OdfMycVK+dVOlTdvByZu7OBP+IAwETf7eUH+bQzhWqg2KXcRQUm+KqRgAlbojg5b5ahDt6SQ/NsGQCAjj2aj+VYGeqwkDu0tVVKHTAAoP+WL87Jy2WogxVycN4uAwDQkeuyaa6WoQ5OKzf0hC4mzonudOPBckMPG6mH+/KufF8GAKADJ+QNlv/1cEG5ieU/3bADgG6tUpyZp8hQD1tmrywlAwDwpMr8IP+RlhB1cH25tjMaMQBg0NYpfp/FZaiHV+RIZzcCAE/isWyTo2WohzvLN+dWGeiOWwDo3unlFpkvQz1ckzfmSBkAgIW4Pm+y/K+LR8qNLP/pnmeEMRnX5tbiffaR1MPcHJnpWc8fegDg7/w+787tMtTDrPLduVAGDAAYlkszr1hPhro4P2fmXVlaCAAgyV/v/N8us4Soh3nl+3OqDBgAMExnjS2bN8pQF7fmsLwxzxMCAMgj+XB+4VHydVGW2+UIGTAAYNh/F5089oKsrkNdPJr9smjWFgIARtxf8s5Mk6E+77n/Pb9UAQMAqvDX0YnFa/NSHeqilVNzQzbIolIAwMg6IJvlXhlqo9il/LYK9OCVJAE9sURxkg+V62W1HJaXyQAAI2hWPpN9ZajTou2A1sfcq4EBAFXytOLMvFqGOlkmu+fDMgDAiLk+m+cyGerk2PIDHr6NAQBV85zinKwkQ718NLtlKRkAYHTWkvl4pstQJ6eVG2W2DBgAUD0vKc7OM2Wol1fk0KwqAwCMgPn5r/zATvJ6Ob9cP4/LgAEA1bRmcZrHzNfN4vlePi8DADTcHdnSqf91c2m5bh6WAQMAqmvd4sQsLkPdbJa9s5wMANBYf8pWTv2vmxvKt+QeGeilMQno9U+XcpPMkaFufps35C8yAEAjlfl+3mH5Xzd3lO+w/KfXpkhAz92Yq4rNDJfq5sHsm2XzBiEAoGEeyAfyK3f+18395dtzgwwYAFAHV+fWYhM3mNTNgvwhl+adWUIKAGiMC7NBLpKhbh4p188VMmAAQF1cmoeKDWWon2tyaN6Q5wsBAI2wZz6YB2Wom5nlhrlABgwAqJMLMr94uwz180gOzFJZywYOAKi5h/OR/DALhKibueX78icZMACgbs4aWzxry1A/C3JSLsk7s6QUAFBb5+ddHvpXyzdi5VY5XgYMAKih8tSx5fJGHerouhyaNbOiEABQxzVkvp2P2/pfy7fP5XY5WAYMAKjr32Enj70wq+lQR49m/8zK2/wlAQA1c3vel/3SEqKOy/9PZh8Z6Ce3+dJvU8YOKreQoa5enwPyUhkAoDaOyfY++6/r8v9z2U0G+suz2um3Ba2P5Hcy1NUFWSO7ygAAtTA7X8z7Lf/ruv7f2fKf/rMDgEFYojgx68hQX+/Pr7K8DABQaVdlq1wmQ12X//+R76pA/9kBwCDMKt/rWaZ1dlRWzokyAECFHZDXW/7Xd/n/dct/BsMOAAZlueLkrClDnf+y2D4/9mhAAKig6flUDpehvu+yftz6kgoYANA0TylOzutkqLNX54CsLgMAVMrp+WjukKG+C7Kftr6oAoPiFgAGZ3r5zlwsQ51dmTfl+x4rBACVMT/fyDss/+u8/N+r9a8qMMBXnAQM1DOK07KyDPW2fn6T58oAAEN3W7bO2TLUeTH269b2PlthkOwAYLDuL9fLlTLU2ylZJYfKAABD9tusYflf7+X/fpb/GADQdPeV6+UqGepterbKDnlcCAAYkkezbTbPw0LU2ZGt7Sz/GTS3ADAMzy1Oz0tkqLsXZv+8WQYAGLhp2SY3yFDvZdgRra0yXwcGzQ4AhuHOct3cKEPd3Zx1s3PmCAEAAzQ7O+etlv91d6TlP8NhBwDD8vzijLxQhvpbOb/Ja2UAgIG4PB/NpTLUfQnm03+Gxg4AhuX2cp3cIkP9XZE3ZufMFQIA+mx+vp81Lf8t/2Eyrz8JGKIXFGfkBTI0wSrZN2vIAAB9c1O2ceZ/E5Zfh7c+bPnP8NgBwDDdWr4jd8nQBJdnreyceUIAQB+U2TOrWf5b/sPkX4MSMGSvKE7Ls2VohtXym6wuAwD01N3ZPifK0ISl18Gtj2aBDgyTHQAM2zXl23KHDM1wad6U7/u5BgA9dERWsfxvxvL/sNbHvE1i6K9DCaiAFxR/8kSA5nhDfpNXyAAAkzY9n8tBMjRl+b+1zf8Mnx0AVMGt5Tq5UYamOD+vsQ8AACbtD1nZ8r8py/9DLf+pyGtRAiri+cVpeYkMzfHG/DovlwEAuvJY/j17pRSiKcv/j1j+Uw12AFAVt5fr5DoZmuPcvDa7piUEAEzY6Vk9e1r+N2X5v69P/6nQ61ECKuSZxSlZWYYmeVv2zotlAICOPZqv5FcW/81Zbu3Z+rRPRDAAgIVboTglq8jQJEvky/lqFhECADrw+3w6t8nQnMXW7q3PmuZgAABP7qnFSXmdDM2yWvbMmjIAwLgezs7ZU4YmLbW+3/qKClSLMwCo3M++8h25QIZmuTRvzhfzuBAA8KROyCqW/5b/0O/XpQRU0HLFH7KWDE3zwvwy75QBAP7JPflcfitDk5Tlv+d/ZMAAADodAfw+b5SheTbPbnm6DADwBEdkxzwoQ7OW/1/IrjJQRW4BoJoeKTfIWTI08S3OK2xvBIC/uSUbZAvL/2ZZUG5n+U9V2QFAdS1Z/DbvkqGJ3p3d8wIZABhxZfbKvzkjp3nL/22zvwxU1RQJqKx5OaJ4ZV4lRPPckL0yJW+0BQmAkf5p+IHslrlCNMvc8kM5VAYMAKAbC3LU2POzhhDNMy+n5oS8Ls+RAoARND8/zBa5UYimmVNukaNlwAAAulWWx489Pa8XoonuyW/yUN6SRaUAYKRcmk1yQBYI0TSPlxvnDzJgAACTGwGcmKJYR4gmauX8/DarZCUpABgRM/Nf2TZ3CtE8D5cb5kwZMACAyTs9s4v1ZWimB7N/bs4bs7QUADTeCdk4v0tLiOa5p1w/f5YBAwDojXNyb7Ghp1Y01aXZJ0vkdQ4FBKDB7szn85VMF6KJbinXzdUyUAcWVNTHVsV+mSpDc62e3fJGGQBooPnZPf+Vx4RopqvLd+YOGTAAgF7buDg8i8vQ5L+QPpIf5hlCANAo52THXC5DU/25fHcekIG6sOOWOjm+3DCPy9BcZfbPK7KreyMBaIyH88W8zfK/uc4o17P8p07sAKBu1i5OyHIyNNtrs5tnPwJQe2UOzL/lfiGa6/hyi8ySgTqxA4C6OductfkuypuyTR4UAoAauy7vzMcs/xus2L98v+U/BgDQ99Vh+ZbcJkOztbJ/VskBKaUAoIZm5htZNacK0eTl/+6tj2e+DtTulSsBtfTs4g9ZVYbme2t+kZVlAKBWTsjnc4sMzV5Efb/1FRWoIzsAqKe7y3UzTYbmOzOvyRc9NgmA2rgzW+S9lv/N1io/b/lPXdkBQH0tWRyejWQYBc/L/2RzGQCouHn5Sb6VGUI029zyYzlUBgwAYPCmjO1RbifDaFgrP8kbZACgsk7JF3OlDE33ePmB/FEGaryAkoAaK8sTkmIdIUbBHflNbspaWVoKACrn+uyYnZ3433z3lu/I2TJgAADDc3qmF++0l2UUlLk0e2Re1spUMQCojBnZJR/OZUI0383l223ywAAAhu383FRs7LU8GubljByQ5bOaFABUQJkD8978LgukaL6LynVzuwzUnc9NaYb1i6PtDR8l6+bHhgAADNmF+ULOlWE0nFZumkdloP48BpBmOKVcLw/IMDr+lNdmm9wrBABDcle2yVqW/6Pit+VGlv8YAECVXFC+1basUdLK/nlpvpE5UgAwYHOza16Z/VNKMRKKXcsPZrYONOT1LAENsmLxh7xShtHy0nw7m8sAwMCckH/JzTKMirLcKT+UAQMAqKanFcfkLTKMmrfnx1lVBgD67pp80UPgR8m8crvsLwNN4hYAmuWh8h3FITKMmtPymmyT+4QAoJ9vMvLFrGr5P0oeLzex/KdpPDqNpllQHpUU6wgxWspcmn0yJa/JVDEA6Ll52T2b5fS0pBgdd5XvyFkyYAAA1Xd67iw2tL9l1MzOydkvS2V1lx6Anjoh78tBToEbLVeU6+ZaGWgeZwDQVJsUB2dJGUbRq/LfjgUEoEfOy04+Bh49p5ab5REZMACAOnl9cXxWkGE0vSnfz5tlAGBSrs3XcqSH/Y3eAmnf1g6ZpwPNZKcszXVBuZatW6NqWt6aLXK9EAB06YF8MavkCMv/UVOW32hta/lPc9kBQLN5LOBIWyQfz9fzLCEAmJAZ+UV2yaNCjJ755Weypww0mUMAabZZOXjspVlZiNHUykXZI4/l9VlMDAA6Mi/7ZLMcmzlSjJ7Hy/fnMBkwAIA6W1D+dmzxrC3E6L6ROyd7p5XX++sOgLZOyWb5dR4XYhTdVa6fs2XAAABqrzwl04t3uuFldM3MqTk8z8yrvAgAeFLn58P5Tu4TYjRdUa6b62Sg+bwbZlRsVhyQJWQYba/P97KODAD8E+f9j7gTyy3zmAyMAk8BYFT8tnxTbpdhtF2Qt2fjXCQEAE9wTz7tvP+RVuxZbmL5z8i83iVghDynOC6vlcFfe5vk61lVCADyUP4nu2aGEKNrQfmF/EIGDACgmZYqDsomMlDkPflmVhMCYIQ9nt3y/UwXYpQ9Vn4ov5OBUeIQQEbLvByWFOsIwXXZK1dmtSwvBcAImpGfZPOckNlSjLKbyvUyTQZGix0AjKJPFL/MIjKQjGWzfCcvEQJghMzM3vle7hFi1E0rN/XQBwwAYDSsXRydp8tAkiySD+VreZEQACNgbvbNN3OXEBZBh7Y+bgMIBgAwOl5SHJ9XyMBfLZpt8rU8RwiABpuX3+RbuVMIyvKb+YbHPmAAAKPlacWRWVcG/s9i+Vi+nmcJAdDIxf+h+WZuFIJkdvmJHCwDo8ohgIyuWTlo7BlZUwj+akEuyh65P6/JUmIANEgrR+YD2ScPS0Fyd7lB/igDBgAwku8Iyt9lVrGenTD8n3k5P3tmdlbLEmIANGLxf1i2yB55SAqS5M/l+rlGBkaZhQ+8uzg0y8rAEy2dT+TfnQkAUGtlfpf/ziVC8H8Ln8Na22amDhgAwKhbtTgmL5SBv7dEts+X8nwhAGpoQY7M93KpEPwfB/+BAQD8zfLF4Xm7DPyjRfKh7JyXCwFQI/NyaHaxz5sneqz8SI6VAZwBAH81KwePLZa1heDvtXJpfpmL8vI8WwyAGpiTX2fz7JcHpOD/u6F8R86SARI7AOCJti9+kUVlYGF/Vb4nX80bhACosMfym3w/dwvB3zup3NIjIMAAABbmTcVvPQieJ7N2vpz3yABQQQ9kt+xqlcc/L3b2bH0283QAAwBYuOcWR+X1MjDeEGAjf3UCVMi92SM/yaNC8I/mlDvm1zKAAQCMZ/GxPcqPycCTWy3/mq0coQJQATdn1/wqs4Xgn91ffiBnygAGANDeDsVumSoDT27l7JQtvEgAhuiKfC+HZYEQLMxfyk1ymwxgAACdeVdxSJ4iA+M0Bbk7AAAcyUlEQVR5dnbI5/NUIQAGv7rLT3NgWkKw8CXOfq1PZ5YOYAAAnXtJcWxeJQPjWy7b53N5vhAAA1LmpPxPThGCJzO//M98XwYwAICJWqbYP++TgXbGspGHBAIMwNwclh/lciF4cveXW+RPMsCTcYoVjPc+44ixsbzVoIzxlbku++TUPCMv9WIB6Ne6Lr/I1tk/90nBkzunfLsJEYzHe1VoZ8PiQLd505mX5jPZPksIAdBT12f37JWZQjD+wmbP1ucyVwcwAIDJWbH4bV4nA51ZIZ/OZ7O8EAA9cU5+kBNSCsH4Zpefya9lAAMA6IXFx3Yrt5WBTi2WLfKVvEIIgEmYm2Pzo1woBO3dXm7mpQIGANBLOxQ/z6Iy0KmxbJTPZX0hALrwSPbLj3KHEHTi9HILh0OAAQD02uuKI/MCGZiItfK5bGZyBDAB1+an2d9D3OlMWfyg9R9ZIAQYAEDvPbM4LG+TgQm+bLJNPp0VhQBo65zsmqOs5ujUY+U2OUoGMACAfpky9p3yy/7kMFGLZNN8Jm8RAuBJzMgh2T1/EYLOXVN+IFfKAAYA0F+bFPtlORmYuFfkU/lElhIC4O9cn19nrzwkBBNZxhzY+lRm6AAGANB/LyuOyqtloBvLZsv8S14pBECSVk7Lzz3mj4maXX4lP5MBDABgUJYe+3W5uQx0Zyxvz/Z5f6ZIAYywe7JffpnbhGCibi0/mAtkAAMAGOyfni8W38siQtCtF2e7bJ+nCQGMoIvy8xySeUIwcUeXH88jMoABAAze64rD80IZ6N7i+WC+mNWEAEbGozk0u+VyIejG/PI/8wN3jIABAAzLcsXe+YAMTM7bskM2zeJCAA33l+yRg5zbRrfuLLfIOTKAAQAM90/R54sfZFEhmJyn5IP5VFYXAmikuTk2e+UUIeje6eWHco8MYAAAw7dmcZhbAeiFN+YT2cKDAoFGuSH75Ne5Xwi6VxY/aP1HFggBBgBQDcsX+2UjGeiFZbJpts76QgC1NyfHZa+c6pZtJue+8iM5SQYwAIBq/Wn6fPFDTwWgV16Vj2S7LC8EUFNX5YDskweEYLL+VG6du2QAAwCoHrcC0FOL5b3ZPuv5qxqolUdzaA7M2UIweQvKb+dbtv6DAQBU1fLF/tlQBnrpFflEPppnCAFUXitnZN8cmVlS0At3lFvlLBnAAACq/afKrQD03KLZIFvn/ZkiBVBRt+fg7J0bhaBXjiu3zYMygAEAVN/axSF5ngz02orZOlvnFUIAlfJYjsh+OdtRf/TOnPLL+bmXFBgAQF0sN/arcgsZ6IdXZ+tsk2cKAQxdK+fmgBycx6Wgl24pP5TzZAADAKiXjxa7e6A7/bFI3pWts3EWlwIYkqtycA7MbULQa0eW22e6DGAAAPXzyuLgrC4D/bJcNsnWnhIADNhdOTJHOuWffphV7pyfyQAGAFBXi4/9sPyMP2n00/OzVT6elwkB9H91lhNyYH6f+VLQD5eVW+ZqGcAAAOrtncV+eZYM9Ners3U+nhWEAPpiQf6UA3OUu/3pl7LYq/XFzBQCDACg/p5Z7Jt3yUC/Tcm6+Ug2y5JSAD3Tyrk5MofkPinon/vKbfM7GcAAAJrzZ+3zxQ+yqBD031Pz/nwg62WqFMCklJmWw3NE7pGC/vpjuY2XGRgAQNO8rjg4L5WBQY0BNs4HskEWkQLowlU5IgfmRiHot1nlztk1pRBgAADNs8zYj8odZGBwnpH3Z/O8LVOkADp0SY7KYblBCAbhinKrXC4DGABAc21e7JmnyMAgLZ+N8oG8y00BwLiuyhE5NNcKwWCUxc9bX84cIcAAAJrtRcX+ebMMGAMA1dDKJTkhB/nUn0G6s/xYTpUBDABgFIzlc8X3s5gQDN5zslk2z5syJgWQBTkjR+Xo3C0Fg3V0uX0elAEMAGB0rF4cmFfLwHA8Nx/IB/JGYwAYWTPzxxyXE6zBGLz/1969h2tZF+gev58X5CQKpICgaCCWgpq6KkGpPLA1R9FmFzZXjTa1yzLaO2esbLebyQ5TljXVpGWaWdrU3hutSampxDwkptUyNSENBQ/ISRSQgxzf3/yBNVoeEBZrvYfPZ10ZdqV/fC9Zr8+9nuf3rCln5RsygAEA2k2/2rnlg67A6Dm7569yYk7IQCmgjTyeH2VG/iOrpaAn3Frelj/IAAYAaE9HVJdnXxnoSf0zOSfm5OwhBbS4B3J1ZuTGbJSCnrGxfDqfzGYhwAAA7WvX2vleDUjP65UjMiVvyFgpoOVszq35UX7kbWv0rLvL6fmtDGAAAN5YXZTdZaARjMmUnJijvCsAWsKaXJ8ZuTqLpaBn1asLvPIPDADAHw2vLskUGWgUTgeAZjcvMzIjN2WDFPS8+eXvcpMMYAAAnu706kLXWzSSnXN8puREt6dAE1mT6/PT/CT3S0FjKNUl9bOdOQkGAOAvja6+ndfIQGOp5dBMzrF5XXYSAxrYvMzMj3Jt1klB41hc3pUZMoABAHh2vXNO9U/pIwSNZ2COzok5IaOkgIay5Tn/n+QhKWi0C43v1t+X5TqAAQB4PgdW30qHDDSqg3N8jsuk9JUCetTG3Jrrcl1uyyYxaDzLypm5UgYwAAAvrHfOrj7u+opGNiBH5NhMtlVBD5iXmbkuP8tKKWhUM8q7s1AGMAAAW2t8dVleJQONbkwm59gcl0FSwA63KDfnuvw4C6SgkS0tH8zlMoABAHhx3AdA0+iTSTkux+TQ9BIDutxDuSE35sbMk4LGv7iYXp+WR3UAAwCwLcZVl+XVMtAsBmZCjs2kvNobA6ALbPmJ/6zMloLmsKRMy1UygAEA2Ha9c3Z1bvoJQTMZktfkqBydg1ITA160+3NzbsoNmS8FzXRZMb3+3izTAQwAwPYaW30zr5GB5rNLDs+xmZxDDQHwgjbn3tycW3JjHhSDZrOkvDfflwEMAEDXqOWd1RczQAia0+6ZmCMyOYf52IG/sCZ35Obckl9khRg05wXF9PqZeUwHMAAAXWnf6pt5rQw0s2E5Kq/LazLOHQGQubk1v8ovc1c2iUHzWlzOzL/LAAYAoOv1ylnVJ9wHQPMbmENyZI7MxOwmBm1mde5MZ2blBgel0/xKdVn9bLeugAEA2HFGV1/L8TLQGmoZl4mZmAl5uQ8kWtrG3J3f5Ne5NXNSl4PWsLCcmatlAAMAsKNNrS7MUBloJbvm1TkyHTkyQ8SgZWzOvenM7elMZ56Ug1ZSqkvqH8gqIcAAAHSHIbXzyrv8Dqb19MpBOSITMjH7ikGT2pR78tvcnt/kt1krB61ofnlXrpMBDABAd3pddXFeJgOtangOz2E5LIdlpBg0gdW5K3fkzvw2d2edHLSuUl1SPzurhQADANDd+tc+Vs5ObyFobXvksHTk0ByWvcWgwTyU2bkzd+SO3OfZftrB/eWduUEGMAAAPeUV1SV5lQy0h0E5KB05LB05wAcYPWZF7s+c3J7ZudNJ/rSTevWN+j9kjRBgAAB6Uu9Mqz6VgULQTgb/6a6AsanJwQ63PPdkTu7J73J3FspBO5pd3pFfyQAGAKARjK4uynEy0I52zSE5KOMzPuPzEjnoQg/lntyTe3Jv5mSJHLSzTdUX6h/LeiHAAAA0zu/m06svZDchaGcjMj7jMy4HZlwGycGL9ljuy9zcl/tyb+51yhlscUd5e+6QAQwAQKPZvXZeeYff15AkozIuB2X/HJQDPCHDc1qa+U9d8s/NfVkuCDzTuvLJnJ+NQoABAGhMHdXXHAoIz/yoe+lTdwWMy1h3BrS5lZmfBzI/D+SBzMsDzjOD53NTeXfukQEMAEAj651p1SeyqxDwbIZmbPbLvhmbsdkvgwVpaRuzKA/l4SzII3kwD2e+n/HD1lpePpxLUoQAAwDQ+EbUPltOkwFeyO4Zm7HZN/tlbMY6RLDJrcjCLMkjWZJHsiAL8lAWpy4LbMslwvT6NG+5BAMA0EyOri7MATLA1ntJxj41CIzJ3hmR3pI0qJVZkmVZlmVZlKVZmMVZlEV5UhjoCvPKe/NTGcAAADSbnfLe6p+zsxCwLXplj+yTvbJXRmVU9sqo7OFjsxttyPIsz/I8/qf/XpalWZplWZYN8sCOsan6av0jDscAAwDQrMZUX8lfyQBdoU/2zF7ZJ6OyZ0Zl7+zlzZvbZGU2ZWU2ZvVTXyvzRFZnTVZlRVZndVZkeZZ7CR90v9vLGemUAQwAQHObUn0l+8gAXa9/9sywDM2wDM/uGZo9MjRDMzS1Nu/yZJZkUZZmcRbn0SzM0qzNE1mftVnjp/fQmNaUT+bz2SwEGACA5jcgH6r+d/oIAd2hlt0zNEMzIkOzW4ZneIZm9wzN4Jb72H08y/JYluWxPJZleTSP5bE8mkV5wj8E0FxmlGl5SAYwAACt46Dqq5kkA/SkwRmcIU/7z+AMzMAMyq4ZmJ2zawY11L0Dy7Mma7I6K7I2K7MiK57644qsyPKsyApn7EMreKT8z/xABjAAAK33O/606vwMEwIa14AMzMD0yq5JBqfKLumd/umXnTIwVQYlGZRadk6f9M2Ap/6aIVvx912VTUnWZ22SkhV/+t+ezPqsyYasyYaszsasysasyOqscQoYtINN1Vfr/+imHTAAAK1qSO3c8r62f0AZALipTMvdMoABAGhtHdXX8ioZAKBtLS7n5IoUIaC99JIA2tCiXJbHqyPSVwoAaDv16pJySn4lBLQfdwBA+xpR+2w5TQYAaCu/Ke/Nr2UAAwDQfo6uvpr9ZQCAtvB4+US+4gUe0L48AgDt7YFckjXVpPSWAgBaWr36TpmS6z33D+3MHQBAsm91QV4vAwC0rNvLtNwqA7Q7rwIDkvvLCeXNeVgIAGhBj5f3lFe5/Ac8AgD80ex8PZuqCR4GAIAWUq++U07OTW78BxKPAADPNKr2z94MAAAt4vpyVu6SATAAAM/lmOrLOVAGAGhqD5eP5nIZgKfzCADw5+bnkjxeTUw/KQCgKa0tn86b0ykEYAAAXkg9t+WSWr+80kGhANBkSnVlOSU/zCYpgD/nEQDguR1WfSVHyAAATaOzvD+zZACenZ/uAc/t9jKpvC2LhQCAJrCovLu82uU/8Nw8AgA8vztzUTZWE70eEAAa2MbqwvLG3OJ1f8Dz8QgAsDX2r87PSTIAQEP6YflA7pMBMAAAXeWY6gs5RAYAaCid5YO5XgZgazgDANhaPy8d5dQ8JAQANIgF5d3l1S7/ga3lDABg65XMycVZVR2evmIAQI9aXT6Tv8ltnvoHDADAjrIxs/Lt2i45xB1EANBTn8bVpeWv86NskgJ4MZwBAGybcdXnc4IMANDtZpazMlsGwAAAdKfJ1RdzoAwA0G1+XT6Qm2QAto1beIFtN7McWt6dpUIAQDd4qLytHO7yH9h2zgAAtkc9nbkoG6sJ6S0GAOwwy8vH87fpFAIwAAA9aUNuyL/VdstBHioCgB3gyepLZWpmOvIP2F7+dR3oKuNq55apMgBAF6pXV9U/lAeEAAwAQKOZWJ2X18oAAF2gVFfWP5o/CAEYAIBGNbn6Qg6WAQC2y8zyYc/8AwYAoNHV8sbqsxktBABsk9vKR/JzGQADANAc+uTvqk9mmBAA8KL8vnwsV6YIARgAgGYyMNOq/5NdhACArfJw+VQuzWYhAAMA0IyG1s4uf58+QgDA81pWPp8vZ50QgAEAaGYvr51bTk1NCAB4VivKF/KlrBYCMAAArWBc7cPlrUYAAPgzq6sL65/NciEAAwDQSg6s/VN5k+87APC0i//P5XEhAAMA0IoOrn20TJUBgLa3prq0/uksEQIwAACtbGL1kZwkAwBtffH/mSwWAjAAAO3gyOoTOUYGANrO+urb9XOzSAjAAAC0k0nVp/I6GQBoGxuqb9U/noVCAAYAoB1Nrj6TV8oAQFtc/H8ijwgBGACAdv4+dEr1jzlMCABa1rrq0vp5WSAEYAAASCZXn8wEGQBoOWuqS+uf85N/wAAA8HSTqo9lsgwAtIxV1WVO+wcMAADPNQKc4xWBALSAZeXCfDnLhQAMAADP7ZDaR8qbfH8CoGktLV/Lv+QJIQADAMALO7j2gfKW9BICgCbzYPliLs6TQgAGAICtN752jhEAgCYyr/xrLsp6IQADAMCLN6Z2TnlHegsBQIO7u5yf72aTEIABAGB7RoCzy9vTXwgAGtSs8rlckyIEYAAA2H5DM616X3YTAoCGUs+Py3mZJQRgAADoSjvnndU/ZG8hAGgIG6r/Vz8vc4QADAAAO8JOeUN1TjqEAKBHPVF9q/65PCIEYAAA2LEmVefkJBkA6BGLy9fzpawQAjAAAHSPw2pneUkgAN3sd+Xz+V42CgEYAAC61761/1XOSD8hAOgGs8pnM8NZ/4ABAKCnjKy9v5yRwUIAsMNsqq6qn59OIQADAEBPG5i3VGflACEA6HJPVN+q/0seFAIwAAA0ilqOqd7vaEAAutB95YJ8I2uEAAwAAI3nkNqZ5XSnAgCw3WaVL+f72SwEYAAAaFzDc2Y1LbsLAcA2WV/9//rncrcQgAEAoBn0zZurD2W8EAC8KIvL13NBlgkBGAAAmsuk6pyc6DsdAFvl9vLlfC8bhQAMAADN6cDaWeUt6S8EAM9pY/WD+pfySyEAAwBAsxuUN3tNIADPanH17fqFeVgIwAAA0CpqOaZ2Rvnv6SUFAE/pLP/qpn/AAADQmvatvau8M7sJAdDmVlXfq1+Q3wkBGAAAWlnfnFz9fSYKAdCm7ikX5dKsFgIwAAC0h47aGeU0hwMCtJUN1Q/rF+e6FCkAAwBAexmWt1dnZh8hANrAoury+gVZIARgAABoV71zSvWeHJOaFAAtqp5ry9dzTTZJARgAANgrb62mZZQQAC1mUXV5/eLMEwLAAADwX3rlaC8KBGgZ9fy8XJwf+Lk/gAEA4Nntmb91LgBAk3uk+k79a3lQCAADAMDzq+WY2hnlr9NbCoAmsznXl4vz/WyWAsAAALC1Rua06j15qRAATWJuuTTfyhIhAAwAAC/elnsB3pCdpABoYOurq+sX57oUKQAMAADbY0ROrd6eVwgB0IA6yxX5tywTAsAAANBVOmqnl7dkdyEAGsSianr9m7lTCAADAEDX65uTq9PzescDAvSo9bm2XO4VfwAGAIAdbWSmVv8jBwkB0APc8g9gAADoZh2108tbs5sQAN1kYXVl/dLcJQSAAQCg+/XLlOr0nJBeUgDsQOuqa+pX5D/c8g9gAADoWXvnrdVbM14IgC63OdeX7+b7WSkFgAEAoFGMz9TqtIwRAqCLzCmX54osFALAAADQeGo5ojbVywIBttOD1f+tX5Z7hQAwAAA0tr45rja1vDEDpAB4kR6rrqpfkVkpUgAYAACaxaCcUk3N69NbCoCt8GQ1o35FfpKNUgAYAACa0chMrabmSCEAntP6XFum56qskQLAAADQ7Mbl1GpqxgkB8AwbMrNMzw+zXAoAAwBAKxmfqdWpOUAIgGzOrWV6vptHpQAwAACYAQBc+gNgAABogRngzdlfCMClPwAGAID2mAH+Ji8XAnDpD4ABAKD1HVo7tbwpY4UAWtC6XFeudMwfgAEAgP8yJlOqqTnCd2agRazJ9WV6/j1PSAFgAADgL+2d11dTcnx2kgJoWo9WP6lPz0+zQQoAAwAAz+8lOal2UjkhA6UAmsq8akZ9em5JXQoAAwAAW69/JtdOKm/IMCmAhjenTM816RQCwAAAwLbaKUfV3lBOyZ5SAA1oY24sP8jVWSAFgAEAgK75ft2RE6uT0uE7N9AgllY/rv84P8tKKQAMAAB0vaE5qjalnJxBUgA9Zk51TX1mbsgmKQAMAADsWL0zoXZSOTkHSAF0o7W5pczIVW73BzAAANDdxmRKdVJemz5SADvU/Ora+oz8LOulADAAANBzBue42knlhOwuBdDFNuYX5ceZkXulADAAANAoeqUjx1fH5/D0FgPYbnOrn9Z/luuzWgoAAwAAjWnnTKxNKVMyWgpgG6zJL8uMXJ35UgAYAABoDmMyuTa5HOd9AcBW2Zw7qpn1mbkpG8QAMAAA0Hx65xWZUp2UQ1MTA3hWi6tr69fkujwuBYABAIDmNzz/rXZ8OTYjpACesiI3lZn5mQP+AAwAALSiLQ8GHO2NAdDG1uaWMis358ZsFAPAAABAewwBkzNECmgbm3JnNbM+M7/IejEADAAAtJdeOSSTakeW47OrGNCy/ni8381ZJwaAAQCA9tYnh+eY6uhMSF8xoIUu/G+vrq9fn19kjRgAGAAAeLoBOTyvqV6TCRkoBjStdflVdVN9VmZllRgAGAAAeD69sn+OrE0uR2WoGNA0VuW2Mis3u9UfAAMAAC/emEyqHVkmZZwU0LAW5zfl5szMb1MXAwADAADbZ0Qm1SaVI3NoamJAg5hXzarfnFmZLQUABgAAutpLMrF2eJmQw703AHrIE/l19cv6bbktj4oBgAEAgB1vTCbVOtwTAN1mXjWr3pmb3egPgAEAgJ4xMIeko3ZkeV2GiQFd7on8qsxKZ2blcTEAMAAA0Bj2y+G1CWVCXpHeYsB22Zi7qlvrt+W2/EEMAAwAADSqnfKydNQ6Skdemb5ywFbblD9UnfXOdKYzT8oBgAEAgGacAl6VPnKAy34ADAAAmAKgvWzOvU9d9t+etXIAYAAAoPXsnEPTUXtFOTgHekCAtrM6v6vuqt+RO3Ony34ADAAAtIve2Tvj01F1ZFxG+0SihS3K7GpOvTOd+b1X+AFgAACgvQ3OgemojSvjc1j6y0EL2JD7qs56Z2bnzjwqBwAGAAD4cztl/xxcO7gclAOyj88pmsqmzMvd1e/rd+WuzM1mQQAwAADA1umT/TIu42vjyvi8PL0EoSEv+h/KnGp2fU5m5/ee6wfAAAAAxgBa86J/jlf3AWAAAIAdpV8OyP618dmv7Jf9MlAQusGjmVvdW5+buZmTudkoCAAGAADobkMyJuNr4zKmjMkBGSAIXWR97q9mZ159Xubl7iwWBAADAAA0jl7ZJ/vlZbWXlf3ysuztUQFelHW5P3+o5tbnZm7udckPgAEAAJpF37w0L83o2uiMLqMzOrtJwjNszoLMr+bX52fL10JJADAAAEAr6JeRGZMxtTEZU8Zkv+wqSdtZnnnVvMyrL8rCzHNqPwAGAABoD8MzOi/NnrVRZVT2yqgMT02UlvJkHs6CakEeqi/IgjyYB7NKFAAMAADAThmaERmTkbURGVNGZkT2cYpAE9mQx7KwmpdF9YWZl0VZmAdSlwUADAAA8ML6ZGT2ysjsURuekWVYRmZ4hhkFGsDaLMriLK4W1pfmkSzNwixyaB8AGAAAoCvVMizDMjLDMqK2R4aXkRmW4XmJMDvI+jyWZVlYLcmi+uIsycIsySNZLQwAGAAAoGf0z4iMzJAtX7UhGVG2/Jk7BrbOuizMoiyvlmd5ffmWX2d5lmdRijgAYAAAgMbXK7tlt+yWIRmUQRlcG5RBGVIG5Y9fA9qkw4qszIqszMpqRVZmZX3Ln2/5WpqV/kEBAAMAALS2nbYMAxmcQRmQAdk1fWu7ZOf0zeDSP/0yOH2zc3ZJ3wZ8bWHJijyZdVme9VmbldW6rMkTWVdfnVVZl1VZnbX544U+AGAAAAC20oD0Td8MSLJLeqeWQUn6pX+SXdMrvbNLUhuQvs/4awb92csN+6dfkmTFM26tX5+1T/8/1VemnmRVNmVTVj3jV6uz8Wm/AgAAAAAAAAAAAAAAAAAAAAAAAAAAAAAAAAAAAAAAAAAAAAAAAAAAAAAAAAAAAAAAAAAAAAAAAAAAAAAAAAAAAAAAAAAAAAAAAAAAAAAAAAAAAAAAAAAAAAAAAAAAAAAAAAAAAAAAAAAAAAAAAOg+/wkEETCdzzfu6gAAACV0RVh0ZGF0ZTpjcmVhdGUAMjAyMS0wNC0zMFQwODo1MTo0MCswMDowMOGaTr8AAAAldEVYdGRhdGU6bW9kaWZ5ADIwMjEtMDQtMzBUMDg6NTE6NDArMDA6MDCQx/YDAAAAAElFTkSuQmCC;fontFamily=Comic Sans MS;" vertex="1" parent="1">
          <mxGeometry x="-251" y="36" width="145" height="145" as="geometry" />
        </mxCell>
        <mxCell id="vKnNRoz7A6DcVykYE2kj-117" style="rounded=0;hachureGap=4;orthogonalLoop=1;jettySize=auto;html=1;exitX=1;exitY=0.25;exitDx=0;exitDy=0;entryX=0;entryY=0.5;entryDx=0;entryDy=0;fontFamily=Architects Daughter;fontSource=https%3A%2F%2Ffonts.googleapis.com%2Fcss%3Ffamily%3DArchitects%2BDaughter;fontSize=16;endArrow=classic;endFill=1;strokeWidth=7;fillColor=#d5e8d4;strokeColor=#82b366;flowAnimation=1;" edge="1" parent="1" source="vKnNRoz7A6DcVykYE2kj-11" target="vKnNRoz7A6DcVykYE2kj-57">
          <mxGeometry relative="1" as="geometry" />
        </mxCell>
        <mxCell id="vKnNRoz7A6DcVykYE2kj-118" style="rounded=0;hachureGap=4;orthogonalLoop=1;jettySize=auto;html=1;exitX=0.999;exitY=0.385;exitDx=0;exitDy=0;entryX=0;entryY=0.5;entryDx=0;entryDy=0;fontFamily=Architects Daughter;fontSource=https%3A%2F%2Ffonts.googleapis.com%2Fcss%3Ffamily%3DArchitects%2BDaughter;fontSize=16;exitPerimeter=0;endArrow=classic;endFill=1;strokeWidth=7;fillColor=#d5e8d4;strokeColor=#82b366;flowAnimation=1;" edge="1" parent="1" source="vKnNRoz7A6DcVykYE2kj-11" target="vKnNRoz7A6DcVykYE2kj-65">
          <mxGeometry relative="1" as="geometry" />
        </mxCell>
        <mxCell id="vKnNRoz7A6DcVykYE2kj-119" style="rounded=0;hachureGap=4;orthogonalLoop=1;jettySize=auto;html=1;exitX=1;exitY=0.5;exitDx=0;exitDy=0;entryX=0;entryY=0.5;entryDx=0;entryDy=0;fontFamily=Architects Daughter;fontSource=https%3A%2F%2Ffonts.googleapis.com%2Fcss%3Ffamily%3DArchitects%2BDaughter;fontSize=16;endArrow=classic;endFill=1;strokeWidth=7;fillColor=#d5e8d4;strokeColor=#82b366;flowAnimation=1;" edge="1" parent="1" source="vKnNRoz7A6DcVykYE2kj-11" target="vKnNRoz7A6DcVykYE2kj-66">
          <mxGeometry relative="1" as="geometry" />
        </mxCell>
        <mxCell id="vKnNRoz7A6DcVykYE2kj-120" style="rounded=0;hachureGap=4;orthogonalLoop=1;jettySize=auto;html=1;fontFamily=Architects Daughter;fontSource=https%3A%2F%2Ffonts.googleapis.com%2Fcss%3Ffamily%3DArchitects%2BDaughter;fontSize=16;entryX=0;entryY=0.5;entryDx=0;entryDy=0;endArrow=classic;endFill=1;strokeWidth=7;fillColor=#d5e8d4;strokeColor=#82b366;flowAnimation=1;" edge="1" parent="1" target="vKnNRoz7A6DcVykYE2kj-68">
          <mxGeometry relative="1" as="geometry">
            <mxPoint x="167.5" y="-159.5" as="targetPoint" />
            <mxPoint x="-46" y="-799" as="sourcePoint" />
          </mxGeometry>
        </mxCell>
        <mxCell id="vKnNRoz7A6DcVykYE2kj-121" style="rounded=0;hachureGap=4;orthogonalLoop=1;jettySize=auto;html=1;exitX=1;exitY=0.75;exitDx=0;exitDy=0;fontFamily=Architects Daughter;fontSource=https%3A%2F%2Ffonts.googleapis.com%2Fcss%3Ffamily%3DArchitects%2BDaughter;fontSize=16;entryX=0;entryY=0.5;entryDx=0;entryDy=0;endArrow=classic;endFill=1;strokeWidth=7;fillColor=#d5e8d4;strokeColor=#82b366;flowAnimation=1;" edge="1" parent="1" source="vKnNRoz7A6DcVykYE2kj-11" target="vKnNRoz7A6DcVykYE2kj-67">
          <mxGeometry relative="1" as="geometry" />
        </mxCell>
        <mxCell id="vKnNRoz7A6DcVykYE2kj-138" style="rounded=0;hachureGap=4;orthogonalLoop=1;jettySize=auto;html=1;entryX=1;entryY=0.5;entryDx=0;entryDy=0;fontFamily=Architects Daughter;fontSource=https%3A%2F%2Ffonts.googleapis.com%2Fcss%3Ffamily%3DArchitects%2BDaughter;fontSize=16;exitX=0;exitY=0.5;exitDx=0;exitDy=0;strokeColor=#0e8088;strokeWidth=7;fillColor=#b0e3e6;flowAnimation=1;startArrow=none;startFill=0;endArrow=classic;endFill=1;" edge="1" parent="1" source="vKnNRoz7A6DcVykYE2kj-67" target="vKnNRoz7A6DcVykYE2kj-12">
          <mxGeometry relative="1" as="geometry" />
        </mxCell>
        <mxCell id="vKnNRoz7A6DcVykYE2kj-139" style="rounded=0;hachureGap=4;orthogonalLoop=1;jettySize=auto;html=1;entryX=1;entryY=0.75;entryDx=0;entryDy=0;fontFamily=Architects Daughter;fontSource=https%3A%2F%2Ffonts.googleapis.com%2Fcss%3Ffamily%3DArchitects%2BDaughter;fontSize=16;exitX=0;exitY=0.5;exitDx=0;exitDy=0;fillColor=#fff2cc;strokeColor=#d6b656;strokeWidth=7;flowAnimation=1;startArrow=none;startFill=0;endArrow=classic;endFill=1;" edge="1" parent="1" source="vKnNRoz7A6DcVykYE2kj-68" target="vKnNRoz7A6DcVykYE2kj-16">
          <mxGeometry relative="1" as="geometry" />
        </mxCell>
        <mxCell id="vKnNRoz7A6DcVykYE2kj-140" style="rounded=0;hachureGap=4;orthogonalLoop=1;jettySize=auto;html=1;fontFamily=Architects Daughter;fontSource=https%3A%2F%2Ffonts.googleapis.com%2Fcss%3Ffamily%3DArchitects%2BDaughter;fontSize=16;exitX=1;exitY=0.5;exitDx=0;exitDy=0;fillColor=#fff2cc;strokeColor=#d6b656;strokeWidth=7;flowAnimation=1;startArrow=none;startFill=0;endArrow=classic;endFill=1;entryX=1;entryY=0.5;entryDx=0;entryDy=0;" edge="1" parent="1" target="vKnNRoz7A6DcVykYE2kj-16">
          <mxGeometry relative="1" as="geometry">
            <mxPoint x="761" y="-380" as="sourcePoint" />
          </mxGeometry>
        </mxCell>
        <mxCell id="vKnNRoz7A6DcVykYE2kj-141" style="rounded=0;hachureGap=4;orthogonalLoop=1;jettySize=auto;html=1;exitX=0;exitY=0.5;exitDx=0;exitDy=0;entryX=1;entryY=0.25;entryDx=0;entryDy=0;fontFamily=Architects Daughter;fontSource=https%3A%2F%2Ffonts.googleapis.com%2Fcss%3Ffamily%3DArchitects%2BDaughter;fontSize=16;fillColor=#fff2cc;strokeColor=#d6b656;strokeWidth=7;flowAnimation=1;startArrow=none;startFill=0;endArrow=classic;endFill=1;" edge="1" parent="1" source="vKnNRoz7A6DcVykYE2kj-65" target="vKnNRoz7A6DcVykYE2kj-16">
          <mxGeometry relative="1" as="geometry" />
        </mxCell>
        <mxCell id="vKnNRoz7A6DcVykYE2kj-3" value="" style="rounded=0;whiteSpace=wrap;html=1;hachureGap=4;fontFamily=Comic Sans MS;fontSize=20;fillColor=#f8cecc;strokeColor=#b85450;comic=0;strokeWidth=2;" vertex="1" parent="1">
          <mxGeometry x="-1782" y="-670" width="403" height="362" as="geometry" />
        </mxCell>
        <mxCell id="vKnNRoz7A6DcVykYE2kj-2" value="" style="shape=image;verticalLabelPosition=bottom;labelBackgroundColor=default;verticalAlign=top;aspect=fixed;imageAspect=0;image=data:image/svg+xml,PHN2ZyB4bWxuczp4bGluaz0iaHR0cDovL3d3dy53My5vcmcvMTk5OS94bGluayIgeG1sbnM9Imh0dHA6Ly93d3cudzMub3JnLzIwMDAvc3ZnIiBwcmVzZXJ2ZUFzcGVjdFJhdGlvPSJ4TWlkWU1pZCIgdmVyc2lvbj0iMS4xIiB2aWV3Qm94PSIwLjA5OTYxMDkwMjM2OTAyMjM3IDAuNjk3Mjc2Mjk0MjMxNDE0OCAyNTUuMDAzODkwOTkxMjEwOTQgMjcwLjQ0MzYwMzUxNTYyNSIgaGVpZ2h0PSIyNzAuNDQzNjAzNTE1NjI1IiB3aWR0aD0iMjU1LjAwMzg5MDk5MTIxMDk0Ij4mI3hhOwk8Zz4mI3hhOwkJPHBhdGggZmlsbD0iI0UyMzIzNyIgZD0iTTAuMDk5NjEwODk0OSw0NS41MjIxNzkgTDEyNS45MDgxNzEsMC42OTcyNzYyNjUgTDI1NS4xMDM1MDIsNDQuNzI1MjkxOCBMMjM0LjE4NTIxNCwyMTEuMTc1MDk3IEwxMjUuOTA4MTcxLDI3MS4xNDA4NTYgTDE5LjMyNDUxMzYsMjExLjk3MTk4NCBMMC4wOTk2MTA4OTQ5LDQ1LjUyMjE3OSBaIi8+JiN4YTsJCTxwYXRoIGZpbGw9IiNCNTJFMzEiIGQ9Ik0yNTUuMTAzNTAyLDQ0LjcyNTI5MTggTDEyNS45MDgxNzEsMC42OTcyNzYyNjUgTDEyNS45MDgxNzEsMjcxLjE0MDg1NiBMMjM0LjE4NTIxNCwyMTEuMjc0NzA4IEwyNTUuMTAzNTAyLDQ0LjcyNTI5MTggTDI1NS4xMDM1MDIsNDQuNzI1MjkxOCBaIi8+JiN4YTsJCTxwYXRoIGZpbGw9IiNGRkZGRkYiIGQ9Ik0xMjYuMTA3MzkzLDMyLjI3MzkzIEwxMjYuMTA3MzkzLDMyLjI3MzkzIEw0Ny43MTM2MTg3LDIwNi42OTI2MDcgTDc2Ljk5OTIyMTgsMjA2LjE5NDU1MyBMOTIuNzM3NzQzMiwxNjYuODQ4MjQ5IEwxMjYuMjA3MDA0LDE2Ni44NDgyNDkgTDEyNi4zMDY2MTUsMTY2Ljg0ODI0OSBMMTYzLjA2MzAzNSwxNjYuODQ4MjQ5IEwxODAuMjk1NzIsMjA2LjY5MjYwNyBMMjA4LjI4NjM4MSwyMDcuMTkwNjYxIEwxMjYuMTA3MzkzLDMyLjI3MzkzIEwxMjYuMTA3MzkzLDMyLjI3MzkzIFogTTEyNi4zMDY2MTUsODguMTU1NjQyIEwxNTIuODAzMTEzLDE0My41MzkzIEwxMjcuNDAyMzM1LDE0My41MzkzIEwxMjYuMTA3MzkzLDE0My41MzkzIEwxMDIuOTk3NjY1LDE0My41MzkzIEwxMjYuMzA2NjE1LDg4LjE1NTY0MiBMMTI2LjMwNjYxNSw4OC4xNTU2NDIgWiIvPiYjeGE7CTwvZz4mI3hhOzwvc3ZnPg==;fontFamily=Comic Sans MS;" vertex="1" parent="1">
          <mxGeometry x="-1693" y="-593" width="216.27" height="229" as="geometry" />
        </mxCell>
        <mxCell id="vKnNRoz7A6DcVykYE2kj-4" value="&lt;font style=&quot;font-size: 50px;&quot;&gt;FrontEnd&lt;/font&gt;" style="text;html=1;strokeColor=none;fillColor=none;align=center;verticalAlign=middle;whiteSpace=wrap;rounded=0;fontSize=20;fontFamily=Comic Sans MS;" vertex="1" parent="1">
          <mxGeometry x="-1688" y="-646.9958536585366" width="212" height="28.536585365853657" as="geometry" />
        </mxCell>
        <mxCell id="vKnNRoz7A6DcVykYE2kj-17" style="edgeStyle=orthogonalEdgeStyle;rounded=0;hachureGap=4;orthogonalLoop=1;jettySize=auto;html=1;exitX=0.5;exitY=1;exitDx=0;exitDy=0;fontFamily=Comic Sans MS;fontSize=16;" edge="1" parent="1">
          <mxGeometry relative="1" as="geometry">
            <mxPoint x="-1551" y="-289.5121951219512" as="sourcePoint" />
            <mxPoint x="-1551" y="-289.5121951219512" as="targetPoint" />
          </mxGeometry>
        </mxCell>
        <mxCell id="Lbs8U4dKZyW4Py14-Ycx-1" value="USER" style="shape=umlActor;verticalLabelPosition=bottom;verticalAlign=top;html=1;outlineConnect=0;sketch=1;hachureGap=4;jiggle=2;curveFitting=1;fontFamily=Architects Daughter;fontSource=https%3A%2F%2Ffonts.googleapis.com%2Fcss%3Ffamily%3DArchitects%2BDaughter;fontSize=20;strokeWidth=10;" vertex="1" parent="1">
          <mxGeometry x="-2182" y="-555" width="105" height="203" as="geometry" />
        </mxCell>
        <mxCell id="Lbs8U4dKZyW4Py14-Ycx-2" style="edgeStyle=orthogonalEdgeStyle;sketch=1;hachureGap=4;jiggle=2;curveFitting=1;orthogonalLoop=1;jettySize=auto;html=1;entryX=0.005;entryY=0.55;entryDx=0;entryDy=0;entryPerimeter=0;fontFamily=Architects Daughter;fontSource=https%3A%2F%2Ffonts.googleapis.com%2Fcss%3Ffamily%3DArchitects%2BDaughter;fontSize=16;curved=1;" edge="1" parent="1" source="Lbs8U4dKZyW4Py14-Ycx-1" target="vKnNRoz7A6DcVykYE2kj-3">
          <mxGeometry relative="1" as="geometry" />
        </mxCell>
        <mxCell id="vKnNRoz7A6DcVykYE2kj-133" style="rounded=0;hachureGap=4;orthogonalLoop=1;jettySize=auto;html=1;entryX=1;entryY=0.25;entryDx=0;entryDy=0;fontFamily=Architects Daughter;fontSource=https%3A%2F%2Ffonts.googleapis.com%2Fcss%3Ffamily%3DArchitects%2BDaughter;fontSize=16;exitX=0;exitY=0.5;exitDx=0;exitDy=0;strokeWidth=7;flowAnimation=1;fillColor=#dae8fc;strokeColor=#6c8ebf;endArrow=classic;endFill=1;startArrow=none;startFill=0;ignoreEdge=0;" edge="1" parent="1" source="vKnNRoz7A6DcVykYE2kj-57" target="vKnNRoz7A6DcVykYE2kj-13">
          <mxGeometry relative="1" as="geometry" />
        </mxCell>
        <mxCell id="vKnNRoz7A6DcVykYE2kj-134" style="rounded=0;hachureGap=4;orthogonalLoop=1;jettySize=auto;html=1;entryX=1.002;entryY=0.391;entryDx=0;entryDy=0;fontFamily=Architects Daughter;fontSource=https%3A%2F%2Ffonts.googleapis.com%2Fcss%3Ffamily%3DArchitects%2BDaughter;fontSize=16;exitX=0;exitY=0.5;exitDx=0;exitDy=0;strokeWidth=7;flowAnimation=1;fillColor=#dae8fc;strokeColor=#6c8ebf;endArrow=classic;endFill=1;startArrow=none;startFill=0;ignoreEdge=0;entryPerimeter=0;" edge="1" parent="1" source="vKnNRoz7A6DcVykYE2kj-65" target="vKnNRoz7A6DcVykYE2kj-13">
          <mxGeometry relative="1" as="geometry" />
        </mxCell>
        <mxCell id="vKnNRoz7A6DcVykYE2kj-135" style="rounded=0;hachureGap=4;orthogonalLoop=1;jettySize=auto;html=1;fontFamily=Architects Daughter;fontSource=https%3A%2F%2Ffonts.googleapis.com%2Fcss%3Ffamily%3DArchitects%2BDaughter;fontSize=16;exitX=0.001;exitY=0.444;exitDx=0;exitDy=0;strokeWidth=7;flowAnimation=1;fillColor=#dae8fc;strokeColor=#6c8ebf;endArrow=classic;endFill=1;startArrow=none;startFill=0;entryX=1;entryY=0.5;entryDx=0;entryDy=0;ignoreEdge=0;exitPerimeter=0;" edge="1" parent="1" source="vKnNRoz7A6DcVykYE2kj-66" target="vKnNRoz7A6DcVykYE2kj-13">
          <mxGeometry relative="1" as="geometry" />
        </mxCell>
        <mxCell id="vKnNRoz7A6DcVykYE2kj-136" style="rounded=0;hachureGap=4;orthogonalLoop=1;jettySize=auto;html=1;entryX=0.999;entryY=0.64;entryDx=0;entryDy=0;fontFamily=Architects Daughter;fontSource=https%3A%2F%2Ffonts.googleapis.com%2Fcss%3Ffamily%3DArchitects%2BDaughter;fontSize=16;exitX=0;exitY=0.5;exitDx=0;exitDy=0;strokeWidth=7;flowAnimation=1;fillColor=#dae8fc;strokeColor=#6c8ebf;endArrow=classic;endFill=1;startArrow=none;startFill=0;ignoreEdge=0;entryPerimeter=0;" edge="1" parent="1" source="vKnNRoz7A6DcVykYE2kj-68" target="vKnNRoz7A6DcVykYE2kj-13">
          <mxGeometry relative="1" as="geometry" />
        </mxCell>
        <mxCell id="vKnNRoz7A6DcVykYE2kj-137" style="rounded=0;hachureGap=4;orthogonalLoop=1;jettySize=auto;html=1;entryX=1;entryY=0.75;entryDx=0;entryDy=0;fontFamily=Architects Daughter;fontSource=https%3A%2F%2Ffonts.googleapis.com%2Fcss%3Ffamily%3DArchitects%2BDaughter;fontSize=16;exitX=0;exitY=0.5;exitDx=0;exitDy=0;strokeWidth=7;flowAnimation=1;fillColor=#dae8fc;strokeColor=#6c8ebf;endArrow=classic;endFill=1;startArrow=none;startFill=0;ignoreEdge=0;" edge="1" parent="1" source="vKnNRoz7A6DcVykYE2kj-67" target="vKnNRoz7A6DcVykYE2kj-13">
          <mxGeometry relative="1" as="geometry" />
        </mxCell>
      </root>
    </mxGraphModel>
  </diagram>
</mxfile>
